%TF.GenerationSoftware,KiCad,Pcbnew,9.0.5*%
%TF.CreationDate,2026-01-24T21:08:04+00:00*%
%TF.ProjectId,zx_spectrum_composite_mod,7a785f73-7065-4637-9472-756d5f636f6d,1.0*%
%TF.SameCoordinates,Original*%
%TF.FileFunction,Legend,Top*%
%TF.FilePolarity,Positive*%
%FSLAX46Y46*%
G04 Gerber Fmt 4.6, Leading zero omitted, Abs format (unit mm)*
G04 Created by KiCad (PCBNEW 9.0.5) date 2026-01-24 21:08:04*
%MOMM*%
%LPD*%
G01*
G04 APERTURE LIST*
%ADD10C,0.125000*%
%ADD11C,0.150000*%
%ADD12C,0.254000*%
%ADD13C,0.120000*%
%ADD14C,0.200000*%
%ADD15C,0.300000*%
%ADD16C,0.100000*%
G04 APERTURE END LIST*
D10*
X66312664Y-63051309D02*
X66455521Y-63098928D01*
X66455521Y-63098928D02*
X66503140Y-63146547D01*
X66503140Y-63146547D02*
X66550759Y-63241785D01*
X66550759Y-63241785D02*
X66550759Y-63384642D01*
X66550759Y-63384642D02*
X66503140Y-63479880D01*
X66503140Y-63479880D02*
X66455521Y-63527500D01*
X66455521Y-63527500D02*
X66360283Y-63575119D01*
X66360283Y-63575119D02*
X65979331Y-63575119D01*
X65979331Y-63575119D02*
X65979331Y-62575119D01*
X65979331Y-62575119D02*
X66312664Y-62575119D01*
X66312664Y-62575119D02*
X66407902Y-62622738D01*
X66407902Y-62622738D02*
X66455521Y-62670357D01*
X66455521Y-62670357D02*
X66503140Y-62765595D01*
X66503140Y-62765595D02*
X66503140Y-62860833D01*
X66503140Y-62860833D02*
X66455521Y-62956071D01*
X66455521Y-62956071D02*
X66407902Y-63003690D01*
X66407902Y-63003690D02*
X66312664Y-63051309D01*
X66312664Y-63051309D02*
X65979331Y-63051309D01*
X67407902Y-63575119D02*
X67407902Y-63051309D01*
X67407902Y-63051309D02*
X67360283Y-62956071D01*
X67360283Y-62956071D02*
X67265045Y-62908452D01*
X67265045Y-62908452D02*
X67074569Y-62908452D01*
X67074569Y-62908452D02*
X66979331Y-62956071D01*
X67407902Y-63527500D02*
X67312664Y-63575119D01*
X67312664Y-63575119D02*
X67074569Y-63575119D01*
X67074569Y-63575119D02*
X66979331Y-63527500D01*
X66979331Y-63527500D02*
X66931712Y-63432261D01*
X66931712Y-63432261D02*
X66931712Y-63337023D01*
X66931712Y-63337023D02*
X66979331Y-63241785D01*
X66979331Y-63241785D02*
X67074569Y-63194166D01*
X67074569Y-63194166D02*
X67312664Y-63194166D01*
X67312664Y-63194166D02*
X67407902Y-63146547D01*
X67884093Y-63575119D02*
X67884093Y-62908452D01*
X67884093Y-63003690D02*
X67931712Y-62956071D01*
X67931712Y-62956071D02*
X68026950Y-62908452D01*
X68026950Y-62908452D02*
X68169807Y-62908452D01*
X68169807Y-62908452D02*
X68265045Y-62956071D01*
X68265045Y-62956071D02*
X68312664Y-63051309D01*
X68312664Y-63051309D02*
X68312664Y-63575119D01*
X68312664Y-63051309D02*
X68360283Y-62956071D01*
X68360283Y-62956071D02*
X68455521Y-62908452D01*
X68455521Y-62908452D02*
X68598378Y-62908452D01*
X68598378Y-62908452D02*
X68693617Y-62956071D01*
X68693617Y-62956071D02*
X68741236Y-63051309D01*
X68741236Y-63051309D02*
X68741236Y-63575119D01*
X69217426Y-63575119D02*
X69217426Y-62575119D01*
X69217426Y-62956071D02*
X69312664Y-62908452D01*
X69312664Y-62908452D02*
X69503140Y-62908452D01*
X69503140Y-62908452D02*
X69598378Y-62956071D01*
X69598378Y-62956071D02*
X69645997Y-63003690D01*
X69645997Y-63003690D02*
X69693616Y-63098928D01*
X69693616Y-63098928D02*
X69693616Y-63384642D01*
X69693616Y-63384642D02*
X69645997Y-63479880D01*
X69645997Y-63479880D02*
X69598378Y-63527500D01*
X69598378Y-63527500D02*
X69503140Y-63575119D01*
X69503140Y-63575119D02*
X69312664Y-63575119D01*
X69312664Y-63575119D02*
X69217426Y-63527500D01*
X70265045Y-63575119D02*
X70169807Y-63527500D01*
X70169807Y-63527500D02*
X70122188Y-63432261D01*
X70122188Y-63432261D02*
X70122188Y-62575119D01*
X71026950Y-63527500D02*
X70931712Y-63575119D01*
X70931712Y-63575119D02*
X70741236Y-63575119D01*
X70741236Y-63575119D02*
X70645998Y-63527500D01*
X70645998Y-63527500D02*
X70598379Y-63432261D01*
X70598379Y-63432261D02*
X70598379Y-63051309D01*
X70598379Y-63051309D02*
X70645998Y-62956071D01*
X70645998Y-62956071D02*
X70741236Y-62908452D01*
X70741236Y-62908452D02*
X70931712Y-62908452D01*
X70931712Y-62908452D02*
X71026950Y-62956071D01*
X71026950Y-62956071D02*
X71074569Y-63051309D01*
X71074569Y-63051309D02*
X71074569Y-63146547D01*
X71074569Y-63146547D02*
X70598379Y-63241785D01*
X71407903Y-62908452D02*
X71598379Y-63575119D01*
X71598379Y-63575119D02*
X71788855Y-63098928D01*
X71788855Y-63098928D02*
X71979331Y-63575119D01*
X71979331Y-63575119D02*
X72169807Y-62908452D01*
X72931712Y-63527500D02*
X72836474Y-63575119D01*
X72836474Y-63575119D02*
X72645998Y-63575119D01*
X72645998Y-63575119D02*
X72550760Y-63527500D01*
X72550760Y-63527500D02*
X72503141Y-63432261D01*
X72503141Y-63432261D02*
X72503141Y-63051309D01*
X72503141Y-63051309D02*
X72550760Y-62956071D01*
X72550760Y-62956071D02*
X72645998Y-62908452D01*
X72645998Y-62908452D02*
X72836474Y-62908452D01*
X72836474Y-62908452D02*
X72931712Y-62956071D01*
X72931712Y-62956071D02*
X72979331Y-63051309D01*
X72979331Y-63051309D02*
X72979331Y-63146547D01*
X72979331Y-63146547D02*
X72503141Y-63241785D01*
X73788855Y-63527500D02*
X73693617Y-63575119D01*
X73693617Y-63575119D02*
X73503141Y-63575119D01*
X73503141Y-63575119D02*
X73407903Y-63527500D01*
X73407903Y-63527500D02*
X73360284Y-63432261D01*
X73360284Y-63432261D02*
X73360284Y-63051309D01*
X73360284Y-63051309D02*
X73407903Y-62956071D01*
X73407903Y-62956071D02*
X73503141Y-62908452D01*
X73503141Y-62908452D02*
X73693617Y-62908452D01*
X73693617Y-62908452D02*
X73788855Y-62956071D01*
X73788855Y-62956071D02*
X73836474Y-63051309D01*
X73836474Y-63051309D02*
X73836474Y-63146547D01*
X73836474Y-63146547D02*
X73360284Y-63241785D01*
X74265046Y-62908452D02*
X74265046Y-63575119D01*
X74265046Y-63003690D02*
X74312665Y-62956071D01*
X74312665Y-62956071D02*
X74407903Y-62908452D01*
X74407903Y-62908452D02*
X74550760Y-62908452D01*
X74550760Y-62908452D02*
X74645998Y-62956071D01*
X74645998Y-62956071D02*
X74693617Y-63051309D01*
X74693617Y-63051309D02*
X74693617Y-63575119D01*
X75074570Y-62908452D02*
X75312665Y-63575119D01*
X75550760Y-62908452D02*
X75312665Y-63575119D01*
X75312665Y-63575119D02*
X75217427Y-63813214D01*
X75217427Y-63813214D02*
X75169808Y-63860833D01*
X75169808Y-63860833D02*
X75074570Y-63908452D01*
X76407903Y-62575119D02*
X75931713Y-62575119D01*
X75931713Y-62575119D02*
X75884094Y-63051309D01*
X75884094Y-63051309D02*
X75931713Y-63003690D01*
X75931713Y-63003690D02*
X76026951Y-62956071D01*
X76026951Y-62956071D02*
X76265046Y-62956071D01*
X76265046Y-62956071D02*
X76360284Y-63003690D01*
X76360284Y-63003690D02*
X76407903Y-63051309D01*
X76407903Y-63051309D02*
X76455522Y-63146547D01*
X76455522Y-63146547D02*
X76455522Y-63384642D01*
X76455522Y-63384642D02*
X76407903Y-63479880D01*
X76407903Y-63479880D02*
X76360284Y-63527500D01*
X76360284Y-63527500D02*
X76265046Y-63575119D01*
X76265046Y-63575119D02*
X76026951Y-63575119D01*
X76026951Y-63575119D02*
X75931713Y-63527500D01*
X75931713Y-63527500D02*
X75884094Y-63479880D01*
X76788856Y-62575119D02*
X77455522Y-62575119D01*
X77455522Y-62575119D02*
X77026951Y-63575119D01*
X78598380Y-63194166D02*
X79360285Y-63194166D01*
X80550761Y-63527500D02*
X80693618Y-63575119D01*
X80693618Y-63575119D02*
X80931713Y-63575119D01*
X80931713Y-63575119D02*
X81026951Y-63527500D01*
X81026951Y-63527500D02*
X81074570Y-63479880D01*
X81074570Y-63479880D02*
X81122189Y-63384642D01*
X81122189Y-63384642D02*
X81122189Y-63289404D01*
X81122189Y-63289404D02*
X81074570Y-63194166D01*
X81074570Y-63194166D02*
X81026951Y-63146547D01*
X81026951Y-63146547D02*
X80931713Y-63098928D01*
X80931713Y-63098928D02*
X80741237Y-63051309D01*
X80741237Y-63051309D02*
X80645999Y-63003690D01*
X80645999Y-63003690D02*
X80598380Y-62956071D01*
X80598380Y-62956071D02*
X80550761Y-62860833D01*
X80550761Y-62860833D02*
X80550761Y-62765595D01*
X80550761Y-62765595D02*
X80598380Y-62670357D01*
X80598380Y-62670357D02*
X80645999Y-62622738D01*
X80645999Y-62622738D02*
X80741237Y-62575119D01*
X80741237Y-62575119D02*
X80979332Y-62575119D01*
X80979332Y-62575119D02*
X81122189Y-62622738D01*
X81979332Y-62908452D02*
X81979332Y-63575119D01*
X81550761Y-62908452D02*
X81550761Y-63432261D01*
X81550761Y-63432261D02*
X81598380Y-63527500D01*
X81598380Y-63527500D02*
X81693618Y-63575119D01*
X81693618Y-63575119D02*
X81836475Y-63575119D01*
X81836475Y-63575119D02*
X81931713Y-63527500D01*
X81931713Y-63527500D02*
X81979332Y-63479880D01*
X82455523Y-63575119D02*
X82455523Y-62575119D01*
X82455523Y-62956071D02*
X82550761Y-62908452D01*
X82550761Y-62908452D02*
X82741237Y-62908452D01*
X82741237Y-62908452D02*
X82836475Y-62956071D01*
X82836475Y-62956071D02*
X82884094Y-63003690D01*
X82884094Y-63003690D02*
X82931713Y-63098928D01*
X82931713Y-63098928D02*
X82931713Y-63384642D01*
X82931713Y-63384642D02*
X82884094Y-63479880D01*
X82884094Y-63479880D02*
X82836475Y-63527500D01*
X82836475Y-63527500D02*
X82741237Y-63575119D01*
X82741237Y-63575119D02*
X82550761Y-63575119D01*
X82550761Y-63575119D02*
X82455523Y-63527500D01*
X83360285Y-63575119D02*
X83360285Y-62908452D01*
X83360285Y-63003690D02*
X83407904Y-62956071D01*
X83407904Y-62956071D02*
X83503142Y-62908452D01*
X83503142Y-62908452D02*
X83645999Y-62908452D01*
X83645999Y-62908452D02*
X83741237Y-62956071D01*
X83741237Y-62956071D02*
X83788856Y-63051309D01*
X83788856Y-63051309D02*
X83788856Y-63575119D01*
X83788856Y-63051309D02*
X83836475Y-62956071D01*
X83836475Y-62956071D02*
X83931713Y-62908452D01*
X83931713Y-62908452D02*
X84074570Y-62908452D01*
X84074570Y-62908452D02*
X84169809Y-62956071D01*
X84169809Y-62956071D02*
X84217428Y-63051309D01*
X84217428Y-63051309D02*
X84217428Y-63575119D01*
X85074570Y-63527500D02*
X84979332Y-63575119D01*
X84979332Y-63575119D02*
X84788856Y-63575119D01*
X84788856Y-63575119D02*
X84693618Y-63527500D01*
X84693618Y-63527500D02*
X84645999Y-63432261D01*
X84645999Y-63432261D02*
X84645999Y-63051309D01*
X84645999Y-63051309D02*
X84693618Y-62956071D01*
X84693618Y-62956071D02*
X84788856Y-62908452D01*
X84788856Y-62908452D02*
X84979332Y-62908452D01*
X84979332Y-62908452D02*
X85074570Y-62956071D01*
X85074570Y-62956071D02*
X85122189Y-63051309D01*
X85122189Y-63051309D02*
X85122189Y-63146547D01*
X85122189Y-63146547D02*
X84645999Y-63241785D01*
X85503142Y-63527500D02*
X85598380Y-63575119D01*
X85598380Y-63575119D02*
X85788856Y-63575119D01*
X85788856Y-63575119D02*
X85884094Y-63527500D01*
X85884094Y-63527500D02*
X85931713Y-63432261D01*
X85931713Y-63432261D02*
X85931713Y-63384642D01*
X85931713Y-63384642D02*
X85884094Y-63289404D01*
X85884094Y-63289404D02*
X85788856Y-63241785D01*
X85788856Y-63241785D02*
X85645999Y-63241785D01*
X85645999Y-63241785D02*
X85550761Y-63194166D01*
X85550761Y-63194166D02*
X85503142Y-63098928D01*
X85503142Y-63098928D02*
X85503142Y-63051309D01*
X85503142Y-63051309D02*
X85550761Y-62956071D01*
X85550761Y-62956071D02*
X85645999Y-62908452D01*
X85645999Y-62908452D02*
X85788856Y-62908452D01*
X85788856Y-62908452D02*
X85884094Y-62956071D01*
X86503142Y-63575119D02*
X86407904Y-63527500D01*
X86407904Y-63527500D02*
X86360285Y-63479880D01*
X86360285Y-63479880D02*
X86312666Y-63384642D01*
X86312666Y-63384642D02*
X86312666Y-63098928D01*
X86312666Y-63098928D02*
X86360285Y-63003690D01*
X86360285Y-63003690D02*
X86407904Y-62956071D01*
X86407904Y-62956071D02*
X86503142Y-62908452D01*
X86503142Y-62908452D02*
X86645999Y-62908452D01*
X86645999Y-62908452D02*
X86741237Y-62956071D01*
X86741237Y-62956071D02*
X86788856Y-63003690D01*
X86788856Y-63003690D02*
X86836475Y-63098928D01*
X86836475Y-63098928D02*
X86836475Y-63384642D01*
X86836475Y-63384642D02*
X86788856Y-63479880D01*
X86788856Y-63479880D02*
X86741237Y-63527500D01*
X86741237Y-63527500D02*
X86645999Y-63575119D01*
X86645999Y-63575119D02*
X86503142Y-63575119D01*
X87265047Y-62908452D02*
X87265047Y-63575119D01*
X87265047Y-63003690D02*
X87312666Y-62956071D01*
X87312666Y-62956071D02*
X87407904Y-62908452D01*
X87407904Y-62908452D02*
X87550761Y-62908452D01*
X87550761Y-62908452D02*
X87645999Y-62956071D01*
X87645999Y-62956071D02*
X87693618Y-63051309D01*
X87693618Y-63051309D02*
X87693618Y-63575119D01*
X89265047Y-63051309D02*
X89407904Y-63098928D01*
X89407904Y-63098928D02*
X89455523Y-63146547D01*
X89455523Y-63146547D02*
X89503142Y-63241785D01*
X89503142Y-63241785D02*
X89503142Y-63384642D01*
X89503142Y-63384642D02*
X89455523Y-63479880D01*
X89455523Y-63479880D02*
X89407904Y-63527500D01*
X89407904Y-63527500D02*
X89312666Y-63575119D01*
X89312666Y-63575119D02*
X88931714Y-63575119D01*
X88931714Y-63575119D02*
X88931714Y-62575119D01*
X88931714Y-62575119D02*
X89265047Y-62575119D01*
X89265047Y-62575119D02*
X89360285Y-62622738D01*
X89360285Y-62622738D02*
X89407904Y-62670357D01*
X89407904Y-62670357D02*
X89455523Y-62765595D01*
X89455523Y-62765595D02*
X89455523Y-62860833D01*
X89455523Y-62860833D02*
X89407904Y-62956071D01*
X89407904Y-62956071D02*
X89360285Y-63003690D01*
X89360285Y-63003690D02*
X89265047Y-63051309D01*
X89265047Y-63051309D02*
X88931714Y-63051309D01*
X89931714Y-63575119D02*
X89931714Y-62908452D01*
X89931714Y-63098928D02*
X89979333Y-63003690D01*
X89979333Y-63003690D02*
X90026952Y-62956071D01*
X90026952Y-62956071D02*
X90122190Y-62908452D01*
X90122190Y-62908452D02*
X90217428Y-62908452D01*
X90979333Y-63575119D02*
X90979333Y-63051309D01*
X90979333Y-63051309D02*
X90931714Y-62956071D01*
X90931714Y-62956071D02*
X90836476Y-62908452D01*
X90836476Y-62908452D02*
X90646000Y-62908452D01*
X90646000Y-62908452D02*
X90550762Y-62956071D01*
X90979333Y-63527500D02*
X90884095Y-63575119D01*
X90884095Y-63575119D02*
X90646000Y-63575119D01*
X90646000Y-63575119D02*
X90550762Y-63527500D01*
X90550762Y-63527500D02*
X90503143Y-63432261D01*
X90503143Y-63432261D02*
X90503143Y-63337023D01*
X90503143Y-63337023D02*
X90550762Y-63241785D01*
X90550762Y-63241785D02*
X90646000Y-63194166D01*
X90646000Y-63194166D02*
X90884095Y-63194166D01*
X90884095Y-63194166D02*
X90979333Y-63146547D01*
X91455524Y-63575119D02*
X91455524Y-62908452D01*
X91455524Y-62575119D02*
X91407905Y-62622738D01*
X91407905Y-62622738D02*
X91455524Y-62670357D01*
X91455524Y-62670357D02*
X91503143Y-62622738D01*
X91503143Y-62622738D02*
X91455524Y-62575119D01*
X91455524Y-62575119D02*
X91455524Y-62670357D01*
X91931714Y-62908452D02*
X91931714Y-63575119D01*
X91931714Y-63003690D02*
X91979333Y-62956071D01*
X91979333Y-62956071D02*
X92074571Y-62908452D01*
X92074571Y-62908452D02*
X92217428Y-62908452D01*
X92217428Y-62908452D02*
X92312666Y-62956071D01*
X92312666Y-62956071D02*
X92360285Y-63051309D01*
X92360285Y-63051309D02*
X92360285Y-63575119D01*
X94169809Y-63479880D02*
X94122190Y-63527500D01*
X94122190Y-63527500D02*
X93979333Y-63575119D01*
X93979333Y-63575119D02*
X93884095Y-63575119D01*
X93884095Y-63575119D02*
X93741238Y-63527500D01*
X93741238Y-63527500D02*
X93646000Y-63432261D01*
X93646000Y-63432261D02*
X93598381Y-63337023D01*
X93598381Y-63337023D02*
X93550762Y-63146547D01*
X93550762Y-63146547D02*
X93550762Y-63003690D01*
X93550762Y-63003690D02*
X93598381Y-62813214D01*
X93598381Y-62813214D02*
X93646000Y-62717976D01*
X93646000Y-62717976D02*
X93741238Y-62622738D01*
X93741238Y-62622738D02*
X93884095Y-62575119D01*
X93884095Y-62575119D02*
X93979333Y-62575119D01*
X93979333Y-62575119D02*
X94122190Y-62622738D01*
X94122190Y-62622738D02*
X94169809Y-62670357D01*
X94741238Y-63575119D02*
X94646000Y-63527500D01*
X94646000Y-63527500D02*
X94598381Y-63479880D01*
X94598381Y-63479880D02*
X94550762Y-63384642D01*
X94550762Y-63384642D02*
X94550762Y-63098928D01*
X94550762Y-63098928D02*
X94598381Y-63003690D01*
X94598381Y-63003690D02*
X94646000Y-62956071D01*
X94646000Y-62956071D02*
X94741238Y-62908452D01*
X94741238Y-62908452D02*
X94884095Y-62908452D01*
X94884095Y-62908452D02*
X94979333Y-62956071D01*
X94979333Y-62956071D02*
X95026952Y-63003690D01*
X95026952Y-63003690D02*
X95074571Y-63098928D01*
X95074571Y-63098928D02*
X95074571Y-63384642D01*
X95074571Y-63384642D02*
X95026952Y-63479880D01*
X95026952Y-63479880D02*
X94979333Y-63527500D01*
X94979333Y-63527500D02*
X94884095Y-63575119D01*
X94884095Y-63575119D02*
X94741238Y-63575119D01*
X95503143Y-63575119D02*
X95503143Y-62908452D01*
X95503143Y-63098928D02*
X95550762Y-63003690D01*
X95550762Y-63003690D02*
X95598381Y-62956071D01*
X95598381Y-62956071D02*
X95693619Y-62908452D01*
X95693619Y-62908452D02*
X95788857Y-62908452D01*
X96122191Y-62908452D02*
X96122191Y-63908452D01*
X96122191Y-62956071D02*
X96217429Y-62908452D01*
X96217429Y-62908452D02*
X96407905Y-62908452D01*
X96407905Y-62908452D02*
X96503143Y-62956071D01*
X96503143Y-62956071D02*
X96550762Y-63003690D01*
X96550762Y-63003690D02*
X96598381Y-63098928D01*
X96598381Y-63098928D02*
X96598381Y-63384642D01*
X96598381Y-63384642D02*
X96550762Y-63479880D01*
X96550762Y-63479880D02*
X96503143Y-63527500D01*
X96503143Y-63527500D02*
X96407905Y-63575119D01*
X96407905Y-63575119D02*
X96217429Y-63575119D01*
X96217429Y-63575119D02*
X96122191Y-63527500D01*
X97169810Y-63575119D02*
X97074572Y-63527500D01*
X97074572Y-63527500D02*
X97026953Y-63479880D01*
X97026953Y-63479880D02*
X96979334Y-63384642D01*
X96979334Y-63384642D02*
X96979334Y-63098928D01*
X96979334Y-63098928D02*
X97026953Y-63003690D01*
X97026953Y-63003690D02*
X97074572Y-62956071D01*
X97074572Y-62956071D02*
X97169810Y-62908452D01*
X97169810Y-62908452D02*
X97312667Y-62908452D01*
X97312667Y-62908452D02*
X97407905Y-62956071D01*
X97407905Y-62956071D02*
X97455524Y-63003690D01*
X97455524Y-63003690D02*
X97503143Y-63098928D01*
X97503143Y-63098928D02*
X97503143Y-63384642D01*
X97503143Y-63384642D02*
X97455524Y-63479880D01*
X97455524Y-63479880D02*
X97407905Y-63527500D01*
X97407905Y-63527500D02*
X97312667Y-63575119D01*
X97312667Y-63575119D02*
X97169810Y-63575119D01*
X97931715Y-63575119D02*
X97931715Y-62908452D01*
X97931715Y-63098928D02*
X97979334Y-63003690D01*
X97979334Y-63003690D02*
X98026953Y-62956071D01*
X98026953Y-62956071D02*
X98122191Y-62908452D01*
X98122191Y-62908452D02*
X98217429Y-62908452D01*
X98979334Y-63575119D02*
X98979334Y-63051309D01*
X98979334Y-63051309D02*
X98931715Y-62956071D01*
X98931715Y-62956071D02*
X98836477Y-62908452D01*
X98836477Y-62908452D02*
X98646001Y-62908452D01*
X98646001Y-62908452D02*
X98550763Y-62956071D01*
X98979334Y-63527500D02*
X98884096Y-63575119D01*
X98884096Y-63575119D02*
X98646001Y-63575119D01*
X98646001Y-63575119D02*
X98550763Y-63527500D01*
X98550763Y-63527500D02*
X98503144Y-63432261D01*
X98503144Y-63432261D02*
X98503144Y-63337023D01*
X98503144Y-63337023D02*
X98550763Y-63241785D01*
X98550763Y-63241785D02*
X98646001Y-63194166D01*
X98646001Y-63194166D02*
X98884096Y-63194166D01*
X98884096Y-63194166D02*
X98979334Y-63146547D01*
X99312668Y-62908452D02*
X99693620Y-62908452D01*
X99455525Y-62575119D02*
X99455525Y-63432261D01*
X99455525Y-63432261D02*
X99503144Y-63527500D01*
X99503144Y-63527500D02*
X99598382Y-63575119D01*
X99598382Y-63575119D02*
X99693620Y-63575119D01*
X100026954Y-63575119D02*
X100026954Y-62908452D01*
X100026954Y-62575119D02*
X99979335Y-62622738D01*
X99979335Y-62622738D02*
X100026954Y-62670357D01*
X100026954Y-62670357D02*
X100074573Y-62622738D01*
X100074573Y-62622738D02*
X100026954Y-62575119D01*
X100026954Y-62575119D02*
X100026954Y-62670357D01*
X100646001Y-63575119D02*
X100550763Y-63527500D01*
X100550763Y-63527500D02*
X100503144Y-63479880D01*
X100503144Y-63479880D02*
X100455525Y-63384642D01*
X100455525Y-63384642D02*
X100455525Y-63098928D01*
X100455525Y-63098928D02*
X100503144Y-63003690D01*
X100503144Y-63003690D02*
X100550763Y-62956071D01*
X100550763Y-62956071D02*
X100646001Y-62908452D01*
X100646001Y-62908452D02*
X100788858Y-62908452D01*
X100788858Y-62908452D02*
X100884096Y-62956071D01*
X100884096Y-62956071D02*
X100931715Y-63003690D01*
X100931715Y-63003690D02*
X100979334Y-63098928D01*
X100979334Y-63098928D02*
X100979334Y-63384642D01*
X100979334Y-63384642D02*
X100931715Y-63479880D01*
X100931715Y-63479880D02*
X100884096Y-63527500D01*
X100884096Y-63527500D02*
X100788858Y-63575119D01*
X100788858Y-63575119D02*
X100646001Y-63575119D01*
X101407906Y-62908452D02*
X101407906Y-63575119D01*
X101407906Y-63003690D02*
X101455525Y-62956071D01*
X101455525Y-62956071D02*
X101550763Y-62908452D01*
X101550763Y-62908452D02*
X101693620Y-62908452D01*
X101693620Y-62908452D02*
X101788858Y-62956071D01*
X101788858Y-62956071D02*
X101836477Y-63051309D01*
X101836477Y-63051309D02*
X101836477Y-63575119D01*
D11*
X72834741Y-37554019D02*
X73501407Y-37554019D01*
X73501407Y-37554019D02*
X72834741Y-38554019D01*
X72834741Y-38554019D02*
X73501407Y-38554019D01*
X73787122Y-37554019D02*
X74453788Y-38554019D01*
X74453788Y-37554019D02*
X73787122Y-38554019D01*
X75549027Y-38506400D02*
X75691884Y-38554019D01*
X75691884Y-38554019D02*
X75929979Y-38554019D01*
X75929979Y-38554019D02*
X76025217Y-38506400D01*
X76025217Y-38506400D02*
X76072836Y-38458780D01*
X76072836Y-38458780D02*
X76120455Y-38363542D01*
X76120455Y-38363542D02*
X76120455Y-38268304D01*
X76120455Y-38268304D02*
X76072836Y-38173066D01*
X76072836Y-38173066D02*
X76025217Y-38125447D01*
X76025217Y-38125447D02*
X75929979Y-38077828D01*
X75929979Y-38077828D02*
X75739503Y-38030209D01*
X75739503Y-38030209D02*
X75644265Y-37982590D01*
X75644265Y-37982590D02*
X75596646Y-37934971D01*
X75596646Y-37934971D02*
X75549027Y-37839733D01*
X75549027Y-37839733D02*
X75549027Y-37744495D01*
X75549027Y-37744495D02*
X75596646Y-37649257D01*
X75596646Y-37649257D02*
X75644265Y-37601638D01*
X75644265Y-37601638D02*
X75739503Y-37554019D01*
X75739503Y-37554019D02*
X75977598Y-37554019D01*
X75977598Y-37554019D02*
X76120455Y-37601638D01*
X76549027Y-37887352D02*
X76549027Y-38887352D01*
X76549027Y-37934971D02*
X76644265Y-37887352D01*
X76644265Y-37887352D02*
X76834741Y-37887352D01*
X76834741Y-37887352D02*
X76929979Y-37934971D01*
X76929979Y-37934971D02*
X76977598Y-37982590D01*
X76977598Y-37982590D02*
X77025217Y-38077828D01*
X77025217Y-38077828D02*
X77025217Y-38363542D01*
X77025217Y-38363542D02*
X76977598Y-38458780D01*
X76977598Y-38458780D02*
X76929979Y-38506400D01*
X76929979Y-38506400D02*
X76834741Y-38554019D01*
X76834741Y-38554019D02*
X76644265Y-38554019D01*
X76644265Y-38554019D02*
X76549027Y-38506400D01*
X77834741Y-38506400D02*
X77739503Y-38554019D01*
X77739503Y-38554019D02*
X77549027Y-38554019D01*
X77549027Y-38554019D02*
X77453789Y-38506400D01*
X77453789Y-38506400D02*
X77406170Y-38411161D01*
X77406170Y-38411161D02*
X77406170Y-38030209D01*
X77406170Y-38030209D02*
X77453789Y-37934971D01*
X77453789Y-37934971D02*
X77549027Y-37887352D01*
X77549027Y-37887352D02*
X77739503Y-37887352D01*
X77739503Y-37887352D02*
X77834741Y-37934971D01*
X77834741Y-37934971D02*
X77882360Y-38030209D01*
X77882360Y-38030209D02*
X77882360Y-38125447D01*
X77882360Y-38125447D02*
X77406170Y-38220685D01*
X78739503Y-38506400D02*
X78644265Y-38554019D01*
X78644265Y-38554019D02*
X78453789Y-38554019D01*
X78453789Y-38554019D02*
X78358551Y-38506400D01*
X78358551Y-38506400D02*
X78310932Y-38458780D01*
X78310932Y-38458780D02*
X78263313Y-38363542D01*
X78263313Y-38363542D02*
X78263313Y-38077828D01*
X78263313Y-38077828D02*
X78310932Y-37982590D01*
X78310932Y-37982590D02*
X78358551Y-37934971D01*
X78358551Y-37934971D02*
X78453789Y-37887352D01*
X78453789Y-37887352D02*
X78644265Y-37887352D01*
X78644265Y-37887352D02*
X78739503Y-37934971D01*
X79025218Y-37887352D02*
X79406170Y-37887352D01*
X79168075Y-37554019D02*
X79168075Y-38411161D01*
X79168075Y-38411161D02*
X79215694Y-38506400D01*
X79215694Y-38506400D02*
X79310932Y-38554019D01*
X79310932Y-38554019D02*
X79406170Y-38554019D01*
X79739504Y-38554019D02*
X79739504Y-37887352D01*
X79739504Y-38077828D02*
X79787123Y-37982590D01*
X79787123Y-37982590D02*
X79834742Y-37934971D01*
X79834742Y-37934971D02*
X79929980Y-37887352D01*
X79929980Y-37887352D02*
X80025218Y-37887352D01*
X80787123Y-37887352D02*
X80787123Y-38554019D01*
X80358552Y-37887352D02*
X80358552Y-38411161D01*
X80358552Y-38411161D02*
X80406171Y-38506400D01*
X80406171Y-38506400D02*
X80501409Y-38554019D01*
X80501409Y-38554019D02*
X80644266Y-38554019D01*
X80644266Y-38554019D02*
X80739504Y-38506400D01*
X80739504Y-38506400D02*
X80787123Y-38458780D01*
X81263314Y-38554019D02*
X81263314Y-37887352D01*
X81263314Y-37982590D02*
X81310933Y-37934971D01*
X81310933Y-37934971D02*
X81406171Y-37887352D01*
X81406171Y-37887352D02*
X81549028Y-37887352D01*
X81549028Y-37887352D02*
X81644266Y-37934971D01*
X81644266Y-37934971D02*
X81691885Y-38030209D01*
X81691885Y-38030209D02*
X81691885Y-38554019D01*
X81691885Y-38030209D02*
X81739504Y-37934971D01*
X81739504Y-37934971D02*
X81834742Y-37887352D01*
X81834742Y-37887352D02*
X81977599Y-37887352D01*
X81977599Y-37887352D02*
X82072838Y-37934971D01*
X82072838Y-37934971D02*
X82120457Y-38030209D01*
X82120457Y-38030209D02*
X82120457Y-38554019D01*
X83787123Y-37887352D02*
X83787123Y-38554019D01*
X83549028Y-37506400D02*
X83310933Y-38220685D01*
X83310933Y-38220685D02*
X83929980Y-38220685D01*
X84453790Y-37982590D02*
X84358552Y-37934971D01*
X84358552Y-37934971D02*
X84310933Y-37887352D01*
X84310933Y-37887352D02*
X84263314Y-37792114D01*
X84263314Y-37792114D02*
X84263314Y-37744495D01*
X84263314Y-37744495D02*
X84310933Y-37649257D01*
X84310933Y-37649257D02*
X84358552Y-37601638D01*
X84358552Y-37601638D02*
X84453790Y-37554019D01*
X84453790Y-37554019D02*
X84644266Y-37554019D01*
X84644266Y-37554019D02*
X84739504Y-37601638D01*
X84739504Y-37601638D02*
X84787123Y-37649257D01*
X84787123Y-37649257D02*
X84834742Y-37744495D01*
X84834742Y-37744495D02*
X84834742Y-37792114D01*
X84834742Y-37792114D02*
X84787123Y-37887352D01*
X84787123Y-37887352D02*
X84739504Y-37934971D01*
X84739504Y-37934971D02*
X84644266Y-37982590D01*
X84644266Y-37982590D02*
X84453790Y-37982590D01*
X84453790Y-37982590D02*
X84358552Y-38030209D01*
X84358552Y-38030209D02*
X84310933Y-38077828D01*
X84310933Y-38077828D02*
X84263314Y-38173066D01*
X84263314Y-38173066D02*
X84263314Y-38363542D01*
X84263314Y-38363542D02*
X84310933Y-38458780D01*
X84310933Y-38458780D02*
X84358552Y-38506400D01*
X84358552Y-38506400D02*
X84453790Y-38554019D01*
X84453790Y-38554019D02*
X84644266Y-38554019D01*
X84644266Y-38554019D02*
X84739504Y-38506400D01*
X84739504Y-38506400D02*
X84787123Y-38458780D01*
X84787123Y-38458780D02*
X84834742Y-38363542D01*
X84834742Y-38363542D02*
X84834742Y-38173066D01*
X84834742Y-38173066D02*
X84787123Y-38077828D01*
X84787123Y-38077828D02*
X84739504Y-38030209D01*
X84739504Y-38030209D02*
X84644266Y-37982590D01*
X85263314Y-38554019D02*
X85263314Y-37554019D01*
X85358552Y-38173066D02*
X85644266Y-38554019D01*
X85644266Y-37887352D02*
X85263314Y-38268304D01*
X87406171Y-38458780D02*
X87358552Y-38506400D01*
X87358552Y-38506400D02*
X87215695Y-38554019D01*
X87215695Y-38554019D02*
X87120457Y-38554019D01*
X87120457Y-38554019D02*
X86977600Y-38506400D01*
X86977600Y-38506400D02*
X86882362Y-38411161D01*
X86882362Y-38411161D02*
X86834743Y-38315923D01*
X86834743Y-38315923D02*
X86787124Y-38125447D01*
X86787124Y-38125447D02*
X86787124Y-37982590D01*
X86787124Y-37982590D02*
X86834743Y-37792114D01*
X86834743Y-37792114D02*
X86882362Y-37696876D01*
X86882362Y-37696876D02*
X86977600Y-37601638D01*
X86977600Y-37601638D02*
X87120457Y-37554019D01*
X87120457Y-37554019D02*
X87215695Y-37554019D01*
X87215695Y-37554019D02*
X87358552Y-37601638D01*
X87358552Y-37601638D02*
X87406171Y-37649257D01*
X87977600Y-38554019D02*
X87882362Y-38506400D01*
X87882362Y-38506400D02*
X87834743Y-38458780D01*
X87834743Y-38458780D02*
X87787124Y-38363542D01*
X87787124Y-38363542D02*
X87787124Y-38077828D01*
X87787124Y-38077828D02*
X87834743Y-37982590D01*
X87834743Y-37982590D02*
X87882362Y-37934971D01*
X87882362Y-37934971D02*
X87977600Y-37887352D01*
X87977600Y-37887352D02*
X88120457Y-37887352D01*
X88120457Y-37887352D02*
X88215695Y-37934971D01*
X88215695Y-37934971D02*
X88263314Y-37982590D01*
X88263314Y-37982590D02*
X88310933Y-38077828D01*
X88310933Y-38077828D02*
X88310933Y-38363542D01*
X88310933Y-38363542D02*
X88263314Y-38458780D01*
X88263314Y-38458780D02*
X88215695Y-38506400D01*
X88215695Y-38506400D02*
X88120457Y-38554019D01*
X88120457Y-38554019D02*
X87977600Y-38554019D01*
X88739505Y-38554019D02*
X88739505Y-37887352D01*
X88739505Y-37982590D02*
X88787124Y-37934971D01*
X88787124Y-37934971D02*
X88882362Y-37887352D01*
X88882362Y-37887352D02*
X89025219Y-37887352D01*
X89025219Y-37887352D02*
X89120457Y-37934971D01*
X89120457Y-37934971D02*
X89168076Y-38030209D01*
X89168076Y-38030209D02*
X89168076Y-38554019D01*
X89168076Y-38030209D02*
X89215695Y-37934971D01*
X89215695Y-37934971D02*
X89310933Y-37887352D01*
X89310933Y-37887352D02*
X89453790Y-37887352D01*
X89453790Y-37887352D02*
X89549029Y-37934971D01*
X89549029Y-37934971D02*
X89596648Y-38030209D01*
X89596648Y-38030209D02*
X89596648Y-38554019D01*
X90072838Y-37887352D02*
X90072838Y-38887352D01*
X90072838Y-37934971D02*
X90168076Y-37887352D01*
X90168076Y-37887352D02*
X90358552Y-37887352D01*
X90358552Y-37887352D02*
X90453790Y-37934971D01*
X90453790Y-37934971D02*
X90501409Y-37982590D01*
X90501409Y-37982590D02*
X90549028Y-38077828D01*
X90549028Y-38077828D02*
X90549028Y-38363542D01*
X90549028Y-38363542D02*
X90501409Y-38458780D01*
X90501409Y-38458780D02*
X90453790Y-38506400D01*
X90453790Y-38506400D02*
X90358552Y-38554019D01*
X90358552Y-38554019D02*
X90168076Y-38554019D01*
X90168076Y-38554019D02*
X90072838Y-38506400D01*
X91120457Y-38554019D02*
X91025219Y-38506400D01*
X91025219Y-38506400D02*
X90977600Y-38458780D01*
X90977600Y-38458780D02*
X90929981Y-38363542D01*
X90929981Y-38363542D02*
X90929981Y-38077828D01*
X90929981Y-38077828D02*
X90977600Y-37982590D01*
X90977600Y-37982590D02*
X91025219Y-37934971D01*
X91025219Y-37934971D02*
X91120457Y-37887352D01*
X91120457Y-37887352D02*
X91263314Y-37887352D01*
X91263314Y-37887352D02*
X91358552Y-37934971D01*
X91358552Y-37934971D02*
X91406171Y-37982590D01*
X91406171Y-37982590D02*
X91453790Y-38077828D01*
X91453790Y-38077828D02*
X91453790Y-38363542D01*
X91453790Y-38363542D02*
X91406171Y-38458780D01*
X91406171Y-38458780D02*
X91358552Y-38506400D01*
X91358552Y-38506400D02*
X91263314Y-38554019D01*
X91263314Y-38554019D02*
X91120457Y-38554019D01*
X91834743Y-38506400D02*
X91929981Y-38554019D01*
X91929981Y-38554019D02*
X92120457Y-38554019D01*
X92120457Y-38554019D02*
X92215695Y-38506400D01*
X92215695Y-38506400D02*
X92263314Y-38411161D01*
X92263314Y-38411161D02*
X92263314Y-38363542D01*
X92263314Y-38363542D02*
X92215695Y-38268304D01*
X92215695Y-38268304D02*
X92120457Y-38220685D01*
X92120457Y-38220685D02*
X91977600Y-38220685D01*
X91977600Y-38220685D02*
X91882362Y-38173066D01*
X91882362Y-38173066D02*
X91834743Y-38077828D01*
X91834743Y-38077828D02*
X91834743Y-38030209D01*
X91834743Y-38030209D02*
X91882362Y-37934971D01*
X91882362Y-37934971D02*
X91977600Y-37887352D01*
X91977600Y-37887352D02*
X92120457Y-37887352D01*
X92120457Y-37887352D02*
X92215695Y-37934971D01*
X92691886Y-38554019D02*
X92691886Y-37887352D01*
X92691886Y-37554019D02*
X92644267Y-37601638D01*
X92644267Y-37601638D02*
X92691886Y-37649257D01*
X92691886Y-37649257D02*
X92739505Y-37601638D01*
X92739505Y-37601638D02*
X92691886Y-37554019D01*
X92691886Y-37554019D02*
X92691886Y-37649257D01*
X93025219Y-37887352D02*
X93406171Y-37887352D01*
X93168076Y-37554019D02*
X93168076Y-38411161D01*
X93168076Y-38411161D02*
X93215695Y-38506400D01*
X93215695Y-38506400D02*
X93310933Y-38554019D01*
X93310933Y-38554019D02*
X93406171Y-38554019D01*
X94120457Y-38506400D02*
X94025219Y-38554019D01*
X94025219Y-38554019D02*
X93834743Y-38554019D01*
X93834743Y-38554019D02*
X93739505Y-38506400D01*
X93739505Y-38506400D02*
X93691886Y-38411161D01*
X93691886Y-38411161D02*
X93691886Y-38030209D01*
X93691886Y-38030209D02*
X93739505Y-37934971D01*
X93739505Y-37934971D02*
X93834743Y-37887352D01*
X93834743Y-37887352D02*
X94025219Y-37887352D01*
X94025219Y-37887352D02*
X94120457Y-37934971D01*
X94120457Y-37934971D02*
X94168076Y-38030209D01*
X94168076Y-38030209D02*
X94168076Y-38125447D01*
X94168076Y-38125447D02*
X93691886Y-38220685D01*
X95358553Y-38554019D02*
X95358553Y-37554019D01*
X95358553Y-37554019D02*
X95691886Y-38268304D01*
X95691886Y-38268304D02*
X96025219Y-37554019D01*
X96025219Y-37554019D02*
X96025219Y-38554019D01*
X96644267Y-38554019D02*
X96549029Y-38506400D01*
X96549029Y-38506400D02*
X96501410Y-38458780D01*
X96501410Y-38458780D02*
X96453791Y-38363542D01*
X96453791Y-38363542D02*
X96453791Y-38077828D01*
X96453791Y-38077828D02*
X96501410Y-37982590D01*
X96501410Y-37982590D02*
X96549029Y-37934971D01*
X96549029Y-37934971D02*
X96644267Y-37887352D01*
X96644267Y-37887352D02*
X96787124Y-37887352D01*
X96787124Y-37887352D02*
X96882362Y-37934971D01*
X96882362Y-37934971D02*
X96929981Y-37982590D01*
X96929981Y-37982590D02*
X96977600Y-38077828D01*
X96977600Y-38077828D02*
X96977600Y-38363542D01*
X96977600Y-38363542D02*
X96929981Y-38458780D01*
X96929981Y-38458780D02*
X96882362Y-38506400D01*
X96882362Y-38506400D02*
X96787124Y-38554019D01*
X96787124Y-38554019D02*
X96644267Y-38554019D01*
X97834743Y-38554019D02*
X97834743Y-37554019D01*
X97834743Y-38506400D02*
X97739505Y-38554019D01*
X97739505Y-38554019D02*
X97549029Y-38554019D01*
X97549029Y-38554019D02*
X97453791Y-38506400D01*
X97453791Y-38506400D02*
X97406172Y-38458780D01*
X97406172Y-38458780D02*
X97358553Y-38363542D01*
X97358553Y-38363542D02*
X97358553Y-38077828D01*
X97358553Y-38077828D02*
X97406172Y-37982590D01*
X97406172Y-37982590D02*
X97453791Y-37934971D01*
X97453791Y-37934971D02*
X97549029Y-37887352D01*
X97549029Y-37887352D02*
X97739505Y-37887352D01*
X97739505Y-37887352D02*
X97834743Y-37934971D01*
X98739505Y-37887352D02*
X98739505Y-38554019D01*
X98310934Y-37887352D02*
X98310934Y-38411161D01*
X98310934Y-38411161D02*
X98358553Y-38506400D01*
X98358553Y-38506400D02*
X98453791Y-38554019D01*
X98453791Y-38554019D02*
X98596648Y-38554019D01*
X98596648Y-38554019D02*
X98691886Y-38506400D01*
X98691886Y-38506400D02*
X98739505Y-38458780D01*
X99358553Y-38554019D02*
X99263315Y-38506400D01*
X99263315Y-38506400D02*
X99215696Y-38411161D01*
X99215696Y-38411161D02*
X99215696Y-37554019D01*
X100168077Y-38554019D02*
X100168077Y-38030209D01*
X100168077Y-38030209D02*
X100120458Y-37934971D01*
X100120458Y-37934971D02*
X100025220Y-37887352D01*
X100025220Y-37887352D02*
X99834744Y-37887352D01*
X99834744Y-37887352D02*
X99739506Y-37934971D01*
X100168077Y-38506400D02*
X100072839Y-38554019D01*
X100072839Y-38554019D02*
X99834744Y-38554019D01*
X99834744Y-38554019D02*
X99739506Y-38506400D01*
X99739506Y-38506400D02*
X99691887Y-38411161D01*
X99691887Y-38411161D02*
X99691887Y-38315923D01*
X99691887Y-38315923D02*
X99739506Y-38220685D01*
X99739506Y-38220685D02*
X99834744Y-38173066D01*
X99834744Y-38173066D02*
X100072839Y-38173066D01*
X100072839Y-38173066D02*
X100168077Y-38125447D01*
X100501411Y-37887352D02*
X100882363Y-37887352D01*
X100644268Y-37554019D02*
X100644268Y-38411161D01*
X100644268Y-38411161D02*
X100691887Y-38506400D01*
X100691887Y-38506400D02*
X100787125Y-38554019D01*
X100787125Y-38554019D02*
X100882363Y-38554019D01*
X101358554Y-38554019D02*
X101263316Y-38506400D01*
X101263316Y-38506400D02*
X101215697Y-38458780D01*
X101215697Y-38458780D02*
X101168078Y-38363542D01*
X101168078Y-38363542D02*
X101168078Y-38077828D01*
X101168078Y-38077828D02*
X101215697Y-37982590D01*
X101215697Y-37982590D02*
X101263316Y-37934971D01*
X101263316Y-37934971D02*
X101358554Y-37887352D01*
X101358554Y-37887352D02*
X101501411Y-37887352D01*
X101501411Y-37887352D02*
X101596649Y-37934971D01*
X101596649Y-37934971D02*
X101644268Y-37982590D01*
X101644268Y-37982590D02*
X101691887Y-38077828D01*
X101691887Y-38077828D02*
X101691887Y-38363542D01*
X101691887Y-38363542D02*
X101644268Y-38458780D01*
X101644268Y-38458780D02*
X101596649Y-38506400D01*
X101596649Y-38506400D02*
X101501411Y-38554019D01*
X101501411Y-38554019D02*
X101358554Y-38554019D01*
X102120459Y-38554019D02*
X102120459Y-37887352D01*
X102120459Y-38077828D02*
X102168078Y-37982590D01*
X102168078Y-37982590D02*
X102215697Y-37934971D01*
X102215697Y-37934971D02*
X102310935Y-37887352D01*
X102310935Y-37887352D02*
X102406173Y-37887352D01*
X81646733Y-42720419D02*
X81313400Y-42244228D01*
X81075305Y-42720419D02*
X81075305Y-41720419D01*
X81075305Y-41720419D02*
X81456257Y-41720419D01*
X81456257Y-41720419D02*
X81551495Y-41768038D01*
X81551495Y-41768038D02*
X81599114Y-41815657D01*
X81599114Y-41815657D02*
X81646733Y-41910895D01*
X81646733Y-41910895D02*
X81646733Y-42053752D01*
X81646733Y-42053752D02*
X81599114Y-42148990D01*
X81599114Y-42148990D02*
X81551495Y-42196609D01*
X81551495Y-42196609D02*
X81456257Y-42244228D01*
X81456257Y-42244228D02*
X81075305Y-42244228D01*
X82599114Y-42720419D02*
X82027686Y-42720419D01*
X82313400Y-42720419D02*
X82313400Y-41720419D01*
X82313400Y-41720419D02*
X82218162Y-41863276D01*
X82218162Y-41863276D02*
X82122924Y-41958514D01*
X82122924Y-41958514D02*
X82027686Y-42006133D01*
X80633333Y-44854819D02*
X80061905Y-44854819D01*
X80347619Y-44854819D02*
X80347619Y-43854819D01*
X80347619Y-43854819D02*
X80252381Y-43997676D01*
X80252381Y-43997676D02*
X80157143Y-44092914D01*
X80157143Y-44092914D02*
X80061905Y-44140533D01*
X81252381Y-43854819D02*
X81347619Y-43854819D01*
X81347619Y-43854819D02*
X81442857Y-43902438D01*
X81442857Y-43902438D02*
X81490476Y-43950057D01*
X81490476Y-43950057D02*
X81538095Y-44045295D01*
X81538095Y-44045295D02*
X81585714Y-44235771D01*
X81585714Y-44235771D02*
X81585714Y-44473866D01*
X81585714Y-44473866D02*
X81538095Y-44664342D01*
X81538095Y-44664342D02*
X81490476Y-44759580D01*
X81490476Y-44759580D02*
X81442857Y-44807200D01*
X81442857Y-44807200D02*
X81347619Y-44854819D01*
X81347619Y-44854819D02*
X81252381Y-44854819D01*
X81252381Y-44854819D02*
X81157143Y-44807200D01*
X81157143Y-44807200D02*
X81109524Y-44759580D01*
X81109524Y-44759580D02*
X81061905Y-44664342D01*
X81061905Y-44664342D02*
X81014286Y-44473866D01*
X81014286Y-44473866D02*
X81014286Y-44235771D01*
X81014286Y-44235771D02*
X81061905Y-44045295D01*
X81061905Y-44045295D02*
X81109524Y-43950057D01*
X81109524Y-43950057D02*
X81157143Y-43902438D01*
X81157143Y-43902438D02*
X81252381Y-43854819D01*
X82204762Y-43854819D02*
X82300000Y-43854819D01*
X82300000Y-43854819D02*
X82395238Y-43902438D01*
X82395238Y-43902438D02*
X82442857Y-43950057D01*
X82442857Y-43950057D02*
X82490476Y-44045295D01*
X82490476Y-44045295D02*
X82538095Y-44235771D01*
X82538095Y-44235771D02*
X82538095Y-44473866D01*
X82538095Y-44473866D02*
X82490476Y-44664342D01*
X82490476Y-44664342D02*
X82442857Y-44759580D01*
X82442857Y-44759580D02*
X82395238Y-44807200D01*
X82395238Y-44807200D02*
X82300000Y-44854819D01*
X82300000Y-44854819D02*
X82204762Y-44854819D01*
X82204762Y-44854819D02*
X82109524Y-44807200D01*
X82109524Y-44807200D02*
X82061905Y-44759580D01*
X82061905Y-44759580D02*
X82014286Y-44664342D01*
X82014286Y-44664342D02*
X81966667Y-44473866D01*
X81966667Y-44473866D02*
X81966667Y-44235771D01*
X81966667Y-44235771D02*
X82014286Y-44045295D01*
X82014286Y-44045295D02*
X82061905Y-43950057D01*
X82061905Y-43950057D02*
X82109524Y-43902438D01*
X82109524Y-43902438D02*
X82204762Y-43854819D01*
X83538095Y-44854819D02*
X83204762Y-44378628D01*
X82966667Y-44854819D02*
X82966667Y-43854819D01*
X82966667Y-43854819D02*
X83347619Y-43854819D01*
X83347619Y-43854819D02*
X83442857Y-43902438D01*
X83442857Y-43902438D02*
X83490476Y-43950057D01*
X83490476Y-43950057D02*
X83538095Y-44045295D01*
X83538095Y-44045295D02*
X83538095Y-44188152D01*
X83538095Y-44188152D02*
X83490476Y-44283390D01*
X83490476Y-44283390D02*
X83442857Y-44331009D01*
X83442857Y-44331009D02*
X83347619Y-44378628D01*
X83347619Y-44378628D02*
X82966667Y-44378628D01*
D12*
X89649080Y-58422380D02*
X89709556Y-58240952D01*
X89709556Y-58240952D02*
X89770032Y-58180475D01*
X89770032Y-58180475D02*
X89890984Y-58119999D01*
X89890984Y-58119999D02*
X90072413Y-58119999D01*
X90072413Y-58119999D02*
X90193365Y-58180475D01*
X90193365Y-58180475D02*
X90253842Y-58240952D01*
X90253842Y-58240952D02*
X90314318Y-58361904D01*
X90314318Y-58361904D02*
X90314318Y-58845714D01*
X90314318Y-58845714D02*
X89044318Y-58845714D01*
X89044318Y-58845714D02*
X89044318Y-58422380D01*
X89044318Y-58422380D02*
X89104794Y-58301428D01*
X89104794Y-58301428D02*
X89165270Y-58240952D01*
X89165270Y-58240952D02*
X89286222Y-58180475D01*
X89286222Y-58180475D02*
X89407175Y-58180475D01*
X89407175Y-58180475D02*
X89528127Y-58240952D01*
X89528127Y-58240952D02*
X89588603Y-58301428D01*
X89588603Y-58301428D02*
X89649080Y-58422380D01*
X89649080Y-58422380D02*
X89649080Y-58845714D01*
X90193365Y-56849999D02*
X90253842Y-56910475D01*
X90253842Y-56910475D02*
X90314318Y-57091904D01*
X90314318Y-57091904D02*
X90314318Y-57212856D01*
X90314318Y-57212856D02*
X90253842Y-57394285D01*
X90253842Y-57394285D02*
X90132889Y-57515237D01*
X90132889Y-57515237D02*
X90011937Y-57575714D01*
X90011937Y-57575714D02*
X89770032Y-57636190D01*
X89770032Y-57636190D02*
X89588603Y-57636190D01*
X89588603Y-57636190D02*
X89346699Y-57575714D01*
X89346699Y-57575714D02*
X89225746Y-57515237D01*
X89225746Y-57515237D02*
X89104794Y-57394285D01*
X89104794Y-57394285D02*
X89044318Y-57212856D01*
X89044318Y-57212856D02*
X89044318Y-57091904D01*
X89044318Y-57091904D02*
X89104794Y-56910475D01*
X89104794Y-56910475D02*
X89165270Y-56849999D01*
X89044318Y-55700952D02*
X89044318Y-56305714D01*
X89044318Y-56305714D02*
X89649080Y-56366190D01*
X89649080Y-56366190D02*
X89588603Y-56305714D01*
X89588603Y-56305714D02*
X89528127Y-56184761D01*
X89528127Y-56184761D02*
X89528127Y-55882380D01*
X89528127Y-55882380D02*
X89588603Y-55761428D01*
X89588603Y-55761428D02*
X89649080Y-55700952D01*
X89649080Y-55700952D02*
X89770032Y-55640475D01*
X89770032Y-55640475D02*
X90072413Y-55640475D01*
X90072413Y-55640475D02*
X90193365Y-55700952D01*
X90193365Y-55700952D02*
X90253842Y-55761428D01*
X90253842Y-55761428D02*
X90314318Y-55882380D01*
X90314318Y-55882380D02*
X90314318Y-56184761D01*
X90314318Y-56184761D02*
X90253842Y-56305714D01*
X90253842Y-56305714D02*
X90193365Y-56366190D01*
X89467651Y-54551904D02*
X90314318Y-54551904D01*
X88983842Y-54854285D02*
X89890984Y-55156666D01*
X89890984Y-55156666D02*
X89890984Y-54370475D01*
X89044318Y-54007618D02*
X89044318Y-53160951D01*
X89044318Y-53160951D02*
X90314318Y-53705237D01*
D11*
X64659523Y-60454819D02*
X64183333Y-60454819D01*
X64183333Y-60454819D02*
X64135714Y-60931009D01*
X64135714Y-60931009D02*
X64183333Y-60883390D01*
X64183333Y-60883390D02*
X64278571Y-60835771D01*
X64278571Y-60835771D02*
X64516666Y-60835771D01*
X64516666Y-60835771D02*
X64611904Y-60883390D01*
X64611904Y-60883390D02*
X64659523Y-60931009D01*
X64659523Y-60931009D02*
X64707142Y-61026247D01*
X64707142Y-61026247D02*
X64707142Y-61264342D01*
X64707142Y-61264342D02*
X64659523Y-61359580D01*
X64659523Y-61359580D02*
X64611904Y-61407200D01*
X64611904Y-61407200D02*
X64516666Y-61454819D01*
X64516666Y-61454819D02*
X64278571Y-61454819D01*
X64278571Y-61454819D02*
X64183333Y-61407200D01*
X64183333Y-61407200D02*
X64135714Y-61359580D01*
X64992857Y-60454819D02*
X65326190Y-61454819D01*
X65326190Y-61454819D02*
X65659523Y-60454819D01*
X64035715Y-55704819D02*
X64369048Y-56704819D01*
X64369048Y-56704819D02*
X64702381Y-55704819D01*
X65035715Y-56704819D02*
X65035715Y-55704819D01*
X65511905Y-56704819D02*
X65511905Y-55704819D01*
X65511905Y-55704819D02*
X65750000Y-55704819D01*
X65750000Y-55704819D02*
X65892857Y-55752438D01*
X65892857Y-55752438D02*
X65988095Y-55847676D01*
X65988095Y-55847676D02*
X66035714Y-55942914D01*
X66035714Y-55942914D02*
X66083333Y-56133390D01*
X66083333Y-56133390D02*
X66083333Y-56276247D01*
X66083333Y-56276247D02*
X66035714Y-56466723D01*
X66035714Y-56466723D02*
X65988095Y-56561961D01*
X65988095Y-56561961D02*
X65892857Y-56657200D01*
X65892857Y-56657200D02*
X65750000Y-56704819D01*
X65750000Y-56704819D02*
X65511905Y-56704819D01*
X66273810Y-56800057D02*
X67035714Y-56800057D01*
X67273810Y-56704819D02*
X67273810Y-55704819D01*
X67750000Y-56704819D02*
X67750000Y-55704819D01*
X67750000Y-55704819D02*
X68321428Y-56704819D01*
X68321428Y-56704819D02*
X68321428Y-55704819D01*
D13*
%TO.C,R1*%
X77760000Y-44400000D02*
X78530000Y-44400000D01*
X78530000Y-43030000D02*
X78530000Y-45770000D01*
X78530000Y-45770000D02*
X85070000Y-45770000D01*
X85070000Y-43030000D02*
X78530000Y-43030000D01*
X85070000Y-45770000D02*
X85070000Y-43030000D01*
X85840000Y-44400000D02*
X85070000Y-44400000D01*
D14*
%TO.C,Q1*%
X83740000Y-53375000D02*
X83740000Y-58585000D01*
X83740000Y-58585000D02*
X86890000Y-58585000D01*
X87930000Y-53375000D02*
X83740000Y-53375000D01*
D13*
%TO.C,TP2*%
X61050000Y-60050000D02*
X61050000Y-61950000D01*
X61050000Y-61950000D02*
X62900000Y-61950000D01*
X62900000Y-60050000D02*
X61050000Y-60050000D01*
X62900000Y-60100000D02*
X62900000Y-60050000D01*
X62900000Y-61950000D02*
X62900000Y-60100000D01*
D15*
%TO.C,J1*%
X60015000Y-38750000D02*
X60015000Y-38750000D01*
X60015000Y-38850000D02*
X60015000Y-38850000D01*
D16*
X61015000Y-35850000D02*
X61015000Y-45850000D01*
X62015000Y-26850000D02*
X62015000Y-35850000D01*
X70015000Y-26850000D02*
X62015000Y-26850000D01*
X70015000Y-35850000D02*
X70015000Y-26850000D01*
X71015000Y-35850000D02*
X61015000Y-35850000D01*
X71015000Y-35850000D02*
X71015000Y-45850000D01*
D15*
X60015000Y-38750000D02*
G75*
G02*
X60015000Y-38850000I0J-50000D01*
G01*
X60015000Y-38850000D02*
G75*
G02*
X60015000Y-38750000I0J50000D01*
G01*
D13*
%TO.C,TP1*%
X61050000Y-55050000D02*
X61050000Y-56950000D01*
X61050000Y-56950000D02*
X62900000Y-56950000D01*
X62900000Y-55050000D02*
X61050000Y-55050000D01*
X62900000Y-55100000D02*
X62900000Y-55050000D01*
X62900000Y-56950000D02*
X62900000Y-55100000D01*
%TD*%
M02*
