M48
; DRILL file {KiCad 9.0.5} date 2026-01-24T19:47:23+0000
; FORMAT={-:-/ absolute / metric / decimal}
; #@! TF.CreationDate,2026-01-24T19:47:23+00:00
; #@! TF.GenerationSoftware,Kicad,Pcbnew,9.0.5
; #@! TF.FileFunction,MixedPlating,1,2
FMAT,2
METRIC
; #@! TA.AperFunction,Plated,PTH,ViaDrill
T1C0.889
; #@! TA.AperFunction,Plated,PTH,ViaDrill
T2C1.001
; #@! TA.AperFunction,Plated,PTH,ViaDrill
T3C1.016
; #@! TA.AperFunction,Plated,PTH,ViaDrill
T4C1.036
; #@! TA.AperFunction,Plated,PTH,ViaDrill
T5C1.194
; #@! TA.AperFunction,Plated,PTH,ViaDrill
T6C1.199
; #@! TA.AperFunction,Plated,PTH,ViaDrill
T7C1.400
; #@! TA.AperFunction,Plated,PTH,ViaDrill
T8C1.935
; #@! TA.AperFunction,Plated,PTH,ViaDrill
T9C2.286
; #@! TA.AperFunction,Plated,PTH,ViaDrill
T10C2.794
; #@! TA.AperFunction,Plated,PTH,ViaDrill
T11C2.800
; #@! TA.AperFunction,Plated,PTH,ViaDrill
T12C3.175
; #@! TA.AperFunction,Plated,PTH,ViaDrill
T13C4.572
%
G90
G05
T1
X46.783Y-82.19
X46.783Y-103.018
X46.783Y-114.956
X49.247Y-65.553
X51.99Y-94.026
X55.673Y-61.108
X55.673Y-63.648
X57.705Y-105.304
X57.705Y-113.686
X58.213Y-76.856
X58.213Y-87.524
X59.991Y-71.014
X61.998Y-94.712
X63.801Y-100.478
X64.563Y-74.824
X65.325Y-113.686
X66.595Y-63.394
X68.881Y-61.108
X70.405Y-67.966
X71.675Y-64.664
X71.929Y-72.538
X72.183Y-93.874
X72.437Y-90.064
X74.723Y-72.538
X74.723Y-98.954
X76.501Y-96.922
X81.784Y-62.276
X82.343Y-67.966
X82.597Y-78.38
X82.851Y-88.286
X82.851Y-114.956
X83.613Y-112.924
X86.661Y-112.924
X86.915Y-61.108
X86.915Y-110.384
X87.423Y-69.998
X87.423Y-87.524
X87.423Y-96.414
X87.677Y-75.078
X89.963Y-78.634
X90.369Y-116.734
X93.011Y-102.764
X94.535Y-45.614
X98.167Y-119.884
X98.853Y-98.954
X99.361Y-106.574
X100.631Y-92.604
X100.733Y-119.985
X100.885Y-45.868
X101.393Y-97.684
X101.393Y-100.224
X101.393Y-102.764
X102.663Y-59.838
X102.663Y-68.728
X102.714Y-118.664
X102.765Y-105.329
X103.171Y-131.974
X103.984Y-99.665
X104.441Y-95.144
X104.441Y-111.654
X104.517Y-118.055
X105.203Y-97.684
X105.406Y-119.884
X106.473Y-53.894
X108.403Y-117.369
X108.403Y-121.687
X109.521Y-57.806
X110.283Y-63.394
X112.823Y-134.514
X114.093Y-76.094
X114.093Y-121.154
X114.093Y-137.054
X114.093Y-140.864
X114.855Y-86.254
X115.363Y-91.334
X116.125Y-39.264
X116.125Y-82.444
X117.141Y-88.794
X117.903Y-79.904
X117.903Y-98.954
X118.589Y-112.238
X119.173Y-101.494
X119.173Y-104.034
X119.173Y-119.274
X119.808Y-90.039
X119.935Y-31.136
X119.935Y-96.414
X120.443Y-114.194
X121.053Y-94.839
X121.205Y-67.204
X121.205Y-71.014
X121.205Y-73.554
X121.713Y-58.314
X121.713Y-91.842
X121.713Y-101.494
X121.713Y-107.844
X122.475Y-43.074
X123.237Y-136.8
X124.253Y-82.444
X124.253Y-117.242
X124.253Y-125.624
X124.507Y-131.212
X126.285Y-29.866
X126.285Y-32.406
X126.285Y-34.946
X126.285Y-118.08
X127.047Y-55.774
X127.301Y-53.234
X129.333Y-92.604
X131.365Y-128.164
X132.127Y-93.366
X132.127Y-125.37
X132.127Y-134.26
X132.483Y-66.442
X132.559Y-115.464
X132.635Y-95.779
X132.889Y-98.446
X133.143Y-60.854
X133.143Y-86.0
X133.143Y-105.05
X133.143Y-130.704
X133.346Y-37.384
X133.397Y-123.592
X133.651Y-73.554
X133.905Y-29.866
X133.905Y-32.406
X133.905Y-34.946
X133.905Y-68.474
X133.905Y-70.963
X133.905Y-83.714
X133.905Y-119.274
X134.413Y-46.884
X135.175Y-141.88
X135.683Y-69.744
X135.683Y-92.604
X135.937Y-133.244
X136.445Y-65.934
X136.445Y-90.064
X136.953Y-39.264
X136.953Y-120.036
X137.207Y-73.554
X137.207Y-76.094
X137.715Y-29.866
X137.715Y-32.406
X137.715Y-34.946
X137.715Y-63.394
X137.715Y-91.842
X138.223Y-112.924
X138.477Y-65.934
X138.985Y-135.53
X140.255Y-89.302
X140.763Y-52.726
X141.017Y-37.486
X141.017Y-43.074
X141.271Y-65.426
X141.525Y-55.774
X141.525Y-145.69
X141.525Y-149.932
X141.779Y-121.814
X142.033Y-58.314
X142.744Y-48.23
X143.303Y-38.502
X143.303Y-54.504
X143.43Y-77.364
X143.557Y-65.934
X143.557Y-79.904
X143.557Y-88.032
X143.811Y-96.16
X144.065Y-119.782
X144.065Y-121.814
X144.065Y-149.932
X145.081Y-40.534
X145.335Y-29.866
X145.335Y-32.406
X145.335Y-34.946
X145.843Y-130.704
X145.843Y-136.292
X146.605Y-123.592
X147.113Y-151.735
X147.875Y-37.994
X147.875Y-131.974
X148.383Y-102.764
X148.383Y-105.304
X148.383Y-108.352
X148.383Y-134.768
X149.145Y-82.444
X149.145Y-88.032
X149.653Y-123.084
X150.364Y-96.922
X150.415Y-36.216
X150.415Y-51.964
X150.415Y-106.32
X151.583Y-104.034
X152.193Y-63.394
X152.193Y-123.084
X152.955Y-86.762
X152.955Y-101.494
X152.955Y-109.114
X153.463Y-34.184
X153.463Y-38.502
X153.463Y-65.934
X154.225Y-110.892
X154.733Y-115.464
X154.86Y-85.492
X155.495Y-31.644
X155.495Y-79.904
X155.495Y-88.286
X155.622Y-98.192
X155.749Y-51.202
X156.003Y-34.184
X156.003Y-112.924
X156.054Y-77.364
X156.257Y-72.284
X156.765Y-29.104
X156.765Y-44.344
X156.765Y-74.824
X157.273Y-41.804
X157.273Y-116.734
X160.575Y-86.254
X162.353Y-62.124
X162.607Y-72.284
X163.877Y-101.494
X164.385Y-67.712
X164.385Y-110.892
X165.147Y-43.074
X165.147Y-58.314
X165.401Y-76.094
X165.655Y-119.782
X167.687Y-86.254
X168.703Y-121.56
X168.83Y-35.886
X169.465Y-128.672
X169.973Y-77.364
X169.973Y-124.862
X170.735Y-122.322
X170.989Y-73.554
X171.091Y-69.744
X171.624Y-71.776
X171.675Y-58.314
X171.675Y-83.714
X172.005Y-60.854
X172.157Y-54.504
X172.259Y-46.884
X172.259Y-80.412
X172.589Y-50.059
X172.767Y-91.334
X173.275Y-34.768
X174.799Y-66.544
X174.799Y-91.842
X175.053Y-114.194
X175.815Y-86.762
X175.815Y-116.734
X177.06Y-34.794
X177.593Y-123.592
X178.355Y-127.91
X179.625Y-34.844
X179.625Y-79.142
X179.625Y-130.704
X180.387Y-65.934
X180.387Y-73.554
X180.387Y-83.714
X180.387Y-92.604
X180.895Y-71.014
X180.895Y-76.094
X180.895Y-81.682
X182.063Y-34.844
X184.654Y-34.768
X185.213Y-103.78
X185.696Y-71.014
X185.873Y-58.314
X185.975Y-81.682
X185.975Y-93.112
X186.229Y-73.554
X186.229Y-79.142
X186.483Y-119.782
X186.737Y-106.32
X187.118Y-34.794
X187.118Y-41.017
X187.499Y-46.884
X188.007Y-62.632
X188.261Y-65.172
X188.261Y-66.95
X188.261Y-75.586
X188.515Y-55.012
X188.515Y-60.092
X189.023Y-79.904
X189.023Y-85.492
X189.277Y-51.964
X189.531Y-71.522
X189.785Y-34.794
X189.785Y-125.624
X190.547Y-93.112
X190.801Y-87.524
X191.309Y-74.824
X191.563Y-83.206
X191.817Y-39.264
X191.817Y-57.044
X192.325Y-34.844
X192.325Y-41.042
X192.325Y-151.532
X193.087Y-87.27
X194.103Y-35.962
X194.357Y-43.074
X194.357Y-95.652
X194.357Y-98.954
X194.611Y-84.984
X194.865Y-88.032
X195.119Y-64.054
X195.221Y-74.824
X195.373Y-103.78
X196.135Y-39.264
X196.135Y-51.964
X196.389Y-49.424
X196.897Y-34.946
X196.897Y-57.044
X198.167Y-36.724
X198.167Y-93.874
X198.675Y-118.004
X199.945Y-34.946
X200.402Y-51.888
X200.707Y-87.27
X200.707Y-94.382
X200.707Y-124.862
X201.215Y-84.222
X201.215Y-121.052
X201.723Y-122.83
X201.977Y-79.904
X202.002Y-143.201
X202.485Y-35.454
X202.485Y-91.842
X203.247Y-88.616
X203.755Y-94.382
X203.755Y-129.434
X203.755Y-133.498
X204.009Y-43.074
X204.009Y-68.982
X205.533Y-37.486
X205.787Y-35.454
X206.295Y-80.412
X206.295Y-84.222
X206.295Y-122.83
X206.422Y-127.402
X206.549Y-97.684
X206.549Y-134.26
X206.549Y-136.8
X206.803Y-115.972
X207.057Y-119.02
X207.565Y-35.454
X209.089Y-45.614
X209.089Y-68.474
X209.597Y-77.872
X209.597Y-110.892
X209.851Y-55.774
X210.105Y-35.454
X210.359Y-53.082
X211.883Y-144.42
X212.137Y-39.264
X212.645Y-35.454
X212.645Y-124.1
X213.153Y-74.062
X213.661Y-93.112
X213.915Y-90.064
X213.915Y-95.652
X214.677Y-43.074
X214.677Y-46.884
X214.677Y-98.192
X214.677Y-130.45
X215.185Y-87.27
X215.185Y-100.732
X215.744Y-54.377
X215.82Y-49.17
X215.947Y-104.542
X216.455Y-96.922
X217.217Y-35.454
X217.471Y-78.482
X217.598Y-81.682
X219.097Y-108.276
X219.757Y-35.454
X219.757Y-100.732
X220.773Y-110.384
X222.297Y-35.454
X222.297Y-135.276
X222.297Y-147.468
X223.059Y-119.782
X224.075Y-72.792
X224.837Y-35.454
X224.837Y-39.264
X224.837Y-108.86
X225.345Y-57.044
X225.345Y-131.212
X226.615Y-72.03
X227.377Y-35.454
X227.377Y-109.622
X227.885Y-78.431
X228.393Y-74.062
X229.155Y-60.6
X229.155Y-130.45
X229.409Y-96.922
X229.663Y-58.822
X229.917Y-35.454
X231.136Y-92.604
X231.187Y-99.97
X231.695Y-63.902
X231.695Y-66.95
X232.457Y-81.682
X232.457Y-120.544
X233.219Y-115.972
X233.727Y-100.732
X234.235Y-53.234
X234.235Y-86.762
X234.235Y-96.922
X234.235Y-123.338
X234.235Y-125.878
X235.759Y-84.984
X236.267Y-66.442
X236.267Y-99.462
X236.267Y-110.13
X236.775Y-106.32
X238.299Y-74.621
X238.299Y-78.38
X240.077Y-53.234
X240.077Y-108.352
X240.331Y-74.57
X240.585Y-99.462
X240.585Y-135.022
X240.839Y-122.068
X240.839Y-129.688
X241.347Y-67.712
X241.347Y-105.812
X243.125Y-74.062
X243.125Y-120.29
X243.125Y-132.99
X243.379Y-151.278
X243.633Y-88.54
X243.887Y-83.46
X245.157Y-93.874
X245.157Y-118.004
X246.427Y-84.73
X246.427Y-91.08
X248.205Y-101.24
X248.459Y-122.068
X248.459Y-129.688
X252.523Y-115.972
X253.539Y-64.41
X253.539Y-67.712
X253.793Y-122.068
T2
X51.863Y-101.494
X53.641Y-117.496
X53.641Y-121.306
X54.403Y-106.574
X65.833Y-121.306
X67.103Y-106.574
X71.675Y-109.876
X72.183Y-107.844
X72.691Y-118.512
X73.961Y-111.654
X73.961Y-115.464
X75.231Y-121.306
X75.993Y-118.512
X86.153Y-117.496
T3
X45.767Y-44.039
X45.869Y-53.894
X47.266Y-60.981
X47.266Y-63.699
X48.561Y-79.396
X48.561Y-92.096
X49.806Y-125.649
X49.806Y-128.189
X49.806Y-130.729
X49.806Y-133.269
X49.806Y-135.809
X49.806Y-138.349
X49.806Y-140.889
X49.806Y-143.429
X49.831Y-75.586
X49.831Y-95.906
X49.831Y-98.446
X49.831Y-118.512
X49.831Y-121.306
X51.076Y-62.327
X53.743Y-66.137
X54.378Y-73.554
X54.378Y-76.094
X54.403Y-68.652
X54.403Y-71.065
X54.403Y-83.968
X54.403Y-86.254
X54.403Y-88.794
X54.403Y-91.334
X54.403Y-93.874
X54.403Y-96.414
X54.403Y-99.081
X54.403Y-101.494
X54.403Y-104.034
X54.403Y-109.114
X56.41Y-66.112
X57.426Y-125.649
X57.426Y-128.189
X57.426Y-130.729
X57.426Y-133.269
X57.426Y-135.809
X57.426Y-138.349
X57.426Y-140.889
X57.426Y-143.429
X57.451Y-147.976
X58.772Y-66.137
X59.991Y-61.108
X59.991Y-125.624
X59.991Y-128.164
X59.991Y-130.704
X59.991Y-133.244
X59.991Y-135.784
X59.991Y-138.324
X59.991Y-140.864
X59.991Y-143.404
X59.991Y-147.951
X62.531Y-121.306
X62.785Y-61.108
X67.103Y-68.576
X67.103Y-71.268
X67.103Y-73.808
X67.103Y-76.094
X67.103Y-83.714
X67.103Y-86.254
X67.103Y-88.794
X67.103Y-91.334
X67.103Y-93.874
X67.103Y-96.414
X67.103Y-98.954
X67.103Y-101.494
X67.103Y-104.034
X67.103Y-109.114
X67.611Y-125.624
X67.611Y-128.164
X67.611Y-130.704
X67.611Y-133.244
X67.611Y-135.784
X67.611Y-138.324
X67.611Y-140.864
X67.611Y-143.404
X67.763Y-147.951
X69.643Y-71.014
X69.643Y-73.554
X69.643Y-76.094
X69.643Y-78.634
X69.643Y-81.174
X69.643Y-83.714
X69.643Y-86.254
X69.643Y-88.794
X69.643Y-91.334
X70.151Y-121.306
X70.176Y-125.599
X70.176Y-128.139
X70.176Y-130.679
X70.176Y-133.219
X70.176Y-135.759
X70.176Y-138.299
X70.176Y-140.839
X70.176Y-143.379
X72.843Y-147.951
X73.961Y-102.129
X73.961Y-104.034
X75.485Y-60.854
X76.501Y-102.129
X76.501Y-104.034
X77.263Y-71.014
X77.263Y-73.554
X77.263Y-76.094
X77.263Y-78.634
X77.263Y-81.174
X77.263Y-83.714
X77.263Y-86.254
X77.263Y-88.794
X77.263Y-91.334
X77.796Y-125.599
X77.796Y-128.139
X77.796Y-130.679
X77.796Y-133.219
X77.796Y-135.759
X77.796Y-138.299
X77.796Y-140.839
X77.796Y-143.379
X78.0Y-63.496
X78.0Y-66.01
X78.025Y-60.956
X78.025Y-68.474
X78.025Y-147.976
X79.041Y-102.129
X79.041Y-104.034
X79.727Y-93.95
X79.727Y-96.592
X79.778Y-91.334
X79.803Y-71.014
X79.803Y-73.554
X79.803Y-76.094
X79.803Y-78.634
X79.803Y-81.174
X79.803Y-83.714
X79.803Y-86.254
X79.803Y-88.794
X79.854Y-108.327
X79.854Y-113.661
X79.879Y-111.146
X80.362Y-125.599
X80.362Y-128.139
X80.362Y-130.679
X80.362Y-133.219
X80.362Y-135.759
X80.362Y-138.299
X80.362Y-140.839
X80.362Y-143.379
X80.438Y-147.976
X81.581Y-102.129
X81.581Y-104.034
X82.343Y-81.174
X82.826Y-121.179
X84.121Y-102.129
X84.121Y-104.034
X84.883Y-81.174
X87.423Y-91.918
X87.982Y-125.599
X87.982Y-128.139
X87.982Y-130.679
X87.982Y-133.219
X87.982Y-135.759
X87.982Y-138.299
X87.982Y-140.839
X87.982Y-143.379
X88.007Y-147.849
X90.496Y-121.179
X90.573Y-125.649
X90.573Y-128.189
X90.573Y-130.729
X90.573Y-133.269
X90.573Y-135.809
X90.573Y-138.349
X90.573Y-140.889
X90.573Y-143.429
X90.7Y-60.981
X90.725Y-63.521
X90.725Y-66.01
X90.725Y-68.474
X92.376Y-93.899
X92.376Y-96.541
X92.427Y-91.283
X92.478Y-111.044
X92.503Y-71.014
X92.503Y-73.808
X92.503Y-76.094
X92.503Y-78.634
X92.503Y-83.714
X92.503Y-86.254
X92.503Y-88.794
X92.503Y-108.327
X92.503Y-113.661
X93.214Y-147.849
X93.265Y-62.124
X93.265Y-67.204
X94.027Y-51.964
X94.332Y-39.442
X95.653Y-101.443
X95.653Y-104.009
X95.653Y-106.549
X95.653Y-111.679
X95.678Y-98.929
X95.678Y-109.139
X95.729Y-74.748
X95.729Y-86.254
X95.729Y-88.718
X95.729Y-91.258
X95.729Y-93.798
X95.729Y-96.338
X95.805Y-81.174
X96.821Y-39.518
X96.821Y-51.964
X97.024Y-55.85
X98.193Y-125.649
X98.193Y-128.189
X98.193Y-130.729
X98.193Y-133.269
X98.193Y-135.809
X98.193Y-138.349
X98.193Y-140.889
X98.193Y-143.429
X98.345Y-78.634
X98.345Y-81.174
X98.345Y-83.714
X98.396Y-147.824
X99.361Y-39.518
X99.361Y-51.964
X99.361Y-86.254
X100.783Y-125.624
X100.783Y-128.164
X100.783Y-130.704
X100.783Y-133.244
X100.783Y-135.784
X100.783Y-138.324
X100.783Y-140.864
X100.783Y-143.404
X100.809Y-147.798
X101.901Y-39.518
X101.901Y-51.964
X102.155Y-55.774
X103.298Y-121.281
X104.441Y-39.518
X104.441Y-51.964
X105.711Y-78.634
X105.711Y-81.174
X105.711Y-83.714
X106.981Y-51.964
X107.006Y-39.518
X108.251Y-81.174
X108.302Y-101.418
X108.302Y-103.958
X108.302Y-106.523
X108.302Y-111.654
X108.327Y-98.878
X108.327Y-109.089
X108.327Y-147.773
X108.378Y-74.697
X108.378Y-86.203
X108.378Y-88.667
X108.378Y-91.207
X108.378Y-93.747
X108.378Y-96.287
X108.403Y-125.624
X108.403Y-128.164
X108.403Y-130.704
X108.403Y-133.244
X108.403Y-135.784
X108.403Y-138.324
X108.403Y-140.864
X108.403Y-143.404
X109.521Y-51.964
X109.699Y-39.518
X110.867Y-121.179
X110.994Y-125.599
X110.994Y-128.139
X110.994Y-130.679
X110.994Y-133.219
X110.994Y-135.759
X110.994Y-138.299
X110.994Y-140.839
X110.994Y-143.379
X111.045Y-65.934
X111.045Y-68.474
X111.045Y-71.014
X111.045Y-73.554
X111.045Y-76.094
X111.045Y-78.634
X111.045Y-81.174
X111.045Y-83.714
X111.045Y-86.254
X111.045Y-88.794
X111.045Y-91.334
X111.045Y-93.874
X111.045Y-96.414
X111.045Y-98.954
X111.045Y-101.494
X111.045Y-104.034
X111.045Y-106.574
X111.045Y-109.114
X111.045Y-111.654
X111.045Y-114.194
X112.417Y-41.982
X112.417Y-44.522
X112.417Y-47.062
X112.417Y-49.602
X112.417Y-52.142
X112.417Y-54.682
X112.417Y-57.222
X112.417Y-59.762
X112.417Y-62.302
X113.483Y-147.773
X118.614Y-125.599
X118.614Y-128.139
X118.614Y-130.679
X118.614Y-133.219
X118.614Y-135.759
X118.614Y-138.299
X118.614Y-140.839
X118.614Y-143.379
X118.614Y-147.773
X121.027Y-147.747
X121.18Y-125.599
X121.18Y-128.139
X121.18Y-130.679
X121.18Y-133.219
X121.18Y-135.759
X121.18Y-138.299
X121.18Y-140.839
X121.18Y-143.379
X123.567Y-121.179
X125.066Y-41.931
X125.066Y-44.471
X125.066Y-47.011
X125.066Y-49.551
X125.066Y-52.091
X125.066Y-54.631
X125.066Y-57.171
X125.066Y-59.711
X125.066Y-62.251
X126.285Y-65.934
X126.285Y-68.474
X126.285Y-71.014
X126.285Y-73.554
X126.285Y-76.094
X126.285Y-78.634
X126.285Y-81.174
X126.285Y-83.714
X126.285Y-86.254
X126.285Y-88.794
X126.285Y-91.334
X126.285Y-93.874
X126.285Y-96.414
X126.285Y-98.954
X126.285Y-101.494
X126.285Y-104.034
X126.285Y-106.574
X126.285Y-109.114
X126.285Y-111.654
X126.285Y-114.194
X128.723Y-111.603
X128.749Y-96.338
X128.749Y-98.878
X128.749Y-101.418
X128.749Y-103.932
X128.749Y-106.498
X128.749Y-109.038
X128.749Y-114.118
X128.749Y-116.632
X128.749Y-119.198
X128.774Y-147.722
X128.8Y-125.599
X128.8Y-128.139
X128.8Y-130.679
X128.8Y-133.219
X128.8Y-135.759
X128.8Y-138.299
X128.8Y-140.839
X128.8Y-143.379
X131.111Y-68.474
X131.111Y-88.794
X132.635Y-137.816
X132.635Y-143.912
X133.727Y-147.722
X137.715Y-43.074
X137.715Y-45.614
X137.715Y-48.154
X137.715Y-50.694
X137.715Y-53.234
X137.715Y-55.774
X137.715Y-58.314
X137.715Y-60.854
X138.833Y-140.254
X138.934Y-125.522
X138.934Y-128.113
X138.934Y-133.295
X138.96Y-130.679
X139.493Y-68.474
X139.493Y-71.014
X139.493Y-73.554
X139.493Y-76.094
X139.493Y-78.634
X139.493Y-81.174
X139.493Y-83.714
X139.493Y-86.254
X141.373Y-111.578
X141.398Y-96.287
X141.398Y-98.827
X141.398Y-101.367
X141.398Y-103.882
X141.398Y-106.447
X141.398Y-108.987
X141.398Y-114.067
X141.398Y-116.582
X141.398Y-119.147
X145.259Y-97.659
X145.259Y-100.224
X145.259Y-102.739
X145.259Y-105.355
X145.259Y-107.819
X145.259Y-110.359
X145.335Y-43.074
X145.335Y-45.614
X145.335Y-48.154
X145.335Y-50.694
X145.335Y-53.234
X145.335Y-55.774
X145.335Y-58.314
X145.335Y-60.854
X146.529Y-119.96
X147.113Y-68.474
X147.113Y-71.014
X147.113Y-73.554
X147.113Y-76.094
X147.113Y-78.634
X147.113Y-81.174
X147.113Y-83.714
X147.113Y-86.254
X150.212Y-43.049
X150.263Y-55.698
X151.583Y-125.497
X151.583Y-128.062
X151.583Y-130.653
X151.583Y-133.269
X152.701Y-43.074
X152.701Y-45.614
X152.701Y-48.154
X152.701Y-50.694
X152.701Y-53.234
X152.701Y-55.774
X152.701Y-58.314
X152.701Y-60.854
X152.93Y-147.849
X152.955Y-68.474
X152.955Y-71.014
X152.955Y-73.554
X152.955Y-76.094
X152.955Y-78.634
X152.955Y-81.174
X152.955Y-83.714
X152.955Y-137.816
X152.955Y-143.912
X155.241Y-125.624
X155.241Y-128.164
X155.241Y-130.704
X155.241Y-133.244
X155.241Y-135.784
X155.241Y-138.324
X155.241Y-140.864
X155.241Y-143.404
X157.908Y-97.608
X157.908Y-100.173
X157.908Y-102.688
X157.908Y-105.304
X157.908Y-107.768
X157.908Y-110.308
X159.178Y-119.909
X160.321Y-43.074
X160.321Y-45.614
X160.321Y-48.154
X160.321Y-50.694
X160.321Y-53.234
X160.321Y-55.774
X160.321Y-58.314
X160.321Y-60.854
X160.575Y-68.474
X160.575Y-71.014
X160.575Y-73.554
X160.575Y-76.094
X160.575Y-78.634
X160.575Y-81.174
X160.575Y-83.714
X160.575Y-97.684
X160.575Y-100.224
X160.575Y-102.764
X160.575Y-105.304
X160.575Y-107.844
X160.575Y-110.384
X160.575Y-112.924
X160.575Y-115.464
X161.947Y-119.706
X162.861Y-125.624
X162.861Y-128.164
X162.861Y-130.704
X162.861Y-133.244
X162.861Y-135.784
X162.861Y-138.324
X162.861Y-140.864
X162.861Y-143.404
X163.217Y-39.442
X164.385Y-50.186
X164.385Y-52.726
X164.385Y-55.266
X165.579Y-147.798
X165.655Y-125.624
X165.655Y-128.164
X165.655Y-130.704
X165.655Y-133.244
X165.655Y-135.784
X165.655Y-138.324
X165.655Y-140.864
X165.655Y-143.404
X168.17Y-147.849
X168.195Y-43.074
X168.195Y-45.614
X168.195Y-48.154
X168.195Y-50.694
X168.195Y-53.234
X168.195Y-55.774
X168.195Y-58.314
X168.195Y-60.854
X168.195Y-68.474
X168.195Y-71.014
X168.195Y-73.554
X168.195Y-76.094
X168.195Y-78.634
X168.195Y-81.174
X168.195Y-83.714
X168.195Y-97.684
X168.195Y-100.224
X168.195Y-102.764
X168.195Y-105.304
X168.195Y-107.844
X168.195Y-110.384
X168.195Y-112.924
X168.195Y-115.464
X170.735Y-97.684
X170.735Y-100.224
X170.735Y-102.764
X170.735Y-105.304
X170.735Y-107.844
X170.735Y-110.384
X170.735Y-112.924
X170.735Y-115.464
X173.275Y-125.624
X173.275Y-128.164
X173.275Y-130.704
X173.275Y-133.244
X173.275Y-135.784
X173.275Y-138.324
X173.275Y-140.864
X173.275Y-143.404
X174.596Y-119.655
X175.815Y-43.074
X175.815Y-45.614
X175.815Y-48.154
X175.815Y-50.694
X175.815Y-53.234
X175.815Y-55.774
X175.815Y-58.314
X175.815Y-60.854
X175.815Y-68.474
X175.815Y-71.014
X175.815Y-73.554
X175.815Y-76.094
X175.815Y-78.634
X175.815Y-81.174
X175.815Y-83.714
X175.815Y-125.624
X175.815Y-128.164
X175.815Y-130.704
X175.815Y-133.244
X175.815Y-135.784
X175.815Y-138.324
X175.815Y-140.864
X175.815Y-143.404
X175.866Y-39.391
X176.983Y-119.706
X178.355Y-97.684
X178.355Y-100.224
X178.355Y-102.764
X178.355Y-105.304
X178.355Y-107.844
X178.355Y-110.384
X178.355Y-112.924
X178.355Y-115.464
X180.793Y-147.798
X180.895Y-97.684
X180.895Y-100.224
X180.895Y-102.764
X180.895Y-105.304
X180.895Y-107.844
X180.895Y-110.384
X180.895Y-112.924
X180.895Y-115.464
X183.41Y-147.824
X183.435Y-43.074
X183.435Y-45.614
X183.435Y-48.154
X183.435Y-50.694
X183.435Y-53.234
X183.435Y-55.774
X183.435Y-58.314
X183.435Y-60.854
X183.435Y-63.394
X183.435Y-65.934
X183.435Y-68.474
X183.435Y-71.014
X183.435Y-73.554
X183.435Y-76.094
X183.435Y-78.634
X183.435Y-81.174
X183.435Y-83.714
X183.435Y-86.254
X183.435Y-88.794
X183.435Y-91.334
X183.435Y-125.624
X183.435Y-128.164
X183.435Y-130.704
X183.435Y-133.244
X183.435Y-135.784
X183.435Y-138.324
X183.435Y-140.864
X183.435Y-143.404
X185.975Y-125.624
X185.975Y-128.164
X185.975Y-130.704
X185.975Y-133.244
X185.975Y-135.784
X185.975Y-138.324
X185.975Y-140.864
X185.975Y-143.404
X188.515Y-97.684
X188.515Y-100.224
X188.515Y-102.764
X188.515Y-105.304
X188.515Y-107.844
X188.515Y-110.384
X188.515Y-112.924
X188.515Y-115.464
X189.633Y-119.68
X191.055Y-97.684
X191.055Y-100.224
X191.055Y-102.764
X191.055Y-105.304
X191.055Y-107.844
X191.055Y-110.384
X191.055Y-112.924
X191.055Y-115.464
X192.249Y-119.706
X193.595Y-125.624
X193.595Y-128.164
X193.595Y-130.704
X193.595Y-133.244
X193.595Y-135.784
X193.595Y-138.324
X193.595Y-140.864
X193.595Y-143.404
X196.059Y-147.773
X198.675Y-43.074
X198.675Y-45.614
X198.675Y-48.154
X198.675Y-50.694
X198.675Y-53.234
X198.675Y-55.774
X198.675Y-58.314
X198.675Y-60.854
X198.675Y-63.394
X198.675Y-65.934
X198.675Y-68.474
X198.675Y-71.014
X198.675Y-73.554
X198.675Y-76.094
X198.675Y-78.634
X198.675Y-81.174
X198.675Y-83.714
X198.675Y-86.254
X198.675Y-88.794
X198.675Y-91.334
X198.675Y-97.684
X198.675Y-100.224
X198.675Y-102.764
X198.675Y-105.304
X198.675Y-107.844
X198.675Y-110.384
X198.675Y-112.924
X198.675Y-115.464
X198.751Y-147.747
X204.263Y-96.414
X204.263Y-116.48
X204.898Y-119.68
X206.295Y-43.074
X206.295Y-45.614
X206.295Y-48.154
X206.295Y-50.694
X206.295Y-53.234
X206.295Y-55.774
X206.295Y-58.314
X206.295Y-60.854
X206.295Y-63.394
X206.295Y-65.934
X206.295Y-68.474
X206.295Y-71.014
X206.295Y-73.554
X206.295Y-76.094
X209.978Y-130.526
X210.029Y-125.37
X210.029Y-127.935
X210.181Y-80.387
X210.181Y-100.783
X210.207Y-82.901
X210.207Y-85.416
X210.207Y-98.192
X210.207Y-103.348
X210.207Y-105.888
X210.207Y-108.377
X210.232Y-87.88
X210.232Y-90.47
X210.232Y-95.652
X210.257Y-93.087
X211.375Y-113.432
X211.375Y-115.464
X211.4Y-147.722
X211.883Y-134.26
X213.915Y-113.432
X213.915Y-115.464
X214.525Y-134.26
X216.455Y-113.432
X216.455Y-115.464
X217.141Y-134.235
X218.995Y-113.432
X218.995Y-115.464
X221.535Y-43.074
X221.535Y-45.614
X221.535Y-48.154
X221.535Y-50.694
X221.535Y-53.234
X221.535Y-55.774
X221.535Y-58.314
X221.535Y-60.854
X221.535Y-63.394
X221.535Y-65.934
X221.535Y-68.474
X221.535Y-71.014
X221.535Y-73.554
X221.535Y-76.094
X221.535Y-113.432
X221.535Y-115.464
X222.627Y-130.475
X222.653Y-125.345
X222.653Y-127.91
X222.83Y-80.361
X222.83Y-98.167
X222.83Y-100.732
X222.856Y-82.876
X222.856Y-85.365
X222.856Y-87.829
X222.856Y-90.42
X222.856Y-95.601
X222.856Y-103.297
X222.856Y-105.837
X222.856Y-108.327
X222.881Y-93.061
X224.075Y-113.432
X224.075Y-115.464
X224.253Y-151.481
X225.294Y-128.52
X225.32Y-123.44
X225.32Y-126.005
X225.345Y-69.49
X225.345Y-76.094
X225.345Y-98.192
X225.345Y-106.828
X225.447Y-81.098
X225.447Y-83.638
X225.447Y-86.178
X225.447Y-88.718
X225.447Y-91.258
X225.447Y-93.798
X225.447Y-102.561
X226.615Y-113.432
X226.615Y-115.464
X229.155Y-113.432
X229.155Y-115.464
X237.943Y-123.414
X237.943Y-125.954
X237.943Y-128.494
X238.045Y-111.4
X238.045Y-113.94
X238.045Y-116.48
X238.07Y-102.535
X238.096Y-81.047
X238.096Y-83.587
X238.096Y-86.127
X238.096Y-88.667
X238.096Y-91.207
X238.096Y-93.747
X240.661Y-102.535
X240.687Y-81.098
X240.687Y-83.638
X240.687Y-86.178
X240.687Y-88.718
X240.687Y-91.258
X240.687Y-93.798
X243.125Y-111.4
X243.125Y-113.94
X243.125Y-116.48
X245.665Y-69.49
X245.665Y-76.094
X245.665Y-98.192
X245.665Y-106.828
X247.951Y-51.71
X253.31Y-102.51
X253.336Y-81.047
X253.336Y-83.587
X253.336Y-86.127
X253.336Y-88.667
X253.336Y-91.207
X253.336Y-93.747
T4
X60.042Y-63.521
X62.582Y-66.061
X65.147Y-66.061
X67.636Y-66.061
T5
X130.603Y-42.058
X130.603Y-64.664
T6
X225.345Y-120.29
X238.045Y-120.29
X253.285Y-42.795
X253.285Y-45.487
X253.285Y-48.154
T7
X247.519Y-136.597
X247.57Y-146.681
T8
X236.775Y-54.504
X236.775Y-58.314
X236.775Y-63.14
X245.411Y-54.504
X245.411Y-58.314
X245.411Y-63.14
T9
X150.161Y-114.829
T10
X243.887Y-29.358
X243.887Y-33.676
X248.459Y-30.12
X248.459Y-37.232
X253.539Y-33.676
T11
X97.583Y-31.822
X97.583Y-35.962
X107.235Y-35.962
X112.315Y-31.822
X112.315Y-35.962
X121.967Y-35.962
T12
X50.999Y-44.598
X89.861Y-44.598
T13
X238.807Y-45.614
M30
