G04*
G04 #@! TF.GenerationSoftware,Altium Limited,Altium Designer,21.0.7 (178)*
G04*
G04 Layer_Physical_Order=2*
G04 Layer_Color=16711680*
%FSLAX25Y25*%
%MOIN*%
G70*
G04*
G04 #@! TF.SameCoordinates,9F816DF4-4E33-4A2F-A6E9-8ABE5C180B29*
G04*
G04*
G04 #@! TF.FilePolarity,Positive*
G04*
G01*
G75*
G04:AMPARAMS|DCode=11|XSize=78.74mil|YSize=78.74mil|CornerRadius=9.84mil|HoleSize=0mil|Usage=FLASHONLY|Rotation=0.000|XOffset=0mil|YOffset=0mil|HoleType=Round|Shape=RoundedRectangle|*
%AMROUNDEDRECTD11*
21,1,0.07874,0.05906,0,0,0.0*
21,1,0.05906,0.07874,0,0,0.0*
1,1,0.01968,0.02953,-0.02953*
1,1,0.01968,-0.02953,-0.02953*
1,1,0.01968,-0.02953,0.02953*
1,1,0.01968,0.02953,0.02953*
%
%ADD11ROUNDEDRECTD11*%
%ADD12R,0.05906X0.05906*%
%ADD13C,0.05906*%
%ADD14C,0.03200*%
%ADD15C,0.01000*%
%ADD16C,0.14200*%
D11*
X756653Y57244D02*
D03*
X781653Y67244D02*
D03*
X702913D02*
D03*
X677913Y57244D02*
D03*
X599173D02*
D03*
X624173Y67244D02*
D03*
X545433D02*
D03*
X520433Y57244D02*
D03*
X441693D02*
D03*
X466693Y67244D02*
D03*
X387953D02*
D03*
X362953Y57244D02*
D03*
X284213D02*
D03*
X309213Y67244D02*
D03*
X230472D02*
D03*
X205472Y57244D02*
D03*
X126732D02*
D03*
X151732Y67244D02*
D03*
X72992D02*
D03*
X47992Y57244D02*
D03*
X772402Y135984D02*
D03*
X797402Y145984D02*
D03*
X718661D02*
D03*
X693661Y135984D02*
D03*
X614921D02*
D03*
X639921Y145984D02*
D03*
X561181D02*
D03*
X536181Y135984D02*
D03*
X457441D02*
D03*
X482441Y145984D02*
D03*
X403701D02*
D03*
X378701Y135984D02*
D03*
X299961D02*
D03*
X324961Y145984D02*
D03*
X246220D02*
D03*
X221220Y135984D02*
D03*
X142480D02*
D03*
X167480Y145984D02*
D03*
X88740D02*
D03*
X63740Y135984D02*
D03*
X764528Y214724D02*
D03*
X789528Y224724D02*
D03*
X710787D02*
D03*
X685787Y214724D02*
D03*
X607047D02*
D03*
X632047Y224724D02*
D03*
X553307D02*
D03*
X528307Y214724D02*
D03*
X449567D02*
D03*
X474567Y224724D02*
D03*
X395827D02*
D03*
X370827Y214724D02*
D03*
X292087D02*
D03*
X317087Y224724D02*
D03*
X238347D02*
D03*
X213347Y214724D02*
D03*
X134606D02*
D03*
X159606Y224724D02*
D03*
X80866D02*
D03*
X55866Y214724D02*
D03*
X740906Y293465D02*
D03*
X765906Y303465D02*
D03*
X687165D02*
D03*
X662165Y293465D02*
D03*
X583425D02*
D03*
X608425Y303465D02*
D03*
X529685D02*
D03*
X504685Y293465D02*
D03*
X425945D02*
D03*
X450945Y303465D02*
D03*
X372205D02*
D03*
X347205Y293465D02*
D03*
X268465D02*
D03*
X293465Y303465D02*
D03*
X214724D02*
D03*
X189724Y293465D02*
D03*
X110984D02*
D03*
X135984Y303465D02*
D03*
X57244D02*
D03*
X32244Y293465D02*
D03*
D12*
X657500Y7500D02*
D03*
X120000D02*
D03*
X657500Y324000D02*
D03*
X120000D02*
D03*
D13*
X667500Y7500D02*
D03*
X677500D02*
D03*
X687500D02*
D03*
X697500D02*
D03*
X707500D02*
D03*
X717500D02*
D03*
X727500D02*
D03*
X160000D02*
D03*
X150000D02*
D03*
X140000D02*
D03*
X130000D02*
D03*
X667500Y324000D02*
D03*
X677500D02*
D03*
X687500D02*
D03*
X697500D02*
D03*
X707500D02*
D03*
X717500D02*
D03*
X727500D02*
D03*
X160000D02*
D03*
X150000D02*
D03*
X140000D02*
D03*
X130000D02*
D03*
D14*
X690000Y242500D02*
D03*
X672500D02*
D03*
X742500Y146000D02*
D03*
X752500Y67500D02*
D03*
X207500Y27500D02*
D03*
Y15000D02*
D03*
X287500Y30000D02*
D03*
Y12500D02*
D03*
X365000Y32500D02*
D03*
Y7500D02*
D03*
X130000Y25000D02*
D03*
X120000Y20000D02*
D03*
X667500Y155000D02*
D03*
X660000Y242500D02*
D03*
X737500Y75000D02*
D03*
D15*
X672500Y242500D02*
X690000D01*
X718661Y145984D02*
X797402D01*
X703169Y67500D02*
X781398D01*
X702913Y67244D02*
X703169Y67500D01*
X781398D02*
X781653Y67244D01*
X150000Y7500D02*
X154453Y11953D01*
X182256D01*
X286305Y11900D02*
X286905Y12500D01*
X287500D01*
X182256Y11953D02*
X182308Y11900D01*
X286305D01*
X147500Y15000D02*
X207500D01*
X140000Y7500D02*
X147500Y15000D01*
X210000Y25000D02*
X587500D01*
X207500Y27500D02*
Y55216D01*
Y27500D02*
X210000Y25000D01*
X287500Y30000D02*
Y53957D01*
Y30000D02*
X290000Y27500D01*
X512500D01*
X160000Y7500D02*
X365000D01*
X365250Y32750D02*
X368000Y30000D01*
X365000Y33000D02*
Y55197D01*
X368000Y30000D02*
X435000D01*
X130000Y25000D02*
X132500Y22500D01*
X127500Y27500D02*
X130000Y25000D01*
X132500Y22500D02*
X665000D01*
X127500Y27500D02*
Y56476D01*
X120000Y20000D02*
X740000D01*
X67500D02*
X120000D01*
X412716Y155000D02*
X667500D01*
X413602Y242500D02*
X660000D01*
X395827Y224724D02*
X413602Y242500D01*
X392740Y324000D02*
X657500D01*
X372205Y303465D02*
X392740Y324000D01*
X32244Y293465D02*
Y298744D01*
X57500Y324000D02*
X120000D01*
X32244Y298744D02*
X57500Y324000D01*
X395709Y75000D02*
X737500D01*
X387953Y67244D02*
X395709Y75000D01*
X482441Y145984D02*
X561181D01*
X403701D02*
X412716Y155000D01*
X441693Y57244D02*
X443500Y55437D01*
Y38500D02*
Y55437D01*
X435000Y30000D02*
X443500Y38500D01*
X512500Y27500D02*
X522500Y37500D01*
X587500Y25000D02*
X601000Y38500D01*
X665000Y22500D02*
X680000Y37500D01*
X50000D02*
X67500Y20000D01*
X740000D02*
X758500Y38500D01*
X362953Y57244D02*
X365000Y55197D01*
X599173Y57244D02*
X601000Y55417D01*
Y38500D02*
Y55417D01*
X756653Y57244D02*
X758500Y55398D01*
Y38500D02*
Y55398D01*
X50000Y37500D02*
Y55236D01*
X47992Y57244D02*
X50000Y55236D01*
X677913Y57244D02*
X680000Y55158D01*
Y37500D02*
Y55158D01*
X126732Y57244D02*
X127500Y56476D01*
X205472Y57244D02*
X207500Y55216D01*
X520433Y57244D02*
X522500Y55177D01*
Y37500D02*
Y55177D01*
X284213Y57244D02*
X287500Y53957D01*
X317087Y224724D02*
X395827D01*
X238347D02*
X317087D01*
X159606D02*
X238347D01*
X80866D02*
X159606D01*
X88740Y145984D02*
X167480D01*
X246220D01*
X324961D01*
X403701D01*
X309213Y67244D02*
X387953D01*
X230472D02*
X309213D01*
X151732D02*
X230472D01*
X72992D02*
X151732D01*
X466693D02*
X545433D01*
X624173D01*
X702913D01*
X639921Y145984D02*
X718661D01*
X561181D02*
X639921D01*
X474567Y224724D02*
X553307D01*
X632047D01*
X710787D01*
X789528D01*
X687165Y303465D02*
X765906D01*
X608425D02*
X687165D01*
X529685D02*
X608425D01*
X450945D02*
X529685D01*
X293465D02*
X372205D01*
X214724D02*
X293465D01*
X135984D02*
X214724D01*
X57244D02*
X135984D01*
D16*
X15000Y15000D02*
D03*
X822500D02*
D03*
Y267500D02*
D03*
X17000Y227500D02*
D03*
M02*
