M48
;Layer_Color=9474304
;FILE_FORMAT=2:5
INCH,LZ
;TYPE=PLATED
T1F00S00C0.02000
T2F00S00C0.03543
T3F00S00C0.03937
T4F00S00C0.07087
T5F00S00C0.12500
T6F00S00C0.15354
%
T01
X012Y002
X013Y0025
X02075Y00275
Y0015
X02875Y00125
Y003
X0365Y00325
Y00075
X07375Y0075
X07525Y00675
X07425Y0146
X06675Y0155
X06725Y02425
X066
X069
T02
X012Y00075
X013
X014
X015
X016
X06575
X06675
X06775
X06875
X06975
X07075
X07175
X07275
X016Y0324
X015
X014
X013
X012
X06575
X06675
X06775
X06875
X06975
X07075
X07175
X07275
T03
X0047992Y0057244
X0072992Y0067244
X006374Y0135984
X014248
X0151732Y0067244
X0126732Y0057244
X0205472
X0230472Y0067244
X022122Y0135984
X0299961
X0309213Y0067244
X0284213Y0057244
X0362953
X0387953Y0067244
X0378701Y0135984
X0457441
X0466693Y0067244
X0441693Y0057244
X0520433
X0545433Y0067244
X0536181Y0135984
X0614921
X0624173Y0067244
X0599173Y0057244
X0677913
X0702913Y0067244
X0693661Y0135984
X0772402
X0781653Y0067244
X0756653Y0057244
X0718661Y0145984
X0797402
X0789528Y0224724
X0764528Y0214724
X0710787Y0224724
X0740906Y0293465
X0662165
X0583425
X0607047Y0214724
X0632047Y0224724
X0685787Y0214724
X0639921Y0145984
X0561181
X0482441
X0403701
X0449567Y0214724
X0474567Y0224724
X0528307Y0214724
X0553307Y0224724
X0504685Y0293465
X0425945
X0347205
X0268465
X0292087Y0214724
X0317087Y0224724
X0370827Y0214724
X0395827Y0224724
X0324961Y0145984
X024622
X016748
X008874
X0134606Y0214724
X0159606Y0224724
X0213347Y0214724
X0238347Y0224724
X0189724Y0293465
X0110984
X0032244
X0055866Y0214724
X0080866Y0224724
X0057244Y0303465
X0135984
X0214724
X0293465
X0372205
X0450945
X0529685
X0608425
X0687165
X0765906
T04
X0042992Y0047244
X0082992
X005874Y0125984
X009874
X013748
X017748
X021622
X0200472Y0047244
X0161732
X0121732
X0240472
X0279213
X0319213
X0357953
X0373701Y0125984
X0334961
X0294961
X0256221
X0413701
X0452441
X0492441
X0531181
X0515433Y0047244
X0476693
X0436693
X0397953
X0555433
X0594173
X0634173
X0672913
X0688661Y0125984
X0649921
X0609921
X0571181
X0728661
X0767402
X0807402
X0791653Y0047244
X0751653
X0712913
X0720787Y0204724
X0759528
X0799528
X0775906Y0283465
X0735906
X0697165
X0657165
X0618425
X0578425
X0563307Y0204724
X0602047
X0642047
X0680787
X0523307
X0484567
X0444567
X0405827
X0420945Y0283465
X0460945
X0499685
X0539685
X0382205
X0342205
X0303465
X0263465
X0248346Y0204724
X0287087
X0327087
X0365827
X0208347
X0169606
X0129606
X0090866
X0105984Y0283465
X0145984
X0184724
X0224724
X0067244
X0027244
X0050866Y0204724
T05
X0015Y0015
X08225
Y02675
X0017Y02275
T06
X0062992Y0047244
X007874Y0125984
X015748
X0236221
X0220472Y0047244
X0141732
X0299213
X0377953
X0393701Y0125984
X0314961
X0472441
X0551181
X0535433Y0047244
X0456693
X0614173
X0692913
X0708661Y0125984
X0629921
X0787402
X0771654Y0047244
X0779528Y0204724
X0755905Y0283465
X0677165
X0598425
X0622047Y0204724
X0700787
X0543307
X0464567
X0440945Y0283465
X0519685
X0362205
X0283465
X0307087Y0204724
X0385827
X0228346
X0149606
X0125984Y0283465
X0204724
X0047244
X0070866Y0204724
M30
