G04*
G04 #@! TF.GenerationSoftware,Altium Limited,Altium Designer,21.0.7 (178)*
G04*
G04 Layer_Color=65535*
%FSLAX25Y25*%
%MOIN*%
G70*
G04*
G04 #@! TF.SameCoordinates,9F816DF4-4E33-4A2F-A6E9-8ABE5C180B29*
G04*
G04*
G04 #@! TF.FilePolarity,Positive*
G04*
G01*
G75*
%ADD10C,0.00591*%
D10*
X736154Y82744D02*
X807154D01*
Y11744D02*
Y82744D01*
X736154Y11744D02*
X807154D01*
X736154D02*
Y82744D01*
X657413Y11744D02*
Y82744D01*
Y11744D02*
X728413D01*
Y82744D01*
X657413D02*
X728413D01*
X578673D02*
X649673D01*
Y11744D02*
Y82744D01*
X578673Y11744D02*
X649673D01*
X578673D02*
Y82744D01*
X499933Y11744D02*
Y82744D01*
Y11744D02*
X570933D01*
Y82744D01*
X499933D02*
X570933D01*
X421193D02*
X492193D01*
Y11744D02*
Y82744D01*
X421193Y11744D02*
X492193D01*
X421193D02*
Y82744D01*
X342453Y11744D02*
Y82744D01*
Y11744D02*
X413453D01*
Y82744D01*
X342453D02*
X413453D01*
X263713D02*
X334713D01*
Y11744D02*
Y82744D01*
X263713Y11744D02*
X334713D01*
X263713D02*
Y82744D01*
X184972Y11744D02*
Y82744D01*
Y11744D02*
X255972D01*
Y82744D01*
X184972D02*
X255972D01*
X106232D02*
X177232D01*
Y11744D02*
Y82744D01*
X106232Y11744D02*
X177232D01*
X106232D02*
Y82744D01*
X27492Y11744D02*
Y82744D01*
Y11744D02*
X98492D01*
Y82744D01*
X27492D02*
X98492D01*
X751902Y161484D02*
X822902D01*
Y90484D02*
Y161484D01*
X751902Y90484D02*
X822902D01*
X751902D02*
Y161484D01*
X673161Y90484D02*
Y161484D01*
Y90484D02*
X744161D01*
Y161484D01*
X673161D02*
X744161D01*
X594421D02*
X665421D01*
Y90484D02*
Y161484D01*
X594421Y90484D02*
X665421D01*
X594421D02*
Y161484D01*
X515681Y90484D02*
Y161484D01*
Y90484D02*
X586681D01*
Y161484D01*
X515681D02*
X586681D01*
X436941D02*
X507941D01*
Y90484D02*
Y161484D01*
X436941Y90484D02*
X507941D01*
X436941D02*
Y161484D01*
X358201Y90484D02*
Y161484D01*
Y90484D02*
X429201D01*
Y161484D01*
X358201D02*
X429201D01*
X279461D02*
X350461D01*
Y90484D02*
Y161484D01*
X279461Y90484D02*
X350461D01*
X279461D02*
Y161484D01*
X200721Y90484D02*
Y161484D01*
Y90484D02*
X271721D01*
Y161484D01*
X200721D02*
X271721D01*
X121980D02*
X192980D01*
Y90484D02*
Y161484D01*
X121980Y90484D02*
X192980D01*
X121980D02*
Y161484D01*
X43240Y90484D02*
Y161484D01*
Y90484D02*
X114240D01*
Y161484D01*
X43240D02*
X114240D01*
X744028Y240224D02*
X815028D01*
Y169224D02*
Y240224D01*
X744028Y169224D02*
X815028D01*
X744028D02*
Y240224D01*
X665287Y169224D02*
Y240224D01*
Y169224D02*
X736287D01*
Y240224D01*
X665287D02*
X736287D01*
X586547D02*
X657547D01*
Y169224D02*
Y240224D01*
X586547Y169224D02*
X657547D01*
X586547D02*
Y240224D01*
X507807Y169224D02*
Y240224D01*
Y169224D02*
X578807D01*
Y240224D01*
X507807D02*
X578807D01*
X429067D02*
X500067D01*
Y169224D02*
Y240224D01*
X429067Y169224D02*
X500067D01*
X429067D02*
Y240224D01*
X350327Y169224D02*
Y240224D01*
Y169224D02*
X421327D01*
Y240224D01*
X350327D02*
X421327D01*
X271587D02*
X342587D01*
Y169224D02*
Y240224D01*
X271587Y169224D02*
X342587D01*
X271587D02*
Y240224D01*
X192847Y169224D02*
Y240224D01*
Y169224D02*
X263846D01*
Y240224D01*
X192847D02*
X263846D01*
X114106D02*
X185106D01*
Y169224D02*
Y240224D01*
X114106Y169224D02*
X185106D01*
X114106D02*
Y240224D01*
X35366Y169224D02*
Y240224D01*
Y169224D02*
X106366D01*
Y240224D01*
X35366D02*
X106366D01*
X720405Y318965D02*
X791405D01*
Y247965D02*
Y318965D01*
X720405Y247965D02*
X791405D01*
X720405D02*
Y318965D01*
X641665Y247965D02*
Y318965D01*
Y247965D02*
X712665D01*
Y318965D01*
X641665D02*
X712665D01*
X562925D02*
X633925D01*
Y247965D02*
Y318965D01*
X562925Y247965D02*
X633925D01*
X562925D02*
Y318965D01*
X484185Y247965D02*
Y318965D01*
Y247965D02*
X555185D01*
Y318965D01*
X484185D02*
X555185D01*
X405445D02*
X476445D01*
Y247965D02*
Y318965D01*
X405445Y247965D02*
X476445D01*
X405445D02*
Y318965D01*
X326705Y247965D02*
Y318965D01*
Y247965D02*
X397705D01*
Y318965D01*
X326705D02*
X397705D01*
X247965D02*
X318965D01*
Y247965D02*
Y318965D01*
X247965Y247965D02*
X318965D01*
X247965D02*
Y318965D01*
X169224Y247965D02*
Y318965D01*
Y247965D02*
X240224D01*
Y318965D01*
X169224D02*
X240224D01*
X90484D02*
X161484D01*
Y247965D02*
Y318965D01*
X90484Y247965D02*
X161484D01*
X90484D02*
Y318965D01*
X11744Y247965D02*
Y318965D01*
Y247965D02*
X82744D01*
Y318965D01*
X11744D02*
X82744D01*
M02*
