G04*
G04 #@! TF.GenerationSoftware,Altium Limited,Altium Designer,21.0.7 (178)*
G04*
G04 Layer_Color=16711935*
%FSLAX25Y25*%
%MOIN*%
G70*
G04*
G04 #@! TF.SameCoordinates,9F816DF4-4E33-4A2F-A6E9-8ABE5C180B29*
G04*
G04*
G04 #@! TF.FilePolarity,Negative*
G04*
G01*
G75*
G04:AMPARAMS|DCode=11|XSize=78.74mil|YSize=78.74mil|CornerRadius=9.84mil|HoleSize=0mil|Usage=FLASHONLY|Rotation=0.000|XOffset=0mil|YOffset=0mil|HoleType=Round|Shape=RoundedRectangle|*
%AMROUNDEDRECTD11*
21,1,0.07874,0.05906,0,0,0.0*
21,1,0.05906,0.07874,0,0,0.0*
1,1,0.01968,0.02953,-0.02953*
1,1,0.01968,-0.02953,-0.02953*
1,1,0.01968,-0.02953,0.02953*
1,1,0.01968,0.02953,0.02953*
%
%ADD11ROUNDEDRECTD11*%
%ADD12R,0.05906X0.05906*%
%ADD13C,0.05906*%
%ADD14C,0.03200*%
D11*
X756653Y57244D02*
D03*
X781653Y67244D02*
D03*
X702913D02*
D03*
X677913Y57244D02*
D03*
X599173D02*
D03*
X624173Y67244D02*
D03*
X545433D02*
D03*
X520433Y57244D02*
D03*
X441693D02*
D03*
X466693Y67244D02*
D03*
X387953D02*
D03*
X362953Y57244D02*
D03*
X284213D02*
D03*
X309213Y67244D02*
D03*
X230472D02*
D03*
X205472Y57244D02*
D03*
X126732D02*
D03*
X151732Y67244D02*
D03*
X72992D02*
D03*
X47992Y57244D02*
D03*
X772402Y135984D02*
D03*
X797402Y145984D02*
D03*
X718661D02*
D03*
X693661Y135984D02*
D03*
X614921D02*
D03*
X639921Y145984D02*
D03*
X561181D02*
D03*
X536181Y135984D02*
D03*
X457441D02*
D03*
X482441Y145984D02*
D03*
X403701D02*
D03*
X378701Y135984D02*
D03*
X299961D02*
D03*
X324961Y145984D02*
D03*
X246220D02*
D03*
X221220Y135984D02*
D03*
X142480D02*
D03*
X167480Y145984D02*
D03*
X88740D02*
D03*
X63740Y135984D02*
D03*
X764528Y214724D02*
D03*
X789528Y224724D02*
D03*
X710787D02*
D03*
X685787Y214724D02*
D03*
X607047D02*
D03*
X632047Y224724D02*
D03*
X553307D02*
D03*
X528307Y214724D02*
D03*
X449567D02*
D03*
X474567Y224724D02*
D03*
X395827D02*
D03*
X370827Y214724D02*
D03*
X292087D02*
D03*
X317087Y224724D02*
D03*
X238347D02*
D03*
X213347Y214724D02*
D03*
X134606D02*
D03*
X159606Y224724D02*
D03*
X80866D02*
D03*
X55866Y214724D02*
D03*
X740906Y293465D02*
D03*
X765906Y303465D02*
D03*
X687165D02*
D03*
X662165Y293465D02*
D03*
X583425D02*
D03*
X608425Y303465D02*
D03*
X529685D02*
D03*
X504685Y293465D02*
D03*
X425945D02*
D03*
X450945Y303465D02*
D03*
X372205D02*
D03*
X347205Y293465D02*
D03*
X268465D02*
D03*
X293465Y303465D02*
D03*
X214724D02*
D03*
X189724Y293465D02*
D03*
X110984D02*
D03*
X135984Y303465D02*
D03*
X57244D02*
D03*
X32244Y293465D02*
D03*
D12*
X657500Y7500D02*
D03*
X120000D02*
D03*
X657500Y324000D02*
D03*
X120000D02*
D03*
D13*
X667500Y7500D02*
D03*
X677500D02*
D03*
X687500D02*
D03*
X697500D02*
D03*
X707500D02*
D03*
X717500D02*
D03*
X727500D02*
D03*
X160000D02*
D03*
X150000D02*
D03*
X140000D02*
D03*
X130000D02*
D03*
X667500Y324000D02*
D03*
X677500D02*
D03*
X687500D02*
D03*
X697500D02*
D03*
X707500D02*
D03*
X717500D02*
D03*
X727500D02*
D03*
X160000D02*
D03*
X150000D02*
D03*
X140000D02*
D03*
X130000D02*
D03*
D14*
X690000Y242500D02*
D03*
X672500D02*
D03*
X742500Y146000D02*
D03*
X752500Y67500D02*
D03*
X207500Y27500D02*
D03*
Y15000D02*
D03*
X287500Y30000D02*
D03*
Y12500D02*
D03*
X365000Y32500D02*
D03*
Y7500D02*
D03*
X130000Y25000D02*
D03*
X120000Y20000D02*
D03*
X667500Y155000D02*
D03*
X660000Y242500D02*
D03*
X737500Y75000D02*
D03*
M02*
