G04*
G04 #@! TF.GenerationSoftware,Altium Limited,Altium Designer,21.0.7 (178)*
G04*
G04 Layer_Color=32896*
%FSLAX25Y25*%
%MOIN*%
G70*
G04*
G04 #@! TF.SameCoordinates,9F816DF4-4E33-4A2F-A6E9-8ABE5C180B29*
G04*
G04*
G04 #@! TF.FilePolarity,Positive*
G04*
G01*
G75*
%ADD17C,0.00787*%
%ADD18C,0.00800*%
D17*
X732500Y2500D02*
Y12500D01*
X652500D02*
X732500D01*
X652500Y2500D02*
Y12500D01*
Y2500D02*
X732500D01*
X115000D02*
Y12500D01*
Y2500D02*
X165000D01*
X115000Y12500D02*
X165000D01*
Y2500D02*
Y12500D01*
X732500Y319000D02*
Y329000D01*
X652500D02*
X732500D01*
X652500Y319000D02*
Y329000D01*
Y319000D02*
X732500D01*
X115000D02*
Y329000D01*
Y319000D02*
X165000D01*
X115000Y329000D02*
X165000D01*
Y319000D02*
Y329000D01*
D18*
X161934Y19730D02*
X163267D01*
X162601D01*
Y16398D01*
X163267Y15732D01*
X163934D01*
X164600Y16398D01*
X158602Y15732D02*
Y19730D01*
X160601Y17731D01*
X157936D01*
X729434Y19730D02*
X730767D01*
X730101D01*
Y16398D01*
X730767Y15732D01*
X731434D01*
X732100Y16398D01*
X728101Y19064D02*
X727435Y19730D01*
X726102D01*
X725435Y19064D01*
Y18397D01*
X726102Y17731D01*
X726768D01*
X726102D01*
X725435Y17065D01*
Y16398D01*
X726102Y15732D01*
X727435D01*
X728101Y16398D01*
X729434Y315830D02*
X730767D01*
X730101D01*
Y312498D01*
X730767Y311832D01*
X731434D01*
X732100Y312498D01*
X728101Y311832D02*
X726768D01*
X727435D01*
Y315830D01*
X728101Y315164D01*
X161934Y315830D02*
X163267D01*
X162601D01*
Y312498D01*
X163267Y311832D01*
X163934D01*
X164600Y312498D01*
X157936Y311832D02*
X160601D01*
X157936Y314497D01*
Y315164D01*
X158602Y315830D01*
X159935D01*
X160601Y315164D01*
M02*
