G04*
G04 #@! TF.GenerationSoftware,Altium Limited,Altium Designer,21.0.7 (178)*
G04*
G04 Layer_Physical_Order=1*
G04 Layer_Color=255*
%FSLAX25Y25*%
%MOIN*%
G70*
G04*
G04 #@! TF.SameCoordinates,9F816DF4-4E33-4A2F-A6E9-8ABE5C180B29*
G04*
G04*
G04 #@! TF.FilePolarity,Positive*
G04*
G01*
G75*
G04:AMPARAMS|DCode=11|XSize=78.74mil|YSize=78.74mil|CornerRadius=9.84mil|HoleSize=0mil|Usage=FLASHONLY|Rotation=0.000|XOffset=0mil|YOffset=0mil|HoleType=Round|Shape=RoundedRectangle|*
%AMROUNDEDRECTD11*
21,1,0.07874,0.05906,0,0,0.0*
21,1,0.05906,0.07874,0,0,0.0*
1,1,0.01968,0.02953,-0.02953*
1,1,0.01968,-0.02953,-0.02953*
1,1,0.01968,-0.02953,0.02953*
1,1,0.01968,0.02953,0.02953*
%
%ADD11ROUNDEDRECTD11*%
%ADD12R,0.05906X0.05906*%
%ADD13C,0.05906*%
%ADD14C,0.03200*%
%ADD15C,0.01000*%
%ADD16C,0.14200*%
D11*
X756653Y57244D02*
D03*
X781653Y67244D02*
D03*
X702913D02*
D03*
X677913Y57244D02*
D03*
X599173D02*
D03*
X624173Y67244D02*
D03*
X545433D02*
D03*
X520433Y57244D02*
D03*
X441693D02*
D03*
X466693Y67244D02*
D03*
X387953D02*
D03*
X362953Y57244D02*
D03*
X284213D02*
D03*
X309213Y67244D02*
D03*
X230472D02*
D03*
X205472Y57244D02*
D03*
X126732D02*
D03*
X151732Y67244D02*
D03*
X72992D02*
D03*
X47992Y57244D02*
D03*
X772402Y135984D02*
D03*
X797402Y145984D02*
D03*
X718661D02*
D03*
X693661Y135984D02*
D03*
X614921D02*
D03*
X639921Y145984D02*
D03*
X561181D02*
D03*
X536181Y135984D02*
D03*
X457441D02*
D03*
X482441Y145984D02*
D03*
X403701D02*
D03*
X378701Y135984D02*
D03*
X299961D02*
D03*
X324961Y145984D02*
D03*
X246220D02*
D03*
X221220Y135984D02*
D03*
X142480D02*
D03*
X167480Y145984D02*
D03*
X88740D02*
D03*
X63740Y135984D02*
D03*
X764528Y214724D02*
D03*
X789528Y224724D02*
D03*
X710787D02*
D03*
X685787Y214724D02*
D03*
X607047D02*
D03*
X632047Y224724D02*
D03*
X553307D02*
D03*
X528307Y214724D02*
D03*
X449567D02*
D03*
X474567Y224724D02*
D03*
X395827D02*
D03*
X370827Y214724D02*
D03*
X292087D02*
D03*
X317087Y224724D02*
D03*
X238347D02*
D03*
X213347Y214724D02*
D03*
X134606D02*
D03*
X159606Y224724D02*
D03*
X80866D02*
D03*
X55866Y214724D02*
D03*
X740906Y293465D02*
D03*
X765906Y303465D02*
D03*
X687165D02*
D03*
X662165Y293465D02*
D03*
X583425D02*
D03*
X608425Y303465D02*
D03*
X529685D02*
D03*
X504685Y293465D02*
D03*
X425945D02*
D03*
X450945Y303465D02*
D03*
X372205D02*
D03*
X347205Y293465D02*
D03*
X268465D02*
D03*
X293465Y303465D02*
D03*
X214724D02*
D03*
X189724Y293465D02*
D03*
X110984D02*
D03*
X135984Y303465D02*
D03*
X57244D02*
D03*
X32244Y293465D02*
D03*
D12*
X657500Y7500D02*
D03*
X120000D02*
D03*
X657500Y324000D02*
D03*
X120000D02*
D03*
D13*
X667500Y7500D02*
D03*
X677500D02*
D03*
X687500D02*
D03*
X697500D02*
D03*
X707500D02*
D03*
X717500D02*
D03*
X727500D02*
D03*
X160000D02*
D03*
X150000D02*
D03*
X140000D02*
D03*
X130000D02*
D03*
X667500Y324000D02*
D03*
X677500D02*
D03*
X687500D02*
D03*
X697500D02*
D03*
X707500D02*
D03*
X717500D02*
D03*
X727500D02*
D03*
X160000D02*
D03*
X150000D02*
D03*
X140000D02*
D03*
X130000D02*
D03*
D14*
X690000Y242500D02*
D03*
X672500D02*
D03*
X742500Y146000D02*
D03*
X752500Y67500D02*
D03*
X207500Y27500D02*
D03*
Y15000D02*
D03*
X287500Y30000D02*
D03*
Y12500D02*
D03*
X365000Y32500D02*
D03*
Y7500D02*
D03*
X130000Y25000D02*
D03*
X120000Y20000D02*
D03*
X667500Y155000D02*
D03*
X660000Y242500D02*
D03*
X737500Y75000D02*
D03*
D15*
X687165Y297835D02*
Y303465D01*
Y297835D02*
X690000Y295000D01*
Y242500D02*
Y295000D01*
X672500Y87500D02*
Y242500D01*
X665000Y80000D02*
X672500Y87500D01*
X665000Y30000D02*
Y80000D01*
Y30000D02*
X687500Y7500D01*
X660000Y80000D02*
X667500Y87500D01*
X660000Y25000D02*
X677500Y7500D01*
X660000Y25000D02*
Y80000D01*
X667500Y155000D02*
Y242500D01*
Y87500D02*
Y155000D01*
X655000Y80000D02*
X662500Y87500D01*
X655000Y20000D02*
Y80000D01*
Y20000D02*
X667500Y7500D01*
X650000Y80000D02*
X657500Y87500D01*
X650000Y15000D02*
X657500Y7500D01*
X650000Y15000D02*
Y80000D01*
X710787Y224724D02*
X719776D01*
X732500Y140000D02*
Y212000D01*
X719776Y224724D02*
X732500Y212000D01*
Y140000D02*
X737500Y135000D01*
Y90000D02*
Y135000D01*
Y90000D02*
X738000Y89500D01*
X737500Y142500D02*
Y214000D01*
Y142500D02*
X742500Y137500D01*
Y80000D02*
Y137500D01*
X712500Y239000D02*
X737500Y214000D01*
X747500Y75000D02*
Y141000D01*
X742500Y146000D02*
X747500Y141000D01*
X742500Y146000D02*
Y214500D01*
X725000Y72500D02*
X738000Y85500D01*
Y89500D01*
X725000Y35000D02*
Y72500D01*
X697500Y7500D02*
X725000Y35000D01*
X737500Y75000D02*
X742500Y80000D01*
X740000Y20000D02*
Y60000D01*
X735000Y62500D02*
X747500Y75000D01*
X735000Y25000D02*
Y62500D01*
X740000Y60000D02*
X747500Y67500D01*
X727500Y7500D02*
X740000Y20000D01*
X747500Y67500D02*
X752500D01*
Y142500D01*
X727500Y237000D02*
X747750Y216750D01*
Y147250D02*
X752500Y142500D01*
X747750Y147250D02*
Y216750D01*
X730000Y67500D02*
X737500Y75000D01*
X707500Y7500D02*
X730000Y30000D01*
Y67500D01*
X717500Y7500D02*
X735000Y25000D01*
X207500Y15000D02*
Y27500D01*
X287500Y12500D02*
Y30000D01*
X365000Y7500D02*
Y32500D01*
X130000Y7500D02*
Y25000D01*
X120000Y7500D02*
Y20000D01*
X657500Y87500D02*
Y237500D01*
X662500Y87500D02*
Y240000D01*
X647500Y262500D02*
X667500Y242500D01*
X660000D02*
X662500Y240000D01*
X637500Y257500D02*
X657500Y237500D01*
X637500Y257500D02*
Y304000D01*
X657500Y324000D01*
X642500Y299000D02*
X667500Y324000D01*
X642500Y260000D02*
Y299000D01*
X647500Y262500D02*
Y294000D01*
X677500Y324000D01*
X712500Y239000D02*
Y319000D01*
X707500Y324000D02*
X712500Y319000D01*
X707500Y324000D02*
Y324000D01*
X697500D02*
X707500Y314000D01*
Y238500D02*
Y314000D01*
X642500Y260000D02*
X660000Y242500D01*
X710787Y224724D02*
Y235213D01*
X707500Y238500D02*
X710787Y235213D01*
X717500Y239500D02*
Y324000D01*
Y239500D02*
X742500Y214500D01*
X727500Y237000D02*
Y324000D01*
X687165Y303465D02*
Y319665D01*
X687500Y320000D01*
Y324000D01*
X160000D02*
X316669D01*
X347205Y293465D01*
X246929Y315000D02*
X268465Y293465D01*
X150000Y319500D02*
X154500Y315000D01*
X246929D01*
X150000Y319500D02*
Y324000D01*
X166000Y293500D02*
X175500D01*
X175535Y293465D01*
X140000Y319500D02*
X166000Y293500D01*
X175535Y293465D02*
X189724D01*
X140000Y319500D02*
Y324000D01*
X110984Y293465D02*
Y299984D01*
X130000Y319000D02*
Y324000D01*
X110984Y299984D02*
X130000Y319000D01*
Y234213D02*
Y252500D01*
X35000Y235591D02*
Y290709D01*
X192500Y235571D02*
Y290689D01*
X270000Y236811D02*
Y291929D01*
X350000Y235551D02*
Y290669D01*
X112500Y270000D02*
Y291949D01*
Y270000D02*
X130000Y252500D01*
Y234213D02*
X134606Y229606D01*
Y214724D02*
Y229606D01*
X665000Y270000D02*
Y290630D01*
X677500Y223012D02*
Y257500D01*
X665000Y270000D02*
X677500Y257500D01*
Y223012D02*
X685787Y214724D01*
X110984Y293465D02*
X112500Y291949D01*
X134606Y214724D02*
X137500Y211831D01*
Y140965D02*
Y211831D01*
Y140965D02*
X142480Y135984D01*
X189724Y293465D02*
X192500Y290689D01*
Y235571D02*
X213347Y214724D01*
X215000Y213071D01*
Y142205D02*
Y213071D01*
Y142205D02*
X221220Y135984D01*
X268465Y293465D02*
X270000Y291929D01*
Y236811D02*
X292087Y214724D01*
X295000Y211811D01*
Y140945D02*
Y211811D01*
Y140945D02*
X299961Y135984D01*
X347205Y293465D02*
X350000Y290669D01*
Y235551D02*
X370827Y214724D01*
X372500Y213051D01*
Y142185D02*
Y213051D01*
Y142185D02*
X378701Y135984D01*
X425945Y293465D02*
X427500Y291910D01*
Y236791D02*
Y291910D01*
Y236791D02*
X449567Y214724D01*
X452500Y211791D01*
Y140925D02*
Y211791D01*
Y140925D02*
X457441Y135984D01*
X504685Y293465D02*
X507500Y290650D01*
Y235531D02*
Y290650D01*
Y235531D02*
X528307Y214724D01*
X530000Y213032D01*
Y142165D02*
Y213032D01*
Y142165D02*
X536181Y135984D01*
X583425Y293465D02*
X585000Y291890D01*
Y236772D02*
Y291890D01*
Y236772D02*
X607047Y214724D01*
X610000Y211772D01*
Y140905D02*
Y211772D01*
Y140905D02*
X614921Y135984D01*
X662165Y293465D02*
X665000Y290630D01*
X685787Y214724D02*
X687500Y213012D01*
Y142146D02*
Y213012D01*
Y142146D02*
X693661Y135984D01*
X740906Y293465D02*
X742500Y291870D01*
Y236752D02*
Y291870D01*
Y236752D02*
X764528Y214724D01*
X767500Y211752D01*
Y140886D02*
Y211752D01*
Y140886D02*
X772402Y135984D01*
X775000Y133386D01*
Y75590D02*
Y133386D01*
X756653Y57244D02*
X775000Y75590D01*
X693661Y135984D02*
X695000Y134646D01*
Y74331D02*
Y134646D01*
X677913Y57244D02*
X695000Y74331D01*
X614921Y135984D02*
X617500Y133405D01*
Y75571D02*
Y133405D01*
X599173Y57244D02*
X617500Y75571D01*
X536181Y135984D02*
X537500Y134665D01*
Y74311D02*
Y134665D01*
X520433Y57244D02*
X537500Y74311D01*
X457441Y135984D02*
X460000Y133425D01*
Y75551D02*
Y133425D01*
X441693Y57244D02*
X460000Y75551D01*
X378701Y135984D02*
X380000Y134685D01*
Y74291D02*
Y134685D01*
X362953Y57244D02*
X380000Y74291D01*
X302500Y75532D02*
Y133445D01*
X284213Y57244D02*
X302500Y75532D01*
X221220Y135984D02*
X222500Y134705D01*
Y74272D02*
Y134705D01*
X205472Y57244D02*
X222500Y74272D01*
X142480Y135984D02*
X145000Y133465D01*
Y75512D02*
Y133465D01*
X126732Y57244D02*
X145000Y75512D01*
X63740Y135984D02*
X65000Y134724D01*
Y74252D02*
Y134724D01*
X47992Y57244D02*
X65000Y74252D01*
X55866Y214724D02*
X57500Y213090D01*
Y142224D02*
Y213090D01*
Y142224D02*
X63740Y135984D01*
X32244Y293465D02*
X35000Y290709D01*
Y235591D02*
X55866Y214724D01*
D16*
X15000Y15000D02*
D03*
X822500D02*
D03*
Y267500D02*
D03*
X17000Y227500D02*
D03*
M02*
