M48
; DRILL file {KiCad 9.0.5} date 2026-01-24T20:46:07+0000
; FORMAT={-:-/ absolute / metric / decimal}
; #@! TF.CreationDate,2026-01-24T20:46:07+00:00
; #@! TF.GenerationSoftware,Kicad,Pcbnew,9.0.5
; #@! TF.FileFunction,MixedPlating,1,2
FMAT,2
METRIC
; #@! TA.AperFunction,Plated,PTH,ViaDrill
T1C0.400
; #@! TA.AperFunction,Plated,PTH,ComponentDrill
T2C0.600
; #@! TA.AperFunction,Plated,PTH,ComponentDrill
T3C0.800
; #@! TA.AperFunction,Plated,PTH,ComponentDrill
T4C1.000
%
G90
G05
T1
X115.316Y-104.648
X131.064Y-100.584
X137.414Y-103.886
T2
X117.5Y-95.46
X117.5Y-96.73
X117.5Y-98.0
X138.0Y-109.5
X138.0Y-110.77
X138.0Y-112.04
T3
X117.5Y-101.84
X117.5Y-112.0
X123.84Y-109.5
X125.0Y-98.5
X127.5Y-98.5
X134.0Y-109.5
X136.0Y-98.5
X138.5Y-98.5
T4
X110.49Y-96.52
X110.49Y-105.41
X110.49Y-110.49
M30
