%TF.GenerationSoftware,KiCad,Pcbnew,9.0.5*%
%TF.CreationDate,2026-01-24T20:46:11+00:00*%
%TF.ProjectId,Spectrum 48K Video Mod,53706563-7472-4756-9d20-34384b205669,1.0*%
%TF.SameCoordinates,Original*%
%TF.FileFunction,Legend,Top*%
%TF.FilePolarity,Positive*%
%FSLAX46Y46*%
G04 Gerber Fmt 4.6, Leading zero omitted, Abs format (unit mm)*
G04 Created by KiCad (PCBNEW 9.0.5) date 2026-01-24 20:46:11*
%MOMM*%
%LPD*%
G01*
G04 APERTURE LIST*
%ADD10C,0.200000*%
%ADD11C,0.250000*%
%ADD12C,0.120000*%
G04 APERTURE END LIST*
D10*
X131826000Y-104140000D02*
X131826000Y-91186000D01*
X121158000Y-104140000D02*
X131826000Y-104140000D01*
X121158000Y-114808000D02*
X121158000Y-104140000D01*
X131826000Y-104140000D02*
X142494000Y-104140000D01*
X114046000Y-91694000D02*
X114046000Y-114808000D01*
D11*
X107823333Y-93429619D02*
X108156666Y-94429619D01*
X108156666Y-94429619D02*
X108489999Y-93429619D01*
X108823333Y-94429619D02*
X108823333Y-93762952D01*
X108823333Y-93429619D02*
X108775714Y-93477238D01*
X108775714Y-93477238D02*
X108823333Y-93524857D01*
X108823333Y-93524857D02*
X108870952Y-93477238D01*
X108870952Y-93477238D02*
X108823333Y-93429619D01*
X108823333Y-93429619D02*
X108823333Y-93524857D01*
X109728094Y-94429619D02*
X109728094Y-93429619D01*
X109728094Y-94382000D02*
X109632856Y-94429619D01*
X109632856Y-94429619D02*
X109442380Y-94429619D01*
X109442380Y-94429619D02*
X109347142Y-94382000D01*
X109347142Y-94382000D02*
X109299523Y-94334380D01*
X109299523Y-94334380D02*
X109251904Y-94239142D01*
X109251904Y-94239142D02*
X109251904Y-93953428D01*
X109251904Y-93953428D02*
X109299523Y-93858190D01*
X109299523Y-93858190D02*
X109347142Y-93810571D01*
X109347142Y-93810571D02*
X109442380Y-93762952D01*
X109442380Y-93762952D02*
X109632856Y-93762952D01*
X109632856Y-93762952D02*
X109728094Y-93810571D01*
X109966190Y-94524857D02*
X110728094Y-94524857D01*
X111156666Y-93429619D02*
X111347142Y-93429619D01*
X111347142Y-93429619D02*
X111442380Y-93477238D01*
X111442380Y-93477238D02*
X111537618Y-93572476D01*
X111537618Y-93572476D02*
X111585237Y-93762952D01*
X111585237Y-93762952D02*
X111585237Y-94096285D01*
X111585237Y-94096285D02*
X111537618Y-94286761D01*
X111537618Y-94286761D02*
X111442380Y-94382000D01*
X111442380Y-94382000D02*
X111347142Y-94429619D01*
X111347142Y-94429619D02*
X111156666Y-94429619D01*
X111156666Y-94429619D02*
X111061428Y-94382000D01*
X111061428Y-94382000D02*
X110966190Y-94286761D01*
X110966190Y-94286761D02*
X110918571Y-94096285D01*
X110918571Y-94096285D02*
X110918571Y-93762952D01*
X110918571Y-93762952D02*
X110966190Y-93572476D01*
X110966190Y-93572476D02*
X111061428Y-93477238D01*
X111061428Y-93477238D02*
X111156666Y-93429619D01*
X112442380Y-93762952D02*
X112442380Y-94429619D01*
X112013809Y-93762952D02*
X112013809Y-94286761D01*
X112013809Y-94286761D02*
X112061428Y-94382000D01*
X112061428Y-94382000D02*
X112156666Y-94429619D01*
X112156666Y-94429619D02*
X112299523Y-94429619D01*
X112299523Y-94429619D02*
X112394761Y-94382000D01*
X112394761Y-94382000D02*
X112442380Y-94334380D01*
X112775714Y-93762952D02*
X113156666Y-93762952D01*
X112918571Y-93429619D02*
X112918571Y-94286761D01*
X112918571Y-94286761D02*
X112966190Y-94382000D01*
X112966190Y-94382000D02*
X113061428Y-94429619D01*
X113061428Y-94429619D02*
X113156666Y-94429619D01*
X107878857Y-112844666D02*
X108640762Y-112844666D01*
X108259809Y-113225619D02*
X108259809Y-112463714D01*
X109593142Y-112225619D02*
X109116952Y-112225619D01*
X109116952Y-112225619D02*
X109069333Y-112701809D01*
X109069333Y-112701809D02*
X109116952Y-112654190D01*
X109116952Y-112654190D02*
X109212190Y-112606571D01*
X109212190Y-112606571D02*
X109450285Y-112606571D01*
X109450285Y-112606571D02*
X109545523Y-112654190D01*
X109545523Y-112654190D02*
X109593142Y-112701809D01*
X109593142Y-112701809D02*
X109640761Y-112797047D01*
X109640761Y-112797047D02*
X109640761Y-113035142D01*
X109640761Y-113035142D02*
X109593142Y-113130380D01*
X109593142Y-113130380D02*
X109545523Y-113178000D01*
X109545523Y-113178000D02*
X109450285Y-113225619D01*
X109450285Y-113225619D02*
X109212190Y-113225619D01*
X109212190Y-113225619D02*
X109116952Y-113178000D01*
X109116952Y-113178000D02*
X109069333Y-113130380D01*
X109926476Y-112225619D02*
X110259809Y-113225619D01*
X110259809Y-113225619D02*
X110593142Y-112225619D01*
X111688381Y-113225619D02*
X111688381Y-112225619D01*
X112164571Y-112558952D02*
X112164571Y-113225619D01*
X112164571Y-112654190D02*
X112212190Y-112606571D01*
X112212190Y-112606571D02*
X112307428Y-112558952D01*
X112307428Y-112558952D02*
X112450285Y-112558952D01*
X112450285Y-112558952D02*
X112545523Y-112606571D01*
X112545523Y-112606571D02*
X112593142Y-112701809D01*
X112593142Y-112701809D02*
X112593142Y-113225619D01*
X129500666Y-105113619D02*
X129691142Y-105113619D01*
X129691142Y-105113619D02*
X129786380Y-105161238D01*
X129786380Y-105161238D02*
X129881618Y-105256476D01*
X129881618Y-105256476D02*
X129929237Y-105446952D01*
X129929237Y-105446952D02*
X129929237Y-105780285D01*
X129929237Y-105780285D02*
X129881618Y-105970761D01*
X129881618Y-105970761D02*
X129786380Y-106066000D01*
X129786380Y-106066000D02*
X129691142Y-106113619D01*
X129691142Y-106113619D02*
X129500666Y-106113619D01*
X129500666Y-106113619D02*
X129405428Y-106066000D01*
X129405428Y-106066000D02*
X129310190Y-105970761D01*
X129310190Y-105970761D02*
X129262571Y-105780285D01*
X129262571Y-105780285D02*
X129262571Y-105446952D01*
X129262571Y-105446952D02*
X129310190Y-105256476D01*
X129310190Y-105256476D02*
X129405428Y-105161238D01*
X129405428Y-105161238D02*
X129500666Y-105113619D01*
X130357809Y-105446952D02*
X130357809Y-106446952D01*
X130357809Y-105494571D02*
X130453047Y-105446952D01*
X130453047Y-105446952D02*
X130643523Y-105446952D01*
X130643523Y-105446952D02*
X130738761Y-105494571D01*
X130738761Y-105494571D02*
X130786380Y-105542190D01*
X130786380Y-105542190D02*
X130833999Y-105637428D01*
X130833999Y-105637428D02*
X130833999Y-105923142D01*
X130833999Y-105923142D02*
X130786380Y-106018380D01*
X130786380Y-106018380D02*
X130738761Y-106066000D01*
X130738761Y-106066000D02*
X130643523Y-106113619D01*
X130643523Y-106113619D02*
X130453047Y-106113619D01*
X130453047Y-106113619D02*
X130357809Y-106066000D01*
X131119714Y-105446952D02*
X131500666Y-105446952D01*
X131262571Y-105113619D02*
X131262571Y-105970761D01*
X131262571Y-105970761D02*
X131310190Y-106066000D01*
X131310190Y-106066000D02*
X131405428Y-106113619D01*
X131405428Y-106113619D02*
X131500666Y-106113619D01*
X131834000Y-106113619D02*
X131834000Y-105446952D01*
X131834000Y-105113619D02*
X131786381Y-105161238D01*
X131786381Y-105161238D02*
X131834000Y-105208857D01*
X131834000Y-105208857D02*
X131881619Y-105161238D01*
X131881619Y-105161238D02*
X131834000Y-105113619D01*
X131834000Y-105113619D02*
X131834000Y-105208857D01*
X132453047Y-106113619D02*
X132357809Y-106066000D01*
X132357809Y-106066000D02*
X132310190Y-106018380D01*
X132310190Y-106018380D02*
X132262571Y-105923142D01*
X132262571Y-105923142D02*
X132262571Y-105637428D01*
X132262571Y-105637428D02*
X132310190Y-105542190D01*
X132310190Y-105542190D02*
X132357809Y-105494571D01*
X132357809Y-105494571D02*
X132453047Y-105446952D01*
X132453047Y-105446952D02*
X132595904Y-105446952D01*
X132595904Y-105446952D02*
X132691142Y-105494571D01*
X132691142Y-105494571D02*
X132738761Y-105542190D01*
X132738761Y-105542190D02*
X132786380Y-105637428D01*
X132786380Y-105637428D02*
X132786380Y-105923142D01*
X132786380Y-105923142D02*
X132738761Y-106018380D01*
X132738761Y-106018380D02*
X132691142Y-106066000D01*
X132691142Y-106066000D02*
X132595904Y-106113619D01*
X132595904Y-106113619D02*
X132453047Y-106113619D01*
X133214952Y-105446952D02*
X133214952Y-106113619D01*
X133214952Y-105542190D02*
X133262571Y-105494571D01*
X133262571Y-105494571D02*
X133357809Y-105446952D01*
X133357809Y-105446952D02*
X133500666Y-105446952D01*
X133500666Y-105446952D02*
X133595904Y-105494571D01*
X133595904Y-105494571D02*
X133643523Y-105589809D01*
X133643523Y-105589809D02*
X133643523Y-106113619D01*
X134834000Y-105208857D02*
X134881619Y-105161238D01*
X134881619Y-105161238D02*
X134976857Y-105113619D01*
X134976857Y-105113619D02*
X135214952Y-105113619D01*
X135214952Y-105113619D02*
X135310190Y-105161238D01*
X135310190Y-105161238D02*
X135357809Y-105208857D01*
X135357809Y-105208857D02*
X135405428Y-105304095D01*
X135405428Y-105304095D02*
X135405428Y-105399333D01*
X135405428Y-105399333D02*
X135357809Y-105542190D01*
X135357809Y-105542190D02*
X134786381Y-106113619D01*
X134786381Y-106113619D02*
X135405428Y-106113619D01*
X108394762Y-102065619D02*
X108728095Y-103065619D01*
X108728095Y-103065619D02*
X109061428Y-102065619D01*
X109394762Y-103065619D02*
X109394762Y-102398952D01*
X109394762Y-102065619D02*
X109347143Y-102113238D01*
X109347143Y-102113238D02*
X109394762Y-102160857D01*
X109394762Y-102160857D02*
X109442381Y-102113238D01*
X109442381Y-102113238D02*
X109394762Y-102065619D01*
X109394762Y-102065619D02*
X109394762Y-102160857D01*
X110299523Y-103065619D02*
X110299523Y-102065619D01*
X110299523Y-103018000D02*
X110204285Y-103065619D01*
X110204285Y-103065619D02*
X110013809Y-103065619D01*
X110013809Y-103065619D02*
X109918571Y-103018000D01*
X109918571Y-103018000D02*
X109870952Y-102970380D01*
X109870952Y-102970380D02*
X109823333Y-102875142D01*
X109823333Y-102875142D02*
X109823333Y-102589428D01*
X109823333Y-102589428D02*
X109870952Y-102494190D01*
X109870952Y-102494190D02*
X109918571Y-102446571D01*
X109918571Y-102446571D02*
X110013809Y-102398952D01*
X110013809Y-102398952D02*
X110204285Y-102398952D01*
X110204285Y-102398952D02*
X110299523Y-102446571D01*
X110537619Y-103160857D02*
X111299523Y-103160857D01*
X111537619Y-103065619D02*
X111537619Y-102065619D01*
X112013809Y-102398952D02*
X112013809Y-103065619D01*
X112013809Y-102494190D02*
X112061428Y-102446571D01*
X112061428Y-102446571D02*
X112156666Y-102398952D01*
X112156666Y-102398952D02*
X112299523Y-102398952D01*
X112299523Y-102398952D02*
X112394761Y-102446571D01*
X112394761Y-102446571D02*
X112442380Y-102541809D01*
X112442380Y-102541809D02*
X112442380Y-103065619D01*
X134580666Y-92413619D02*
X134771142Y-92413619D01*
X134771142Y-92413619D02*
X134866380Y-92461238D01*
X134866380Y-92461238D02*
X134961618Y-92556476D01*
X134961618Y-92556476D02*
X135009237Y-92746952D01*
X135009237Y-92746952D02*
X135009237Y-93080285D01*
X135009237Y-93080285D02*
X134961618Y-93270761D01*
X134961618Y-93270761D02*
X134866380Y-93366000D01*
X134866380Y-93366000D02*
X134771142Y-93413619D01*
X134771142Y-93413619D02*
X134580666Y-93413619D01*
X134580666Y-93413619D02*
X134485428Y-93366000D01*
X134485428Y-93366000D02*
X134390190Y-93270761D01*
X134390190Y-93270761D02*
X134342571Y-93080285D01*
X134342571Y-93080285D02*
X134342571Y-92746952D01*
X134342571Y-92746952D02*
X134390190Y-92556476D01*
X134390190Y-92556476D02*
X134485428Y-92461238D01*
X134485428Y-92461238D02*
X134580666Y-92413619D01*
X135437809Y-92746952D02*
X135437809Y-93746952D01*
X135437809Y-92794571D02*
X135533047Y-92746952D01*
X135533047Y-92746952D02*
X135723523Y-92746952D01*
X135723523Y-92746952D02*
X135818761Y-92794571D01*
X135818761Y-92794571D02*
X135866380Y-92842190D01*
X135866380Y-92842190D02*
X135913999Y-92937428D01*
X135913999Y-92937428D02*
X135913999Y-93223142D01*
X135913999Y-93223142D02*
X135866380Y-93318380D01*
X135866380Y-93318380D02*
X135818761Y-93366000D01*
X135818761Y-93366000D02*
X135723523Y-93413619D01*
X135723523Y-93413619D02*
X135533047Y-93413619D01*
X135533047Y-93413619D02*
X135437809Y-93366000D01*
X136199714Y-92746952D02*
X136580666Y-92746952D01*
X136342571Y-92413619D02*
X136342571Y-93270761D01*
X136342571Y-93270761D02*
X136390190Y-93366000D01*
X136390190Y-93366000D02*
X136485428Y-93413619D01*
X136485428Y-93413619D02*
X136580666Y-93413619D01*
X136914000Y-93413619D02*
X136914000Y-92746952D01*
X136914000Y-92413619D02*
X136866381Y-92461238D01*
X136866381Y-92461238D02*
X136914000Y-92508857D01*
X136914000Y-92508857D02*
X136961619Y-92461238D01*
X136961619Y-92461238D02*
X136914000Y-92413619D01*
X136914000Y-92413619D02*
X136914000Y-92508857D01*
X137533047Y-93413619D02*
X137437809Y-93366000D01*
X137437809Y-93366000D02*
X137390190Y-93318380D01*
X137390190Y-93318380D02*
X137342571Y-93223142D01*
X137342571Y-93223142D02*
X137342571Y-92937428D01*
X137342571Y-92937428D02*
X137390190Y-92842190D01*
X137390190Y-92842190D02*
X137437809Y-92794571D01*
X137437809Y-92794571D02*
X137533047Y-92746952D01*
X137533047Y-92746952D02*
X137675904Y-92746952D01*
X137675904Y-92746952D02*
X137771142Y-92794571D01*
X137771142Y-92794571D02*
X137818761Y-92842190D01*
X137818761Y-92842190D02*
X137866380Y-92937428D01*
X137866380Y-92937428D02*
X137866380Y-93223142D01*
X137866380Y-93223142D02*
X137818761Y-93318380D01*
X137818761Y-93318380D02*
X137771142Y-93366000D01*
X137771142Y-93366000D02*
X137675904Y-93413619D01*
X137675904Y-93413619D02*
X137533047Y-93413619D01*
X138294952Y-92746952D02*
X138294952Y-93413619D01*
X138294952Y-92842190D02*
X138342571Y-92794571D01*
X138342571Y-92794571D02*
X138437809Y-92746952D01*
X138437809Y-92746952D02*
X138580666Y-92746952D01*
X138580666Y-92746952D02*
X138675904Y-92794571D01*
X138675904Y-92794571D02*
X138723523Y-92889809D01*
X138723523Y-92889809D02*
X138723523Y-93413619D01*
X139866381Y-92413619D02*
X140485428Y-92413619D01*
X140485428Y-92413619D02*
X140152095Y-92794571D01*
X140152095Y-92794571D02*
X140294952Y-92794571D01*
X140294952Y-92794571D02*
X140390190Y-92842190D01*
X140390190Y-92842190D02*
X140437809Y-92889809D01*
X140437809Y-92889809D02*
X140485428Y-92985047D01*
X140485428Y-92985047D02*
X140485428Y-93223142D01*
X140485428Y-93223142D02*
X140437809Y-93318380D01*
X140437809Y-93318380D02*
X140390190Y-93366000D01*
X140390190Y-93366000D02*
X140294952Y-93413619D01*
X140294952Y-93413619D02*
X140009238Y-93413619D01*
X140009238Y-93413619D02*
X139914000Y-93366000D01*
X139914000Y-93366000D02*
X139866381Y-93318380D01*
X119848666Y-92413619D02*
X120039142Y-92413619D01*
X120039142Y-92413619D02*
X120134380Y-92461238D01*
X120134380Y-92461238D02*
X120229618Y-92556476D01*
X120229618Y-92556476D02*
X120277237Y-92746952D01*
X120277237Y-92746952D02*
X120277237Y-93080285D01*
X120277237Y-93080285D02*
X120229618Y-93270761D01*
X120229618Y-93270761D02*
X120134380Y-93366000D01*
X120134380Y-93366000D02*
X120039142Y-93413619D01*
X120039142Y-93413619D02*
X119848666Y-93413619D01*
X119848666Y-93413619D02*
X119753428Y-93366000D01*
X119753428Y-93366000D02*
X119658190Y-93270761D01*
X119658190Y-93270761D02*
X119610571Y-93080285D01*
X119610571Y-93080285D02*
X119610571Y-92746952D01*
X119610571Y-92746952D02*
X119658190Y-92556476D01*
X119658190Y-92556476D02*
X119753428Y-92461238D01*
X119753428Y-92461238D02*
X119848666Y-92413619D01*
X120705809Y-92746952D02*
X120705809Y-93746952D01*
X120705809Y-92794571D02*
X120801047Y-92746952D01*
X120801047Y-92746952D02*
X120991523Y-92746952D01*
X120991523Y-92746952D02*
X121086761Y-92794571D01*
X121086761Y-92794571D02*
X121134380Y-92842190D01*
X121134380Y-92842190D02*
X121181999Y-92937428D01*
X121181999Y-92937428D02*
X121181999Y-93223142D01*
X121181999Y-93223142D02*
X121134380Y-93318380D01*
X121134380Y-93318380D02*
X121086761Y-93366000D01*
X121086761Y-93366000D02*
X120991523Y-93413619D01*
X120991523Y-93413619D02*
X120801047Y-93413619D01*
X120801047Y-93413619D02*
X120705809Y-93366000D01*
X121467714Y-92746952D02*
X121848666Y-92746952D01*
X121610571Y-92413619D02*
X121610571Y-93270761D01*
X121610571Y-93270761D02*
X121658190Y-93366000D01*
X121658190Y-93366000D02*
X121753428Y-93413619D01*
X121753428Y-93413619D02*
X121848666Y-93413619D01*
X122182000Y-93413619D02*
X122182000Y-92746952D01*
X122182000Y-92413619D02*
X122134381Y-92461238D01*
X122134381Y-92461238D02*
X122182000Y-92508857D01*
X122182000Y-92508857D02*
X122229619Y-92461238D01*
X122229619Y-92461238D02*
X122182000Y-92413619D01*
X122182000Y-92413619D02*
X122182000Y-92508857D01*
X122801047Y-93413619D02*
X122705809Y-93366000D01*
X122705809Y-93366000D02*
X122658190Y-93318380D01*
X122658190Y-93318380D02*
X122610571Y-93223142D01*
X122610571Y-93223142D02*
X122610571Y-92937428D01*
X122610571Y-92937428D02*
X122658190Y-92842190D01*
X122658190Y-92842190D02*
X122705809Y-92794571D01*
X122705809Y-92794571D02*
X122801047Y-92746952D01*
X122801047Y-92746952D02*
X122943904Y-92746952D01*
X122943904Y-92746952D02*
X123039142Y-92794571D01*
X123039142Y-92794571D02*
X123086761Y-92842190D01*
X123086761Y-92842190D02*
X123134380Y-92937428D01*
X123134380Y-92937428D02*
X123134380Y-93223142D01*
X123134380Y-93223142D02*
X123086761Y-93318380D01*
X123086761Y-93318380D02*
X123039142Y-93366000D01*
X123039142Y-93366000D02*
X122943904Y-93413619D01*
X122943904Y-93413619D02*
X122801047Y-93413619D01*
X123562952Y-92746952D02*
X123562952Y-93413619D01*
X123562952Y-92842190D02*
X123610571Y-92794571D01*
X123610571Y-92794571D02*
X123705809Y-92746952D01*
X123705809Y-92746952D02*
X123848666Y-92746952D01*
X123848666Y-92746952D02*
X123943904Y-92794571D01*
X123943904Y-92794571D02*
X123991523Y-92889809D01*
X123991523Y-92889809D02*
X123991523Y-93413619D01*
X125753428Y-93413619D02*
X125182000Y-93413619D01*
X125467714Y-93413619D02*
X125467714Y-92413619D01*
X125467714Y-92413619D02*
X125372476Y-92556476D01*
X125372476Y-92556476D02*
X125277238Y-92651714D01*
X125277238Y-92651714D02*
X125182000Y-92699333D01*
X126071333Y-103478380D02*
X126023714Y-103526000D01*
X126023714Y-103526000D02*
X125880857Y-103573619D01*
X125880857Y-103573619D02*
X125785619Y-103573619D01*
X125785619Y-103573619D02*
X125642762Y-103526000D01*
X125642762Y-103526000D02*
X125547524Y-103430761D01*
X125547524Y-103430761D02*
X125499905Y-103335523D01*
X125499905Y-103335523D02*
X125452286Y-103145047D01*
X125452286Y-103145047D02*
X125452286Y-103002190D01*
X125452286Y-103002190D02*
X125499905Y-102811714D01*
X125499905Y-102811714D02*
X125547524Y-102716476D01*
X125547524Y-102716476D02*
X125642762Y-102621238D01*
X125642762Y-102621238D02*
X125785619Y-102573619D01*
X125785619Y-102573619D02*
X125880857Y-102573619D01*
X125880857Y-102573619D02*
X126023714Y-102621238D01*
X126023714Y-102621238D02*
X126071333Y-102668857D01*
X127023714Y-103573619D02*
X126452286Y-103573619D01*
X126738000Y-103573619D02*
X126738000Y-102573619D01*
X126738000Y-102573619D02*
X126642762Y-102716476D01*
X126642762Y-102716476D02*
X126547524Y-102811714D01*
X126547524Y-102811714D02*
X126452286Y-102859333D01*
X137247333Y-103478380D02*
X137199714Y-103526000D01*
X137199714Y-103526000D02*
X137056857Y-103573619D01*
X137056857Y-103573619D02*
X136961619Y-103573619D01*
X136961619Y-103573619D02*
X136818762Y-103526000D01*
X136818762Y-103526000D02*
X136723524Y-103430761D01*
X136723524Y-103430761D02*
X136675905Y-103335523D01*
X136675905Y-103335523D02*
X136628286Y-103145047D01*
X136628286Y-103145047D02*
X136628286Y-103002190D01*
X136628286Y-103002190D02*
X136675905Y-102811714D01*
X136675905Y-102811714D02*
X136723524Y-102716476D01*
X136723524Y-102716476D02*
X136818762Y-102621238D01*
X136818762Y-102621238D02*
X136961619Y-102573619D01*
X136961619Y-102573619D02*
X137056857Y-102573619D01*
X137056857Y-102573619D02*
X137199714Y-102621238D01*
X137199714Y-102621238D02*
X137247333Y-102668857D01*
X137628286Y-102668857D02*
X137675905Y-102621238D01*
X137675905Y-102621238D02*
X137771143Y-102573619D01*
X137771143Y-102573619D02*
X138009238Y-102573619D01*
X138009238Y-102573619D02*
X138104476Y-102621238D01*
X138104476Y-102621238D02*
X138152095Y-102668857D01*
X138152095Y-102668857D02*
X138199714Y-102764095D01*
X138199714Y-102764095D02*
X138199714Y-102859333D01*
X138199714Y-102859333D02*
X138152095Y-103002190D01*
X138152095Y-103002190D02*
X137580667Y-103573619D01*
X137580667Y-103573619D02*
X138199714Y-103573619D01*
X107211905Y-110939619D02*
X107211905Y-109939619D01*
X107211905Y-109939619D02*
X107592857Y-109939619D01*
X107592857Y-109939619D02*
X107688095Y-109987238D01*
X107688095Y-109987238D02*
X107735714Y-110034857D01*
X107735714Y-110034857D02*
X107783333Y-110130095D01*
X107783333Y-110130095D02*
X107783333Y-110272952D01*
X107783333Y-110272952D02*
X107735714Y-110368190D01*
X107735714Y-110368190D02*
X107688095Y-110415809D01*
X107688095Y-110415809D02*
X107592857Y-110463428D01*
X107592857Y-110463428D02*
X107211905Y-110463428D01*
X108735714Y-110939619D02*
X108164286Y-110939619D01*
X108450000Y-110939619D02*
X108450000Y-109939619D01*
X108450000Y-109939619D02*
X108354762Y-110082476D01*
X108354762Y-110082476D02*
X108259524Y-110177714D01*
X108259524Y-110177714D02*
X108164286Y-110225333D01*
X107211905Y-105859619D02*
X107211905Y-104859619D01*
X107211905Y-104859619D02*
X107592857Y-104859619D01*
X107592857Y-104859619D02*
X107688095Y-104907238D01*
X107688095Y-104907238D02*
X107735714Y-104954857D01*
X107735714Y-104954857D02*
X107783333Y-105050095D01*
X107783333Y-105050095D02*
X107783333Y-105192952D01*
X107783333Y-105192952D02*
X107735714Y-105288190D01*
X107735714Y-105288190D02*
X107688095Y-105335809D01*
X107688095Y-105335809D02*
X107592857Y-105383428D01*
X107592857Y-105383428D02*
X107211905Y-105383428D01*
X108164286Y-104954857D02*
X108211905Y-104907238D01*
X108211905Y-104907238D02*
X108307143Y-104859619D01*
X108307143Y-104859619D02*
X108545238Y-104859619D01*
X108545238Y-104859619D02*
X108640476Y-104907238D01*
X108640476Y-104907238D02*
X108688095Y-104954857D01*
X108688095Y-104954857D02*
X108735714Y-105050095D01*
X108735714Y-105050095D02*
X108735714Y-105145333D01*
X108735714Y-105145333D02*
X108688095Y-105288190D01*
X108688095Y-105288190D02*
X108116667Y-105859619D01*
X108116667Y-105859619D02*
X108735714Y-105859619D01*
X107211905Y-97223619D02*
X107211905Y-96223619D01*
X107211905Y-96223619D02*
X107592857Y-96223619D01*
X107592857Y-96223619D02*
X107688095Y-96271238D01*
X107688095Y-96271238D02*
X107735714Y-96318857D01*
X107735714Y-96318857D02*
X107783333Y-96414095D01*
X107783333Y-96414095D02*
X107783333Y-96556952D01*
X107783333Y-96556952D02*
X107735714Y-96652190D01*
X107735714Y-96652190D02*
X107688095Y-96699809D01*
X107688095Y-96699809D02*
X107592857Y-96747428D01*
X107592857Y-96747428D02*
X107211905Y-96747428D01*
X108116667Y-96223619D02*
X108735714Y-96223619D01*
X108735714Y-96223619D02*
X108402381Y-96604571D01*
X108402381Y-96604571D02*
X108545238Y-96604571D01*
X108545238Y-96604571D02*
X108640476Y-96652190D01*
X108640476Y-96652190D02*
X108688095Y-96699809D01*
X108688095Y-96699809D02*
X108735714Y-96795047D01*
X108735714Y-96795047D02*
X108735714Y-97033142D01*
X108735714Y-97033142D02*
X108688095Y-97128380D01*
X108688095Y-97128380D02*
X108640476Y-97176000D01*
X108640476Y-97176000D02*
X108545238Y-97223619D01*
X108545238Y-97223619D02*
X108259524Y-97223619D01*
X108259524Y-97223619D02*
X108164286Y-97176000D01*
X108164286Y-97176000D02*
X108116667Y-97128380D01*
X117252761Y-93762857D02*
X117157523Y-93715238D01*
X117157523Y-93715238D02*
X117062285Y-93620000D01*
X117062285Y-93620000D02*
X116919428Y-93477142D01*
X116919428Y-93477142D02*
X116824190Y-93429523D01*
X116824190Y-93429523D02*
X116728952Y-93429523D01*
X116776571Y-93667619D02*
X116681333Y-93620000D01*
X116681333Y-93620000D02*
X116586095Y-93524761D01*
X116586095Y-93524761D02*
X116538476Y-93334285D01*
X116538476Y-93334285D02*
X116538476Y-93000952D01*
X116538476Y-93000952D02*
X116586095Y-92810476D01*
X116586095Y-92810476D02*
X116681333Y-92715238D01*
X116681333Y-92715238D02*
X116776571Y-92667619D01*
X116776571Y-92667619D02*
X116967047Y-92667619D01*
X116967047Y-92667619D02*
X117062285Y-92715238D01*
X117062285Y-92715238D02*
X117157523Y-92810476D01*
X117157523Y-92810476D02*
X117205142Y-93000952D01*
X117205142Y-93000952D02*
X117205142Y-93334285D01*
X117205142Y-93334285D02*
X117157523Y-93524761D01*
X117157523Y-93524761D02*
X117062285Y-93620000D01*
X117062285Y-93620000D02*
X116967047Y-93667619D01*
X116967047Y-93667619D02*
X116776571Y-93667619D01*
X118157523Y-93667619D02*
X117586095Y-93667619D01*
X117871809Y-93667619D02*
X117871809Y-92667619D01*
X117871809Y-92667619D02*
X117776571Y-92810476D01*
X117776571Y-92810476D02*
X117681333Y-92905714D01*
X117681333Y-92905714D02*
X117586095Y-92953333D01*
X138080761Y-107732857D02*
X137985523Y-107685238D01*
X137985523Y-107685238D02*
X137890285Y-107590000D01*
X137890285Y-107590000D02*
X137747428Y-107447142D01*
X137747428Y-107447142D02*
X137652190Y-107399523D01*
X137652190Y-107399523D02*
X137556952Y-107399523D01*
X137604571Y-107637619D02*
X137509333Y-107590000D01*
X137509333Y-107590000D02*
X137414095Y-107494761D01*
X137414095Y-107494761D02*
X137366476Y-107304285D01*
X137366476Y-107304285D02*
X137366476Y-106970952D01*
X137366476Y-106970952D02*
X137414095Y-106780476D01*
X137414095Y-106780476D02*
X137509333Y-106685238D01*
X137509333Y-106685238D02*
X137604571Y-106637619D01*
X137604571Y-106637619D02*
X137795047Y-106637619D01*
X137795047Y-106637619D02*
X137890285Y-106685238D01*
X137890285Y-106685238D02*
X137985523Y-106780476D01*
X137985523Y-106780476D02*
X138033142Y-106970952D01*
X138033142Y-106970952D02*
X138033142Y-107304285D01*
X138033142Y-107304285D02*
X137985523Y-107494761D01*
X137985523Y-107494761D02*
X137890285Y-107590000D01*
X137890285Y-107590000D02*
X137795047Y-107637619D01*
X137795047Y-107637619D02*
X137604571Y-107637619D01*
X138414095Y-106732857D02*
X138461714Y-106685238D01*
X138461714Y-106685238D02*
X138556952Y-106637619D01*
X138556952Y-106637619D02*
X138795047Y-106637619D01*
X138795047Y-106637619D02*
X138890285Y-106685238D01*
X138890285Y-106685238D02*
X138937904Y-106732857D01*
X138937904Y-106732857D02*
X138985523Y-106828095D01*
X138985523Y-106828095D02*
X138985523Y-106923333D01*
X138985523Y-106923333D02*
X138937904Y-107066190D01*
X138937904Y-107066190D02*
X138366476Y-107637619D01*
X138366476Y-107637619D02*
X138985523Y-107637619D01*
X118051619Y-106846666D02*
X117575428Y-107179999D01*
X118051619Y-107418094D02*
X117051619Y-107418094D01*
X117051619Y-107418094D02*
X117051619Y-107037142D01*
X117051619Y-107037142D02*
X117099238Y-106941904D01*
X117099238Y-106941904D02*
X117146857Y-106894285D01*
X117146857Y-106894285D02*
X117242095Y-106846666D01*
X117242095Y-106846666D02*
X117384952Y-106846666D01*
X117384952Y-106846666D02*
X117480190Y-106894285D01*
X117480190Y-106894285D02*
X117527809Y-106941904D01*
X117527809Y-106941904D02*
X117575428Y-107037142D01*
X117575428Y-107037142D02*
X117575428Y-107418094D01*
X118051619Y-105894285D02*
X118051619Y-106465713D01*
X118051619Y-106179999D02*
X117051619Y-106179999D01*
X117051619Y-106179999D02*
X117194476Y-106275237D01*
X117194476Y-106275237D02*
X117289714Y-106370475D01*
X117289714Y-106370475D02*
X117337333Y-106465713D01*
X128865333Y-109923619D02*
X128532000Y-109447428D01*
X128293905Y-109923619D02*
X128293905Y-108923619D01*
X128293905Y-108923619D02*
X128674857Y-108923619D01*
X128674857Y-108923619D02*
X128770095Y-108971238D01*
X128770095Y-108971238D02*
X128817714Y-109018857D01*
X128817714Y-109018857D02*
X128865333Y-109114095D01*
X128865333Y-109114095D02*
X128865333Y-109256952D01*
X128865333Y-109256952D02*
X128817714Y-109352190D01*
X128817714Y-109352190D02*
X128770095Y-109399809D01*
X128770095Y-109399809D02*
X128674857Y-109447428D01*
X128674857Y-109447428D02*
X128293905Y-109447428D01*
X129246286Y-109018857D02*
X129293905Y-108971238D01*
X129293905Y-108971238D02*
X129389143Y-108923619D01*
X129389143Y-108923619D02*
X129627238Y-108923619D01*
X129627238Y-108923619D02*
X129722476Y-108971238D01*
X129722476Y-108971238D02*
X129770095Y-109018857D01*
X129770095Y-109018857D02*
X129817714Y-109114095D01*
X129817714Y-109114095D02*
X129817714Y-109209333D01*
X129817714Y-109209333D02*
X129770095Y-109352190D01*
X129770095Y-109352190D02*
X129198667Y-109923619D01*
X129198667Y-109923619D02*
X129817714Y-109923619D01*
D12*
%TO.C,C1*%
X122800000Y-98500000D02*
X124000000Y-98500000D01*
X123400000Y-97850000D02*
X123400000Y-99150000D01*
X126250000Y-94700000D02*
X126250000Y-102300000D01*
X126290000Y-94700000D02*
X126290000Y-102300000D01*
X126330000Y-94700000D02*
X126330000Y-102300000D01*
X126370000Y-94701000D02*
X126370000Y-102299000D01*
X126410000Y-94703000D02*
X126410000Y-102297000D01*
X126450000Y-94705000D02*
X126450000Y-102295000D01*
X126490000Y-94707000D02*
X126490000Y-102293000D01*
X126530000Y-94710000D02*
X126530000Y-97520000D01*
X126530000Y-99480000D02*
X126530000Y-102290000D01*
X126570000Y-94713000D02*
X126570000Y-97520000D01*
X126570000Y-99480000D02*
X126570000Y-102287000D01*
X126610000Y-94716000D02*
X126610000Y-97520000D01*
X126610000Y-99480000D02*
X126610000Y-102284000D01*
X126650000Y-94720000D02*
X126650000Y-97520000D01*
X126650000Y-99480000D02*
X126650000Y-102280000D01*
X126690000Y-94725000D02*
X126690000Y-97520000D01*
X126690000Y-99480000D02*
X126690000Y-102275000D01*
X126730000Y-94730000D02*
X126730000Y-97520000D01*
X126730000Y-99480000D02*
X126730000Y-102270000D01*
X126770000Y-94735000D02*
X126770000Y-97520000D01*
X126770000Y-99480000D02*
X126770000Y-102265000D01*
X126810000Y-94741000D02*
X126810000Y-97520000D01*
X126810000Y-99480000D02*
X126810000Y-102259000D01*
X126850000Y-94747000D02*
X126850000Y-97520000D01*
X126850000Y-99480000D02*
X126850000Y-102253000D01*
X126890000Y-94753000D02*
X126890000Y-97520000D01*
X126890000Y-99480000D02*
X126890000Y-102247000D01*
X126930000Y-94760000D02*
X126930000Y-97520000D01*
X126930000Y-99480000D02*
X126930000Y-102240000D01*
X126971000Y-94768000D02*
X126971000Y-97520000D01*
X126971000Y-99480000D02*
X126971000Y-102232000D01*
X127011000Y-94775000D02*
X127011000Y-97520000D01*
X127011000Y-99480000D02*
X127011000Y-102225000D01*
X127051000Y-94784000D02*
X127051000Y-97520000D01*
X127051000Y-99480000D02*
X127051000Y-102216000D01*
X127091000Y-94793000D02*
X127091000Y-97520000D01*
X127091000Y-99480000D02*
X127091000Y-102207000D01*
X127131000Y-94802000D02*
X127131000Y-97520000D01*
X127131000Y-99480000D02*
X127131000Y-102198000D01*
X127171000Y-94811000D02*
X127171000Y-97520000D01*
X127171000Y-99480000D02*
X127171000Y-102189000D01*
X127211000Y-94821000D02*
X127211000Y-97520000D01*
X127211000Y-99480000D02*
X127211000Y-102179000D01*
X127251000Y-94832000D02*
X127251000Y-97520000D01*
X127251000Y-99480000D02*
X127251000Y-102168000D01*
X127291000Y-94843000D02*
X127291000Y-97520000D01*
X127291000Y-99480000D02*
X127291000Y-102157000D01*
X127331000Y-94855000D02*
X127331000Y-97520000D01*
X127331000Y-99480000D02*
X127331000Y-102145000D01*
X127371000Y-94866000D02*
X127371000Y-97520000D01*
X127371000Y-99480000D02*
X127371000Y-102134000D01*
X127411000Y-94879000D02*
X127411000Y-97520000D01*
X127411000Y-99480000D02*
X127411000Y-102121000D01*
X127451000Y-94892000D02*
X127451000Y-97520000D01*
X127451000Y-99480000D02*
X127451000Y-102108000D01*
X127491000Y-94905000D02*
X127491000Y-97520000D01*
X127491000Y-99480000D02*
X127491000Y-102095000D01*
X127531000Y-94919000D02*
X127531000Y-97520000D01*
X127531000Y-99480000D02*
X127531000Y-102081000D01*
X127571000Y-94934000D02*
X127571000Y-97520000D01*
X127571000Y-99480000D02*
X127571000Y-102066000D01*
X127611000Y-94948000D02*
X127611000Y-97520000D01*
X127611000Y-99480000D02*
X127611000Y-102052000D01*
X127651000Y-94964000D02*
X127651000Y-97520000D01*
X127651000Y-99480000D02*
X127651000Y-102036000D01*
X127691000Y-94980000D02*
X127691000Y-97520000D01*
X127691000Y-99480000D02*
X127691000Y-102020000D01*
X127731000Y-94996000D02*
X127731000Y-97520000D01*
X127731000Y-99480000D02*
X127731000Y-102004000D01*
X127771000Y-95013000D02*
X127771000Y-97520000D01*
X127771000Y-99480000D02*
X127771000Y-101987000D01*
X127811000Y-95031000D02*
X127811000Y-97520000D01*
X127811000Y-99480000D02*
X127811000Y-101969000D01*
X127851000Y-95049000D02*
X127851000Y-97520000D01*
X127851000Y-99480000D02*
X127851000Y-101951000D01*
X127891000Y-95067000D02*
X127891000Y-97520000D01*
X127891000Y-99480000D02*
X127891000Y-101933000D01*
X127931000Y-95087000D02*
X127931000Y-97520000D01*
X127931000Y-99480000D02*
X127931000Y-101913000D01*
X127971000Y-95106000D02*
X127971000Y-97520000D01*
X127971000Y-99480000D02*
X127971000Y-101894000D01*
X128011000Y-95127000D02*
X128011000Y-97520000D01*
X128011000Y-99480000D02*
X128011000Y-101873000D01*
X128051000Y-95148000D02*
X128051000Y-97520000D01*
X128051000Y-99480000D02*
X128051000Y-101852000D01*
X128091000Y-95169000D02*
X128091000Y-97520000D01*
X128091000Y-99480000D02*
X128091000Y-101831000D01*
X128131000Y-95191000D02*
X128131000Y-97520000D01*
X128131000Y-99480000D02*
X128131000Y-101809000D01*
X128171000Y-95214000D02*
X128171000Y-97520000D01*
X128171000Y-99480000D02*
X128171000Y-101786000D01*
X128211000Y-95237000D02*
X128211000Y-97520000D01*
X128211000Y-99480000D02*
X128211000Y-101763000D01*
X128251000Y-95261000D02*
X128251000Y-97520000D01*
X128251000Y-99480000D02*
X128251000Y-101739000D01*
X128291000Y-95286000D02*
X128291000Y-97520000D01*
X128291000Y-99480000D02*
X128291000Y-101714000D01*
X128331000Y-95312000D02*
X128331000Y-97520000D01*
X128331000Y-99480000D02*
X128331000Y-101688000D01*
X128371000Y-95338000D02*
X128371000Y-97520000D01*
X128371000Y-99480000D02*
X128371000Y-101662000D01*
X128411000Y-95365000D02*
X128411000Y-97520000D01*
X128411000Y-99480000D02*
X128411000Y-101635000D01*
X128451000Y-95392000D02*
X128451000Y-97520000D01*
X128451000Y-99480000D02*
X128451000Y-101608000D01*
X128491000Y-95421000D02*
X128491000Y-101579000D01*
X128531000Y-95450000D02*
X128531000Y-101550000D01*
X128571000Y-95480000D02*
X128571000Y-101520000D01*
X128611000Y-95510000D02*
X128611000Y-101490000D01*
X128651000Y-95542000D02*
X128651000Y-101458000D01*
X128691000Y-95574000D02*
X128691000Y-101426000D01*
X128731000Y-95608000D02*
X128731000Y-101392000D01*
X128771000Y-95642000D02*
X128771000Y-101358000D01*
X128811000Y-95677000D02*
X128811000Y-101323000D01*
X128851000Y-95714000D02*
X128851000Y-101286000D01*
X128891000Y-95751000D02*
X128891000Y-101249000D01*
X128931000Y-95789000D02*
X128931000Y-101211000D01*
X128971000Y-95829000D02*
X128971000Y-101171000D01*
X129011000Y-95870000D02*
X129011000Y-101130000D01*
X129051000Y-95912000D02*
X129051000Y-101088000D01*
X129091000Y-95955000D02*
X129091000Y-101045000D01*
X129131000Y-96000000D02*
X129131000Y-101000000D01*
X129171000Y-96046000D02*
X129171000Y-100954000D01*
X129211000Y-96093000D02*
X129211000Y-100907000D01*
X129251000Y-96143000D02*
X129251000Y-100857000D01*
X129291000Y-96193000D02*
X129291000Y-100807000D01*
X129331000Y-96246000D02*
X129331000Y-100754000D01*
X129371000Y-96301000D02*
X129371000Y-100699000D01*
X129411000Y-96358000D02*
X129411000Y-100642000D01*
X129451000Y-96417000D02*
X129451000Y-100583000D01*
X129491000Y-96478000D02*
X129491000Y-100522000D01*
X129531000Y-96543000D02*
X129531000Y-100457000D01*
X129571000Y-96610000D02*
X129571000Y-100390000D01*
X129611000Y-96680000D02*
X129611000Y-100320000D01*
X129651000Y-96755000D02*
X129651000Y-100245000D01*
X129691000Y-96833000D02*
X129691000Y-100167000D01*
X129731000Y-96916000D02*
X129731000Y-100084000D01*
X129771000Y-97005000D02*
X129771000Y-99995000D01*
X129811000Y-97100000D02*
X129811000Y-99900000D01*
X129851000Y-97203000D02*
X129851000Y-99797000D01*
X129891000Y-97316000D02*
X129891000Y-99684000D01*
X129931000Y-97443000D02*
X129931000Y-99557000D01*
X129971000Y-97587000D02*
X129971000Y-99413000D01*
X130011000Y-97760000D02*
X130011000Y-99240000D01*
X130051000Y-97987000D02*
X130051000Y-99013000D01*
X130090000Y-98500000D02*
G75*
G02*
X122410000Y-98500000I-3840000J0D01*
G01*
X122410000Y-98500000D02*
G75*
G02*
X130090000Y-98500000I3840000J0D01*
G01*
%TO.C,C2*%
X133800000Y-98500000D02*
X135000000Y-98500000D01*
X134400000Y-97850000D02*
X134400000Y-99150000D01*
X137250000Y-94700000D02*
X137250000Y-102300000D01*
X137290000Y-94700000D02*
X137290000Y-102300000D01*
X137330000Y-94700000D02*
X137330000Y-102300000D01*
X137370000Y-94701000D02*
X137370000Y-102299000D01*
X137410000Y-94703000D02*
X137410000Y-102297000D01*
X137450000Y-94705000D02*
X137450000Y-102295000D01*
X137490000Y-94707000D02*
X137490000Y-102293000D01*
X137530000Y-94710000D02*
X137530000Y-97520000D01*
X137530000Y-99480000D02*
X137530000Y-102290000D01*
X137570000Y-94713000D02*
X137570000Y-97520000D01*
X137570000Y-99480000D02*
X137570000Y-102287000D01*
X137610000Y-94716000D02*
X137610000Y-97520000D01*
X137610000Y-99480000D02*
X137610000Y-102284000D01*
X137650000Y-94720000D02*
X137650000Y-97520000D01*
X137650000Y-99480000D02*
X137650000Y-102280000D01*
X137690000Y-94725000D02*
X137690000Y-97520000D01*
X137690000Y-99480000D02*
X137690000Y-102275000D01*
X137730000Y-94730000D02*
X137730000Y-97520000D01*
X137730000Y-99480000D02*
X137730000Y-102270000D01*
X137770000Y-94735000D02*
X137770000Y-97520000D01*
X137770000Y-99480000D02*
X137770000Y-102265000D01*
X137810000Y-94741000D02*
X137810000Y-97520000D01*
X137810000Y-99480000D02*
X137810000Y-102259000D01*
X137850000Y-94747000D02*
X137850000Y-97520000D01*
X137850000Y-99480000D02*
X137850000Y-102253000D01*
X137890000Y-94753000D02*
X137890000Y-97520000D01*
X137890000Y-99480000D02*
X137890000Y-102247000D01*
X137930000Y-94760000D02*
X137930000Y-97520000D01*
X137930000Y-99480000D02*
X137930000Y-102240000D01*
X137971000Y-94768000D02*
X137971000Y-97520000D01*
X137971000Y-99480000D02*
X137971000Y-102232000D01*
X138011000Y-94775000D02*
X138011000Y-97520000D01*
X138011000Y-99480000D02*
X138011000Y-102225000D01*
X138051000Y-94784000D02*
X138051000Y-97520000D01*
X138051000Y-99480000D02*
X138051000Y-102216000D01*
X138091000Y-94793000D02*
X138091000Y-97520000D01*
X138091000Y-99480000D02*
X138091000Y-102207000D01*
X138131000Y-94802000D02*
X138131000Y-97520000D01*
X138131000Y-99480000D02*
X138131000Y-102198000D01*
X138171000Y-94811000D02*
X138171000Y-97520000D01*
X138171000Y-99480000D02*
X138171000Y-102189000D01*
X138211000Y-94821000D02*
X138211000Y-97520000D01*
X138211000Y-99480000D02*
X138211000Y-102179000D01*
X138251000Y-94832000D02*
X138251000Y-97520000D01*
X138251000Y-99480000D02*
X138251000Y-102168000D01*
X138291000Y-94843000D02*
X138291000Y-97520000D01*
X138291000Y-99480000D02*
X138291000Y-102157000D01*
X138331000Y-94855000D02*
X138331000Y-97520000D01*
X138331000Y-99480000D02*
X138331000Y-102145000D01*
X138371000Y-94866000D02*
X138371000Y-97520000D01*
X138371000Y-99480000D02*
X138371000Y-102134000D01*
X138411000Y-94879000D02*
X138411000Y-97520000D01*
X138411000Y-99480000D02*
X138411000Y-102121000D01*
X138451000Y-94892000D02*
X138451000Y-97520000D01*
X138451000Y-99480000D02*
X138451000Y-102108000D01*
X138491000Y-94905000D02*
X138491000Y-97520000D01*
X138491000Y-99480000D02*
X138491000Y-102095000D01*
X138531000Y-94919000D02*
X138531000Y-97520000D01*
X138531000Y-99480000D02*
X138531000Y-102081000D01*
X138571000Y-94934000D02*
X138571000Y-97520000D01*
X138571000Y-99480000D02*
X138571000Y-102066000D01*
X138611000Y-94948000D02*
X138611000Y-97520000D01*
X138611000Y-99480000D02*
X138611000Y-102052000D01*
X138651000Y-94964000D02*
X138651000Y-97520000D01*
X138651000Y-99480000D02*
X138651000Y-102036000D01*
X138691000Y-94980000D02*
X138691000Y-97520000D01*
X138691000Y-99480000D02*
X138691000Y-102020000D01*
X138731000Y-94996000D02*
X138731000Y-97520000D01*
X138731000Y-99480000D02*
X138731000Y-102004000D01*
X138771000Y-95013000D02*
X138771000Y-97520000D01*
X138771000Y-99480000D02*
X138771000Y-101987000D01*
X138811000Y-95031000D02*
X138811000Y-97520000D01*
X138811000Y-99480000D02*
X138811000Y-101969000D01*
X138851000Y-95049000D02*
X138851000Y-97520000D01*
X138851000Y-99480000D02*
X138851000Y-101951000D01*
X138891000Y-95067000D02*
X138891000Y-97520000D01*
X138891000Y-99480000D02*
X138891000Y-101933000D01*
X138931000Y-95087000D02*
X138931000Y-97520000D01*
X138931000Y-99480000D02*
X138931000Y-101913000D01*
X138971000Y-95106000D02*
X138971000Y-97520000D01*
X138971000Y-99480000D02*
X138971000Y-101894000D01*
X139011000Y-95127000D02*
X139011000Y-97520000D01*
X139011000Y-99480000D02*
X139011000Y-101873000D01*
X139051000Y-95148000D02*
X139051000Y-97520000D01*
X139051000Y-99480000D02*
X139051000Y-101852000D01*
X139091000Y-95169000D02*
X139091000Y-97520000D01*
X139091000Y-99480000D02*
X139091000Y-101831000D01*
X139131000Y-95191000D02*
X139131000Y-97520000D01*
X139131000Y-99480000D02*
X139131000Y-101809000D01*
X139171000Y-95214000D02*
X139171000Y-97520000D01*
X139171000Y-99480000D02*
X139171000Y-101786000D01*
X139211000Y-95237000D02*
X139211000Y-97520000D01*
X139211000Y-99480000D02*
X139211000Y-101763000D01*
X139251000Y-95261000D02*
X139251000Y-97520000D01*
X139251000Y-99480000D02*
X139251000Y-101739000D01*
X139291000Y-95286000D02*
X139291000Y-97520000D01*
X139291000Y-99480000D02*
X139291000Y-101714000D01*
X139331000Y-95312000D02*
X139331000Y-97520000D01*
X139331000Y-99480000D02*
X139331000Y-101688000D01*
X139371000Y-95338000D02*
X139371000Y-97520000D01*
X139371000Y-99480000D02*
X139371000Y-101662000D01*
X139411000Y-95365000D02*
X139411000Y-97520000D01*
X139411000Y-99480000D02*
X139411000Y-101635000D01*
X139451000Y-95392000D02*
X139451000Y-97520000D01*
X139451000Y-99480000D02*
X139451000Y-101608000D01*
X139491000Y-95421000D02*
X139491000Y-101579000D01*
X139531000Y-95450000D02*
X139531000Y-101550000D01*
X139571000Y-95480000D02*
X139571000Y-101520000D01*
X139611000Y-95510000D02*
X139611000Y-101490000D01*
X139651000Y-95542000D02*
X139651000Y-101458000D01*
X139691000Y-95574000D02*
X139691000Y-101426000D01*
X139731000Y-95608000D02*
X139731000Y-101392000D01*
X139771000Y-95642000D02*
X139771000Y-101358000D01*
X139811000Y-95677000D02*
X139811000Y-101323000D01*
X139851000Y-95714000D02*
X139851000Y-101286000D01*
X139891000Y-95751000D02*
X139891000Y-101249000D01*
X139931000Y-95789000D02*
X139931000Y-101211000D01*
X139971000Y-95829000D02*
X139971000Y-101171000D01*
X140011000Y-95870000D02*
X140011000Y-101130000D01*
X140051000Y-95912000D02*
X140051000Y-101088000D01*
X140091000Y-95955000D02*
X140091000Y-101045000D01*
X140131000Y-96000000D02*
X140131000Y-101000000D01*
X140171000Y-96046000D02*
X140171000Y-100954000D01*
X140211000Y-96093000D02*
X140211000Y-100907000D01*
X140251000Y-96143000D02*
X140251000Y-100857000D01*
X140291000Y-96193000D02*
X140291000Y-100807000D01*
X140331000Y-96246000D02*
X140331000Y-100754000D01*
X140371000Y-96301000D02*
X140371000Y-100699000D01*
X140411000Y-96358000D02*
X140411000Y-100642000D01*
X140451000Y-96417000D02*
X140451000Y-100583000D01*
X140491000Y-96478000D02*
X140491000Y-100522000D01*
X140531000Y-96543000D02*
X140531000Y-100457000D01*
X140571000Y-96610000D02*
X140571000Y-100390000D01*
X140611000Y-96680000D02*
X140611000Y-100320000D01*
X140651000Y-96755000D02*
X140651000Y-100245000D01*
X140691000Y-96833000D02*
X140691000Y-100167000D01*
X140731000Y-96916000D02*
X140731000Y-100084000D01*
X140771000Y-97005000D02*
X140771000Y-99995000D01*
X140811000Y-97100000D02*
X140811000Y-99900000D01*
X140851000Y-97203000D02*
X140851000Y-99797000D01*
X140891000Y-97316000D02*
X140891000Y-99684000D01*
X140931000Y-97443000D02*
X140931000Y-99557000D01*
X140971000Y-97587000D02*
X140971000Y-99413000D01*
X141011000Y-97760000D02*
X141011000Y-99240000D01*
X141051000Y-97987000D02*
X141051000Y-99013000D01*
X141090000Y-98500000D02*
G75*
G02*
X133410000Y-98500000I-3840000J0D01*
G01*
X133410000Y-98500000D02*
G75*
G02*
X141090000Y-98500000I3840000J0D01*
G01*
%TO.C,P1*%
X109160000Y-109160000D02*
X110490000Y-109160000D01*
X109160000Y-110490000D02*
X109160000Y-109160000D01*
X109160000Y-111760000D02*
X109160000Y-111820000D01*
X109160000Y-111760000D02*
X111820000Y-111760000D01*
X109160000Y-111820000D02*
X111820000Y-111820000D01*
X111820000Y-111760000D02*
X111820000Y-111820000D01*
%TO.C,P2*%
X109160000Y-104080000D02*
X110490000Y-104080000D01*
X109160000Y-105410000D02*
X109160000Y-104080000D01*
X109160000Y-106680000D02*
X109160000Y-106740000D01*
X109160000Y-106680000D02*
X111820000Y-106680000D01*
X109160000Y-106740000D02*
X111820000Y-106740000D01*
X111820000Y-106680000D02*
X111820000Y-106740000D01*
%TO.C,P3*%
X109160000Y-95190000D02*
X110490000Y-95190000D01*
X109160000Y-96520000D02*
X109160000Y-95190000D01*
X109160000Y-97790000D02*
X109160000Y-97850000D01*
X109160000Y-97790000D02*
X111820000Y-97790000D01*
X109160000Y-97850000D02*
X111820000Y-97850000D01*
X111820000Y-97790000D02*
X111820000Y-97850000D01*
%TO.C,Q1*%
X119350000Y-98530000D02*
X119350000Y-94930000D01*
X114900000Y-96730000D02*
G75*
G02*
X119338478Y-94891522I2600000J0D01*
G01*
X119338478Y-98568478D02*
G75*
G02*
X114899999Y-96730000I-1838478J1838478D01*
G01*
%TO.C,Q2*%
X136150000Y-108970000D02*
X136150000Y-112570000D01*
X136161522Y-108931522D02*
G75*
G02*
X140600001Y-110770000I1838478J-1838478D01*
G01*
X140600000Y-110770000D02*
G75*
G02*
X136161522Y-112608478I-2600000J0D01*
G01*
%TO.C,R1*%
X116190000Y-103710000D02*
X116190000Y-110130000D01*
X116190000Y-110130000D02*
X118810000Y-110130000D01*
X117500000Y-102820000D02*
X117500000Y-103710000D01*
X117500000Y-111020000D02*
X117500000Y-110130000D01*
X118810000Y-103710000D02*
X116190000Y-103710000D01*
X118810000Y-110130000D02*
X118810000Y-103710000D01*
%TO.C,R2*%
X124820000Y-109500000D02*
X125710000Y-109500000D01*
X125710000Y-108190000D02*
X125710000Y-110810000D01*
X125710000Y-110810000D02*
X132130000Y-110810000D01*
X132130000Y-108190000D02*
X125710000Y-108190000D01*
X132130000Y-110810000D02*
X132130000Y-108190000D01*
X133020000Y-109500000D02*
X132130000Y-109500000D01*
%TD*%
M02*
