%TF.GenerationSoftware,KiCad,Pcbnew,9.0.5*%
%TF.CreationDate,2026-01-24T20:46:11+00:00*%
%TF.ProjectId,Spectrum 48K Video Mod,53706563-7472-4756-9d20-34384b205669,1.0*%
%TF.SameCoordinates,Original*%
%TF.FileFunction,Copper,L2,Bot*%
%TF.FilePolarity,Positive*%
%FSLAX46Y46*%
G04 Gerber Fmt 4.6, Leading zero omitted, Abs format (unit mm)*
G04 Created by KiCad (PCBNEW 9.0.5) date 2026-01-24 20:46:11*
%MOMM*%
%LPD*%
G01*
G04 APERTURE LIST*
%TA.AperFunction,ComponentPad*%
%ADD10R,1.600000X1.600000*%
%TD*%
%TA.AperFunction,ComponentPad*%
%ADD11C,1.600000*%
%TD*%
%TA.AperFunction,ComponentPad*%
%ADD12R,1.700000X1.700000*%
%TD*%
%TA.AperFunction,ComponentPad*%
%ADD13R,1.500000X0.900000*%
%TD*%
%TA.AperFunction,ComponentPad*%
%ADD14O,1.500000X0.900000*%
%TD*%
%TA.AperFunction,ComponentPad*%
%ADD15O,1.600000X1.600000*%
%TD*%
%TA.AperFunction,ViaPad*%
%ADD16C,0.600000*%
%TD*%
%TA.AperFunction,Conductor*%
%ADD17C,0.600000*%
%TD*%
G04 APERTURE END LIST*
D10*
%TO.P,C1,1*%
%TO.N,Net-(C1-Pad1)*%
X125000000Y-98500000D03*
D11*
%TO.P,C1,2*%
%TO.N,VIDEO_OUT*%
X127500000Y-98500000D03*
%TD*%
D10*
%TO.P,C2,1*%
%TO.N,VIDEO_IN*%
X136000000Y-98500000D03*
D11*
%TO.P,C2,2*%
%TO.N,VIDEO_OUT*%
X138500000Y-98500000D03*
%TD*%
D12*
%TO.P,P1,1*%
%TO.N,+5V*%
X110490000Y-110490000D03*
%TD*%
%TO.P,P2,1*%
%TO.N,VIDEO_IN*%
X110490000Y-105410000D03*
%TD*%
%TO.P,P3,1*%
%TO.N,VIDEO_OUT*%
X110490000Y-96520000D03*
%TD*%
D13*
%TO.P,Q1,1*%
%TO.N,Net-(C1-Pad1)*%
X117500000Y-98000000D03*
D14*
%TO.P,Q1,2*%
%TO.N,VIDEO_IN*%
X117500000Y-96730000D03*
%TO.P,Q1,3*%
%TO.N,GNDPWR*%
X117500000Y-95460000D03*
%TD*%
D13*
%TO.P,Q2,1*%
%TO.N,Net-(Q2-Pad1)*%
X138000000Y-109500000D03*
D14*
%TO.P,Q2,2*%
%TO.N,VIDEO_IN*%
X138000000Y-110770000D03*
%TO.P,Q2,3*%
%TO.N,+5V*%
X138000000Y-112040000D03*
%TD*%
D11*
%TO.P,R1,1*%
%TO.N,+5V*%
X117500000Y-112000000D03*
D15*
%TO.P,R1,2*%
%TO.N,Net-(C1-Pad1)*%
X117500000Y-101840000D03*
%TD*%
D11*
%TO.P,R2,1*%
%TO.N,Net-(Q2-Pad1)*%
X134000000Y-109500000D03*
D15*
%TO.P,R2,2*%
%TO.N,VIDEO_OUT*%
X123840000Y-109500000D03*
%TD*%
D16*
%TO.N,VIDEO_OUT*%
X115316000Y-104648000D03*
X131064000Y-100584000D03*
%TO.N,VIDEO_IN*%
X137414000Y-103886000D03*
%TD*%
D17*
%TO.N,Net-(C1-Pad1)*%
X122384000Y-98000000D02*
X122884000Y-98500000D01*
X122884000Y-98500000D02*
X125000000Y-98500000D01*
X117500000Y-101840000D02*
X117500000Y-98000000D01*
X117500000Y-98000000D02*
X122384000Y-98000000D01*
%TO.N,VIDEO_OUT*%
X128980000Y-98500000D02*
X131064000Y-100584000D01*
X127500000Y-99830000D02*
X126238000Y-101092000D01*
X126238000Y-101092000D02*
X123698000Y-101092000D01*
X123698000Y-101092000D02*
X120142000Y-104648000D01*
X120142000Y-104648000D02*
X115316000Y-104648000D01*
X127500000Y-98500000D02*
X128980000Y-98500000D01*
X127500000Y-98500000D02*
X127500000Y-99830000D01*
%TO.N,VIDEO_IN*%
X115360000Y-96730000D02*
X112776000Y-99314000D01*
X112776000Y-99314000D02*
X112776000Y-101600000D01*
X112776000Y-101600000D02*
X110490000Y-103886000D01*
X110490000Y-103886000D02*
X110490000Y-105410000D01*
X119678000Y-96730000D02*
X122428000Y-93980000D01*
X122428000Y-93980000D02*
X131480000Y-93980000D01*
X131480000Y-93980000D02*
X136000000Y-98500000D01*
X137414000Y-103886000D02*
X136000000Y-102472000D01*
X136000000Y-102472000D02*
X136000000Y-98500000D01*
X117500000Y-96730000D02*
X115360000Y-96730000D01*
X117500000Y-96730000D02*
X119678000Y-96730000D01*
%TO.N,+5V*%
X117540000Y-112040000D02*
X117500000Y-112000000D01*
X114794000Y-112000000D02*
X113284000Y-110490000D01*
X113284000Y-110490000D02*
X110490000Y-110490000D01*
X117500000Y-112000000D02*
X114794000Y-112000000D01*
X138000000Y-112040000D02*
X117540000Y-112040000D01*
%TO.N,Net-(Q2-Pad1)*%
X134000000Y-109500000D02*
X138000000Y-109500000D01*
%TD*%
%TA.AperFunction,Conductor*%
%TO.N,GNDPWR*%
G36*
X108366621Y-91095502D02*
G01*
X108413114Y-91149158D01*
X108424500Y-91201500D01*
X108424500Y-91454469D01*
X108422587Y-91476343D01*
X108420876Y-91486048D01*
X108422586Y-91495746D01*
X108423750Y-91509059D01*
X108425249Y-91517559D01*
X108428707Y-91530468D01*
X108430418Y-91540170D01*
X108433935Y-91546262D01*
X108438452Y-91551645D01*
X108446982Y-91556570D01*
X108464972Y-91569167D01*
X108472518Y-91575499D01*
X108472519Y-91575499D01*
X108472520Y-91575500D01*
X108472521Y-91575500D01*
X108479123Y-91577903D01*
X108486047Y-91579124D01*
X108486047Y-91579123D01*
X108486048Y-91579124D01*
X108495746Y-91577413D01*
X108517625Y-91575500D01*
X113954470Y-91575500D01*
X113976350Y-91577414D01*
X113986047Y-91579124D01*
X113986047Y-91579123D01*
X113986048Y-91579124D01*
X113995746Y-91577413D01*
X114009067Y-91576248D01*
X114013310Y-91575500D01*
X114013312Y-91575500D01*
X114013313Y-91575499D01*
X114017576Y-91574748D01*
X114030473Y-91571290D01*
X114040172Y-91569581D01*
X114040173Y-91569579D01*
X114046260Y-91566064D01*
X114051641Y-91561549D01*
X114051645Y-91561548D01*
X114056569Y-91553018D01*
X114069165Y-91535028D01*
X114075500Y-91527480D01*
X114075500Y-91527479D01*
X114077902Y-91520879D01*
X114079122Y-91513955D01*
X114079124Y-91513952D01*
X114077414Y-91504253D01*
X114075500Y-91482374D01*
X114075500Y-91201500D01*
X114095502Y-91133379D01*
X114149158Y-91086886D01*
X114201500Y-91075500D01*
X142475469Y-91075500D01*
X142491743Y-91075500D01*
X142508188Y-91076578D01*
X142520804Y-91078238D01*
X142593421Y-91087798D01*
X142625193Y-91096312D01*
X142696925Y-91126025D01*
X142725410Y-91142470D01*
X142787006Y-91189734D01*
X142810264Y-91212993D01*
X142848962Y-91263425D01*
X142874563Y-91329645D01*
X142875000Y-91340129D01*
X142875000Y-114659870D01*
X142854998Y-114727991D01*
X142848962Y-114736574D01*
X142810264Y-114787006D01*
X142787006Y-114810265D01*
X142725410Y-114857529D01*
X142696925Y-114873974D01*
X142625193Y-114903687D01*
X142593420Y-114912201D01*
X142508189Y-114923422D01*
X142491743Y-114924500D01*
X105508257Y-114924500D01*
X105491811Y-114923422D01*
X105406579Y-114912201D01*
X105374806Y-114903687D01*
X105303074Y-114873974D01*
X105274589Y-114857529D01*
X105212993Y-114810265D01*
X105189734Y-114787006D01*
X105142470Y-114725410D01*
X105126025Y-114696925D01*
X105096312Y-114625193D01*
X105087798Y-114593419D01*
X105076578Y-114508187D01*
X105075500Y-114491742D01*
X105075500Y-111376207D01*
X109258500Y-111376207D01*
X109269304Y-111450361D01*
X109269304Y-111450363D01*
X109325223Y-111564745D01*
X109325224Y-111564747D01*
X109415252Y-111654775D01*
X109415254Y-111654776D01*
X109529639Y-111710696D01*
X109603794Y-111721500D01*
X109603800Y-111721500D01*
X111376200Y-111721500D01*
X111376206Y-111721500D01*
X111450361Y-111710696D01*
X111564746Y-111654776D01*
X111654776Y-111564746D01*
X111710696Y-111450361D01*
X111721500Y-111376206D01*
X111721500Y-111297500D01*
X111741502Y-111229379D01*
X111795158Y-111182886D01*
X111847500Y-111171500D01*
X112949523Y-111171500D01*
X113017644Y-111191502D01*
X113038618Y-111208405D01*
X114294846Y-112464632D01*
X114300062Y-112470173D01*
X114338760Y-112513853D01*
X114338763Y-112513856D01*
X114386795Y-112547010D01*
X114392906Y-112551506D01*
X114438845Y-112587497D01*
X114438846Y-112587497D01*
X114438847Y-112587498D01*
X114447380Y-112591338D01*
X114467253Y-112602546D01*
X114474965Y-112607870D01*
X114529550Y-112628571D01*
X114536551Y-112631471D01*
X114589762Y-112655420D01*
X114598973Y-112657107D01*
X114620947Y-112663233D01*
X114623994Y-112664388D01*
X114629709Y-112666556D01*
X114687657Y-112673591D01*
X114695141Y-112674730D01*
X114752550Y-112685252D01*
X114810778Y-112681729D01*
X114818385Y-112681500D01*
X116471359Y-112681500D01*
X116539480Y-112701502D01*
X116571908Y-112731566D01*
X116622907Y-112799100D01*
X116623124Y-112799387D01*
X116784931Y-112946893D01*
X116784934Y-112946895D01*
X116971097Y-113062163D01*
X116971099Y-113062163D01*
X116971104Y-113062167D01*
X117175282Y-113141266D01*
X117390518Y-113181500D01*
X117390520Y-113181500D01*
X117609480Y-113181500D01*
X117609482Y-113181500D01*
X117824718Y-113141266D01*
X118028896Y-113062167D01*
X118215063Y-112946897D01*
X118215065Y-112946894D01*
X118215068Y-112946893D01*
X118376875Y-112799387D01*
X118376877Y-112799385D01*
X118376877Y-112799384D01*
X118376880Y-112799382D01*
X118397884Y-112771568D01*
X118454897Y-112729261D01*
X118498434Y-112721500D01*
X137180059Y-112721500D01*
X137248180Y-112741502D01*
X137256310Y-112747192D01*
X137268788Y-112756677D01*
X137268791Y-112756679D01*
X137360483Y-112799100D01*
X137432935Y-112832620D01*
X137609569Y-112871500D01*
X137609573Y-112871500D01*
X138345074Y-112871500D01*
X138345082Y-112871500D01*
X138479802Y-112856848D01*
X138651197Y-112799099D01*
X138806170Y-112705855D01*
X138937475Y-112581476D01*
X139038972Y-112431778D01*
X139105916Y-112263762D01*
X139135176Y-112085282D01*
X139125385Y-111904685D01*
X139076999Y-111730415D01*
X138992282Y-111570621D01*
X138976445Y-111551977D01*
X138923137Y-111489217D01*
X138894281Y-111424349D01*
X138905076Y-111354177D01*
X138932521Y-111316168D01*
X138937475Y-111311476D01*
X139038972Y-111161778D01*
X139105916Y-110993762D01*
X139135176Y-110815282D01*
X139125385Y-110634685D01*
X139076999Y-110460415D01*
X139076999Y-110460414D01*
X139076998Y-110460411D01*
X139017404Y-110348006D01*
X139003167Y-110278451D01*
X139028795Y-110212241D01*
X139039624Y-110199897D01*
X139064776Y-110174746D01*
X139120696Y-110060361D01*
X139131500Y-109986206D01*
X139131500Y-109013794D01*
X139120696Y-108939639D01*
X139064776Y-108825254D01*
X139064775Y-108825252D01*
X138974747Y-108735224D01*
X138974745Y-108735223D01*
X138860362Y-108679304D01*
X138786207Y-108668500D01*
X138786206Y-108668500D01*
X137213794Y-108668500D01*
X137213792Y-108668500D01*
X137139638Y-108679304D01*
X137139636Y-108679304D01*
X137025255Y-108735222D01*
X137002069Y-108758408D01*
X136978881Y-108781596D01*
X136916572Y-108815620D01*
X136889788Y-108818500D01*
X135028641Y-108818500D01*
X134960520Y-108798498D01*
X134928091Y-108768433D01*
X134876880Y-108700618D01*
X134876878Y-108700616D01*
X134876875Y-108700612D01*
X134715068Y-108553106D01*
X134715065Y-108553104D01*
X134528902Y-108437836D01*
X134528897Y-108437834D01*
X134528896Y-108437833D01*
X134324721Y-108358735D01*
X134324722Y-108358735D01*
X134324719Y-108358734D01*
X134324718Y-108358734D01*
X134109482Y-108318500D01*
X133890518Y-108318500D01*
X133675282Y-108358734D01*
X133675277Y-108358735D01*
X133471108Y-108437831D01*
X133471097Y-108437836D01*
X133284934Y-108553104D01*
X133284931Y-108553106D01*
X133123124Y-108700612D01*
X133123122Y-108700614D01*
X132991165Y-108875355D01*
X132991161Y-108875360D01*
X132893567Y-109071354D01*
X132893562Y-109071368D01*
X132833641Y-109281968D01*
X132813438Y-109500000D01*
X132833641Y-109718031D01*
X132893562Y-109928631D01*
X132893567Y-109928645D01*
X132991161Y-110124639D01*
X132991165Y-110124644D01*
X133123122Y-110299385D01*
X133123124Y-110299387D01*
X133284931Y-110446893D01*
X133284934Y-110446895D01*
X133471097Y-110562163D01*
X133471099Y-110562163D01*
X133471104Y-110562167D01*
X133675282Y-110641266D01*
X133890518Y-110681500D01*
X133890520Y-110681500D01*
X134109480Y-110681500D01*
X134109482Y-110681500D01*
X134324718Y-110641266D01*
X134528896Y-110562167D01*
X134715063Y-110446897D01*
X134715065Y-110446894D01*
X134715068Y-110446893D01*
X134876875Y-110299387D01*
X134876876Y-110299385D01*
X134876880Y-110299382D01*
X134928091Y-110231567D01*
X134985104Y-110189261D01*
X135028641Y-110181500D01*
X136856747Y-110181500D01*
X136924868Y-110201502D01*
X136971361Y-110255158D01*
X136981465Y-110325432D01*
X136963516Y-110371803D01*
X136964230Y-110372182D01*
X136961045Y-110378189D01*
X136961039Y-110378206D01*
X136961028Y-110378220D01*
X136894083Y-110546238D01*
X136864824Y-110724717D01*
X136864824Y-110724718D01*
X136874614Y-110905312D01*
X136874616Y-110905320D01*
X136923000Y-111079584D01*
X136972781Y-111173481D01*
X136987017Y-111243035D01*
X136961389Y-111309245D01*
X136904034Y-111351089D01*
X136861458Y-111358500D01*
X118558847Y-111358500D01*
X118490726Y-111338498D01*
X118458297Y-111308432D01*
X118376877Y-111200614D01*
X118376875Y-111200612D01*
X118215068Y-111053106D01*
X118215065Y-111053104D01*
X118028902Y-110937836D01*
X118028897Y-110937834D01*
X118028896Y-110937833D01*
X118028891Y-110937831D01*
X117824721Y-110858735D01*
X117824722Y-110858735D01*
X117824719Y-110858734D01*
X117824718Y-110858734D01*
X117609482Y-110818500D01*
X117390518Y-110818500D01*
X117175282Y-110858734D01*
X117175277Y-110858735D01*
X116971108Y-110937831D01*
X116971097Y-110937836D01*
X116784934Y-111053104D01*
X116784931Y-111053106D01*
X116623124Y-111200612D01*
X116601401Y-111229379D01*
X116571908Y-111268432D01*
X116514896Y-111310739D01*
X116471359Y-111318500D01*
X115128476Y-111318500D01*
X115060355Y-111298498D01*
X115039381Y-111281595D01*
X113783145Y-110025358D01*
X113777928Y-110019817D01*
X113739235Y-109976142D01*
X113739234Y-109976141D01*
X113691221Y-109943000D01*
X113685093Y-109938491D01*
X113639157Y-109902503D01*
X113639155Y-109902502D01*
X113630601Y-109898652D01*
X113610745Y-109887452D01*
X113603039Y-109882133D01*
X113603035Y-109882130D01*
X113582416Y-109874310D01*
X113548475Y-109861438D01*
X113541445Y-109858526D01*
X113537736Y-109856857D01*
X113488237Y-109834579D01*
X113488235Y-109834578D01*
X113479008Y-109832887D01*
X113457054Y-109826767D01*
X113448291Y-109823444D01*
X113390373Y-109816410D01*
X113382856Y-109815266D01*
X113325450Y-109804748D01*
X113267221Y-109808270D01*
X113259614Y-109808500D01*
X111847500Y-109808500D01*
X111779379Y-109788498D01*
X111732886Y-109734842D01*
X111721500Y-109682500D01*
X111721500Y-109603800D01*
X111721500Y-109603794D01*
X111710696Y-109529639D01*
X111696206Y-109500000D01*
X122653438Y-109500000D01*
X122673641Y-109718031D01*
X122733562Y-109928631D01*
X122733567Y-109928645D01*
X122831161Y-110124639D01*
X122831165Y-110124644D01*
X122963122Y-110299385D01*
X122963124Y-110299387D01*
X123124931Y-110446893D01*
X123124934Y-110446895D01*
X123311097Y-110562163D01*
X123311099Y-110562163D01*
X123311104Y-110562167D01*
X123515282Y-110641266D01*
X123730518Y-110681500D01*
X123730520Y-110681500D01*
X123949480Y-110681500D01*
X123949482Y-110681500D01*
X124164718Y-110641266D01*
X124368896Y-110562167D01*
X124555063Y-110446897D01*
X124555065Y-110446894D01*
X124555068Y-110446893D01*
X124716875Y-110299387D01*
X124716877Y-110299385D01*
X124716877Y-110299384D01*
X124716880Y-110299382D01*
X124848835Y-110124644D01*
X124848836Y-110124640D01*
X124848838Y-110124639D01*
X124946432Y-109928645D01*
X124946433Y-109928641D01*
X124946436Y-109928636D01*
X125006359Y-109718030D01*
X125026562Y-109500000D01*
X125006359Y-109281970D01*
X124946436Y-109071364D01*
X124946434Y-109071360D01*
X124946432Y-109071354D01*
X124848838Y-108875360D01*
X124848834Y-108875355D01*
X124810998Y-108825252D01*
X124716880Y-108700618D01*
X124716877Y-108700614D01*
X124716875Y-108700612D01*
X124555068Y-108553106D01*
X124555065Y-108553104D01*
X124368902Y-108437836D01*
X124368897Y-108437834D01*
X124368896Y-108437833D01*
X124164721Y-108358735D01*
X124164722Y-108358735D01*
X124164719Y-108358734D01*
X124164718Y-108358734D01*
X123949482Y-108318500D01*
X123730518Y-108318500D01*
X123515282Y-108358734D01*
X123515277Y-108358735D01*
X123311108Y-108437831D01*
X123311097Y-108437836D01*
X123124934Y-108553104D01*
X123124931Y-108553106D01*
X122963124Y-108700612D01*
X122963122Y-108700614D01*
X122831165Y-108875355D01*
X122831161Y-108875360D01*
X122733567Y-109071354D01*
X122733562Y-109071368D01*
X122673641Y-109281968D01*
X122653438Y-109500000D01*
X111696206Y-109500000D01*
X111654776Y-109415254D01*
X111654775Y-109415252D01*
X111564747Y-109325224D01*
X111564745Y-109325223D01*
X111450362Y-109269304D01*
X111376207Y-109258500D01*
X111376206Y-109258500D01*
X109603794Y-109258500D01*
X109603792Y-109258500D01*
X109529638Y-109269304D01*
X109529636Y-109269304D01*
X109415254Y-109325223D01*
X109415252Y-109325224D01*
X109325224Y-109415252D01*
X109325223Y-109415254D01*
X109269304Y-109529636D01*
X109269304Y-109529638D01*
X109258500Y-109603792D01*
X109258500Y-111376207D01*
X105075500Y-111376207D01*
X105075500Y-106296207D01*
X109258500Y-106296207D01*
X109269304Y-106370361D01*
X109269304Y-106370363D01*
X109325223Y-106484745D01*
X109325224Y-106484747D01*
X109415252Y-106574775D01*
X109415254Y-106574776D01*
X109529639Y-106630696D01*
X109603794Y-106641500D01*
X109603800Y-106641500D01*
X111376200Y-106641500D01*
X111376206Y-106641500D01*
X111450361Y-106630696D01*
X111564746Y-106574776D01*
X111654776Y-106484746D01*
X111710696Y-106370361D01*
X111721500Y-106296206D01*
X111721500Y-104523794D01*
X111710696Y-104449639D01*
X111704604Y-104437178D01*
X111654776Y-104335254D01*
X111654775Y-104335252D01*
X111564747Y-104245224D01*
X111564745Y-104245223D01*
X111450363Y-104189304D01*
X111450356Y-104189302D01*
X111437114Y-104187373D01*
X111372590Y-104157757D01*
X111334320Y-104097957D01*
X111334456Y-104026961D01*
X111366186Y-103973599D01*
X113240647Y-102099137D01*
X113246174Y-102093935D01*
X113289854Y-102055239D01*
X113289854Y-102055238D01*
X113289856Y-102055237D01*
X113323018Y-102007191D01*
X113327509Y-102001088D01*
X113363497Y-101955155D01*
X113367339Y-101946615D01*
X113378544Y-101926749D01*
X113383870Y-101919035D01*
X113404571Y-101864446D01*
X113407460Y-101857473D01*
X113431421Y-101804237D01*
X113433110Y-101795015D01*
X113439237Y-101773041D01*
X113442556Y-101764291D01*
X113449594Y-101706323D01*
X113450725Y-101698890D01*
X113461252Y-101641450D01*
X113457730Y-101583220D01*
X113457500Y-101575613D01*
X113457500Y-99648477D01*
X113477502Y-99580356D01*
X113494405Y-99559382D01*
X115605382Y-97448405D01*
X115667694Y-97414379D01*
X115694477Y-97411500D01*
X116242500Y-97411500D01*
X116310621Y-97431502D01*
X116357114Y-97485158D01*
X116368500Y-97537500D01*
X116368500Y-98486207D01*
X116379304Y-98560361D01*
X116379304Y-98560363D01*
X116435223Y-98674745D01*
X116435224Y-98674747D01*
X116525252Y-98764775D01*
X116525254Y-98764776D01*
X116639636Y-98820695D01*
X116639639Y-98820696D01*
X116710667Y-98831044D01*
X116775190Y-98860657D01*
X116813462Y-98920454D01*
X116818500Y-98955727D01*
X116818500Y-100806872D01*
X116798498Y-100874993D01*
X116777386Y-100899985D01*
X116747809Y-100926949D01*
X116623120Y-101040616D01*
X116491165Y-101215355D01*
X116491161Y-101215360D01*
X116393567Y-101411354D01*
X116393562Y-101411368D01*
X116333641Y-101621968D01*
X116313438Y-101840000D01*
X116333641Y-102058031D01*
X116393562Y-102268631D01*
X116393567Y-102268645D01*
X116491161Y-102464639D01*
X116491165Y-102464644D01*
X116623122Y-102639385D01*
X116623124Y-102639387D01*
X116784931Y-102786893D01*
X116784934Y-102786895D01*
X116971097Y-102902163D01*
X116971099Y-102902163D01*
X116971104Y-102902167D01*
X117175282Y-102981266D01*
X117390518Y-103021500D01*
X117390520Y-103021500D01*
X117609480Y-103021500D01*
X117609482Y-103021500D01*
X117824718Y-102981266D01*
X118028896Y-102902167D01*
X118215063Y-102786897D01*
X118215065Y-102786894D01*
X118215068Y-102786893D01*
X118376875Y-102639387D01*
X118376877Y-102639385D01*
X118376877Y-102639384D01*
X118376880Y-102639382D01*
X118508835Y-102464644D01*
X118508836Y-102464640D01*
X118508838Y-102464639D01*
X118606432Y-102268645D01*
X118606433Y-102268641D01*
X118606436Y-102268636D01*
X118666359Y-102058030D01*
X118686562Y-101840000D01*
X118666359Y-101621970D01*
X118606436Y-101411364D01*
X118606434Y-101411360D01*
X118606432Y-101411354D01*
X118508838Y-101215360D01*
X118508834Y-101215355D01*
X118376879Y-101040616D01*
X118269443Y-100942676D01*
X118222614Y-100899986D01*
X118185748Y-100839313D01*
X118181500Y-100806872D01*
X118181500Y-98955727D01*
X118201502Y-98887606D01*
X118255158Y-98841113D01*
X118289329Y-98831044D01*
X118360361Y-98820696D01*
X118474746Y-98764776D01*
X118521118Y-98718403D01*
X118583428Y-98684380D01*
X118610212Y-98681500D01*
X122049523Y-98681500D01*
X122117644Y-98701502D01*
X122138618Y-98718405D01*
X122384853Y-98964640D01*
X122390070Y-98970181D01*
X122396846Y-98977830D01*
X122428763Y-99013856D01*
X122476797Y-99047011D01*
X122482898Y-99051501D01*
X122528845Y-99087498D01*
X122537391Y-99091344D01*
X122557253Y-99102546D01*
X122564965Y-99107870D01*
X122619535Y-99128565D01*
X122626523Y-99131459D01*
X122679763Y-99155421D01*
X122688981Y-99157110D01*
X122710947Y-99163233D01*
X122719709Y-99166556D01*
X122777675Y-99173594D01*
X122785118Y-99174727D01*
X122842550Y-99185252D01*
X122900779Y-99181729D01*
X122908386Y-99181500D01*
X123692500Y-99181500D01*
X123760621Y-99201502D01*
X123807114Y-99255158D01*
X123818500Y-99307500D01*
X123818500Y-99336207D01*
X123829304Y-99410361D01*
X123829304Y-99410363D01*
X123885223Y-99524745D01*
X123885224Y-99524747D01*
X123975252Y-99614775D01*
X123975254Y-99614776D01*
X124089639Y-99670696D01*
X124163794Y-99681500D01*
X124163800Y-99681500D01*
X125836200Y-99681500D01*
X125836206Y-99681500D01*
X125910361Y-99670696D01*
X126024746Y-99614776D01*
X126114776Y-99524746D01*
X126170696Y-99410361D01*
X126181500Y-99336206D01*
X126181500Y-99038473D01*
X126201502Y-98970352D01*
X126255158Y-98923859D01*
X126325432Y-98913755D01*
X126390012Y-98943249D01*
X126420290Y-98982310D01*
X126491161Y-99124639D01*
X126491165Y-99124644D01*
X126623120Y-99299383D01*
X126663514Y-99336206D01*
X126757714Y-99422080D01*
X126794580Y-99482752D01*
X126792792Y-99553726D01*
X126761924Y-99604289D01*
X125992616Y-100373596D01*
X125930306Y-100407620D01*
X125903523Y-100410500D01*
X123722385Y-100410500D01*
X123714778Y-100410270D01*
X123656550Y-100406748D01*
X123656549Y-100406748D01*
X123656548Y-100406748D01*
X123599141Y-100417266D01*
X123591626Y-100418410D01*
X123533709Y-100425444D01*
X123533704Y-100425445D01*
X123524948Y-100428766D01*
X123502997Y-100434886D01*
X123493764Y-100436578D01*
X123440563Y-100460522D01*
X123433535Y-100463433D01*
X123378964Y-100484130D01*
X123378963Y-100484130D01*
X123371245Y-100489458D01*
X123351392Y-100500655D01*
X123342852Y-100504498D01*
X123342842Y-100504505D01*
X123296925Y-100540477D01*
X123290801Y-100544984D01*
X123242760Y-100578146D01*
X123204063Y-100621825D01*
X123198847Y-100627365D01*
X119896618Y-103929595D01*
X119834306Y-103963621D01*
X119807523Y-103966500D01*
X115233247Y-103966500D01*
X115200321Y-103974616D01*
X115185355Y-103977358D01*
X115151714Y-103981442D01*
X115151709Y-103981443D01*
X115120005Y-103993467D01*
X115105486Y-103997991D01*
X115092059Y-104001300D01*
X115072561Y-104006107D01*
X115072554Y-104006110D01*
X115042534Y-104021864D01*
X115028670Y-104028104D01*
X114996964Y-104040129D01*
X114996961Y-104040131D01*
X114969061Y-104059389D01*
X114956045Y-104067258D01*
X114926022Y-104083016D01*
X114900632Y-104105508D01*
X114888662Y-104114885D01*
X114860765Y-104134141D01*
X114860758Y-104134148D01*
X114838277Y-104159523D01*
X114827523Y-104170277D01*
X114802148Y-104192758D01*
X114802141Y-104192765D01*
X114782885Y-104220662D01*
X114773508Y-104232632D01*
X114751016Y-104258022D01*
X114735258Y-104288045D01*
X114727389Y-104301061D01*
X114708131Y-104328961D01*
X114708129Y-104328964D01*
X114696104Y-104360670D01*
X114689864Y-104374534D01*
X114674110Y-104404554D01*
X114674107Y-104404561D01*
X114665992Y-104437484D01*
X114661467Y-104452005D01*
X114649443Y-104483709D01*
X114649442Y-104483714D01*
X114645358Y-104517355D01*
X114642616Y-104532321D01*
X114634500Y-104565247D01*
X114634500Y-104599161D01*
X114633581Y-104614350D01*
X114629495Y-104647998D01*
X114629495Y-104648000D01*
X114633581Y-104681649D01*
X114634500Y-104696838D01*
X114634500Y-104730755D01*
X114642614Y-104763670D01*
X114645357Y-104778637D01*
X114649442Y-104812286D01*
X114649444Y-104812293D01*
X114661465Y-104843990D01*
X114665991Y-104858512D01*
X114674107Y-104891438D01*
X114689863Y-104921460D01*
X114696105Y-104935329D01*
X114708130Y-104967035D01*
X114708131Y-104967036D01*
X114708132Y-104967039D01*
X114727388Y-104994937D01*
X114735257Y-105007953D01*
X114751016Y-105037977D01*
X114751015Y-105037977D01*
X114751017Y-105037979D01*
X114773505Y-105063363D01*
X114782884Y-105075334D01*
X114802143Y-105103236D01*
X114802145Y-105103238D01*
X114827520Y-105125718D01*
X114838280Y-105136478D01*
X114860763Y-105161856D01*
X114888665Y-105181115D01*
X114900636Y-105190494D01*
X114926021Y-105212983D01*
X114956046Y-105228741D01*
X114969059Y-105236608D01*
X114996965Y-105255870D01*
X115028672Y-105267895D01*
X115042543Y-105274138D01*
X115072562Y-105289893D01*
X115072565Y-105289893D01*
X115072568Y-105289895D01*
X115105479Y-105298006D01*
X115120006Y-105302532D01*
X115151709Y-105314556D01*
X115185365Y-105318642D01*
X115200330Y-105321385D01*
X115201150Y-105321587D01*
X115233251Y-105329500D01*
X115274781Y-105329500D01*
X120117614Y-105329500D01*
X120125220Y-105329729D01*
X120183450Y-105333252D01*
X120240890Y-105322725D01*
X120248323Y-105321594D01*
X120306291Y-105314556D01*
X120315043Y-105311236D01*
X120337015Y-105305110D01*
X120346237Y-105303421D01*
X120399460Y-105279466D01*
X120406462Y-105276565D01*
X120461035Y-105255870D01*
X120468746Y-105250546D01*
X120488612Y-105239342D01*
X120497155Y-105235498D01*
X120543119Y-105199485D01*
X120549202Y-105195011D01*
X120597237Y-105161856D01*
X120635945Y-105118162D01*
X120641130Y-105112655D01*
X123943381Y-101810405D01*
X124005693Y-101776379D01*
X124032476Y-101773500D01*
X126213614Y-101773500D01*
X126221220Y-101773729D01*
X126279450Y-101777252D01*
X126336890Y-101766725D01*
X126344323Y-101765594D01*
X126402291Y-101758556D01*
X126411043Y-101755236D01*
X126433015Y-101749110D01*
X126442237Y-101747421D01*
X126495460Y-101723466D01*
X126502462Y-101720565D01*
X126557035Y-101699870D01*
X126564746Y-101694546D01*
X126584612Y-101683342D01*
X126593155Y-101679498D01*
X126639119Y-101643485D01*
X126645202Y-101639011D01*
X126693237Y-101605856D01*
X126731945Y-101562162D01*
X126737130Y-101556655D01*
X127964655Y-100329130D01*
X127970162Y-100323945D01*
X128013856Y-100285237D01*
X128047011Y-100237202D01*
X128051485Y-100231119D01*
X128087498Y-100185155D01*
X128091342Y-100176612D01*
X128102546Y-100156746D01*
X128107870Y-100149035D01*
X128128565Y-100094462D01*
X128131470Y-100087451D01*
X128155421Y-100034237D01*
X128157110Y-100025015D01*
X128163235Y-100003046D01*
X128166556Y-99994291D01*
X128173589Y-99936361D01*
X128174729Y-99928867D01*
X128185253Y-99871450D01*
X128181730Y-99813210D01*
X128181500Y-99805602D01*
X128181500Y-99533128D01*
X128201502Y-99465007D01*
X128222613Y-99440014D01*
X128376880Y-99299382D01*
X128428091Y-99231567D01*
X128485104Y-99189261D01*
X128528641Y-99181500D01*
X128645523Y-99181500D01*
X128713644Y-99201502D01*
X128734618Y-99218405D01*
X130530219Y-101014005D01*
X130544819Y-101031523D01*
X130550144Y-101039237D01*
X130593816Y-101077927D01*
X130593824Y-101077934D01*
X130599351Y-101083137D01*
X130611253Y-101095039D01*
X130624499Y-101105416D01*
X130630326Y-101110272D01*
X130674021Y-101148983D01*
X130682324Y-101153340D01*
X130701463Y-101165715D01*
X130708845Y-101171498D01*
X130762068Y-101195451D01*
X130768873Y-101198765D01*
X130820562Y-101225893D01*
X130829661Y-101228135D01*
X130851212Y-101235572D01*
X130859763Y-101239421D01*
X130917151Y-101249937D01*
X130924584Y-101251533D01*
X130981243Y-101265499D01*
X130981250Y-101265499D01*
X130981251Y-101265500D01*
X130990627Y-101265500D01*
X131013336Y-101267563D01*
X131022550Y-101269252D01*
X131080778Y-101265729D01*
X131088385Y-101265500D01*
X131146750Y-101265500D01*
X131155840Y-101263259D01*
X131178402Y-101259824D01*
X131187746Y-101259260D01*
X131243467Y-101241895D01*
X131250785Y-101239856D01*
X131252558Y-101239419D01*
X131307438Y-101225893D01*
X131315726Y-101221543D01*
X131336806Y-101212810D01*
X131345750Y-101210024D01*
X131395722Y-101179814D01*
X131402293Y-101176108D01*
X131453979Y-101148983D01*
X131460989Y-101142771D01*
X131479362Y-101129253D01*
X131487381Y-101124406D01*
X131528672Y-101083114D01*
X131534183Y-101077927D01*
X131577856Y-101039237D01*
X131583176Y-101031529D01*
X131597777Y-101014009D01*
X131604406Y-101007381D01*
X131634596Y-100957438D01*
X131638707Y-100951077D01*
X131671870Y-100903035D01*
X131675192Y-100894273D01*
X131685177Y-100873766D01*
X131690024Y-100865750D01*
X131707399Y-100809988D01*
X131709853Y-100802878D01*
X131730556Y-100748291D01*
X131731685Y-100738990D01*
X131736471Y-100716692D01*
X131739260Y-100707746D01*
X131742782Y-100649505D01*
X131743471Y-100641922D01*
X131745239Y-100627365D01*
X131750505Y-100584000D01*
X131749374Y-100574692D01*
X131748686Y-100551903D01*
X131749252Y-100542550D01*
X131738727Y-100485118D01*
X131737594Y-100477675D01*
X131730556Y-100419709D01*
X131727233Y-100410947D01*
X131721110Y-100388981D01*
X131719421Y-100379763D01*
X131695459Y-100326523D01*
X131692560Y-100319523D01*
X131679557Y-100285236D01*
X131671870Y-100264965D01*
X131666546Y-100257253D01*
X131655344Y-100237391D01*
X131651498Y-100228845D01*
X131651496Y-100228842D01*
X131651493Y-100228837D01*
X131615517Y-100182917D01*
X131611007Y-100176789D01*
X131577855Y-100128762D01*
X131577853Y-100128760D01*
X131534173Y-100090062D01*
X131528632Y-100084846D01*
X129479145Y-98035358D01*
X129473928Y-98029817D01*
X129435235Y-97986142D01*
X129435234Y-97986141D01*
X129387221Y-97953000D01*
X129381093Y-97948491D01*
X129335157Y-97912503D01*
X129335155Y-97912502D01*
X129326601Y-97908652D01*
X129306745Y-97897452D01*
X129299039Y-97892133D01*
X129299035Y-97892130D01*
X129254816Y-97875360D01*
X129244475Y-97871438D01*
X129237445Y-97868526D01*
X129233736Y-97866857D01*
X129184237Y-97844579D01*
X129184235Y-97844578D01*
X129175008Y-97842887D01*
X129153054Y-97836767D01*
X129144291Y-97833444D01*
X129086373Y-97826410D01*
X129078856Y-97825266D01*
X129021450Y-97814748D01*
X128963221Y-97818270D01*
X128955614Y-97818500D01*
X128528641Y-97818500D01*
X128460520Y-97798498D01*
X128428091Y-97768433D01*
X128376880Y-97700618D01*
X128376878Y-97700616D01*
X128376875Y-97700612D01*
X128215068Y-97553106D01*
X128215065Y-97553104D01*
X128028902Y-97437836D01*
X128028897Y-97437834D01*
X128028896Y-97437833D01*
X128012554Y-97431502D01*
X127824721Y-97358735D01*
X127824722Y-97358735D01*
X127824719Y-97358734D01*
X127824718Y-97358734D01*
X127609482Y-97318500D01*
X127390518Y-97318500D01*
X127175282Y-97358734D01*
X127175277Y-97358735D01*
X126971108Y-97437831D01*
X126971097Y-97437836D01*
X126784934Y-97553104D01*
X126784931Y-97553106D01*
X126623124Y-97700612D01*
X126623122Y-97700614D01*
X126491165Y-97875355D01*
X126491164Y-97875356D01*
X126420290Y-98017690D01*
X126372021Y-98069753D01*
X126303267Y-98087455D01*
X126235856Y-98065175D01*
X126191192Y-98009988D01*
X126181500Y-97961526D01*
X126181500Y-97663800D01*
X126181500Y-97663794D01*
X126170696Y-97589639D01*
X126152834Y-97553103D01*
X126114776Y-97475254D01*
X126114775Y-97475252D01*
X126024747Y-97385224D01*
X126024745Y-97385223D01*
X125910362Y-97329304D01*
X125836207Y-97318500D01*
X125836206Y-97318500D01*
X124163794Y-97318500D01*
X124163792Y-97318500D01*
X124089638Y-97329304D01*
X124089636Y-97329304D01*
X123975254Y-97385223D01*
X123975252Y-97385224D01*
X123885224Y-97475252D01*
X123885223Y-97475254D01*
X123829304Y-97589636D01*
X123829304Y-97589638D01*
X123818500Y-97663792D01*
X123818500Y-97692500D01*
X123798498Y-97760621D01*
X123744842Y-97807114D01*
X123692500Y-97818500D01*
X123218477Y-97818500D01*
X123150356Y-97798498D01*
X123129382Y-97781595D01*
X122883145Y-97535358D01*
X122877928Y-97529817D01*
X122839235Y-97486142D01*
X122839234Y-97486141D01*
X122791221Y-97453000D01*
X122785093Y-97448491D01*
X122739157Y-97412503D01*
X122739155Y-97412502D01*
X122730601Y-97408652D01*
X122710745Y-97397452D01*
X122703039Y-97392133D01*
X122703035Y-97392130D01*
X122682416Y-97384310D01*
X122648475Y-97371438D01*
X122641445Y-97368526D01*
X122619688Y-97358734D01*
X122588237Y-97344579D01*
X122588235Y-97344578D01*
X122579008Y-97342887D01*
X122557054Y-97336767D01*
X122548291Y-97333444D01*
X122490373Y-97326410D01*
X122482856Y-97325266D01*
X122425450Y-97314748D01*
X122367221Y-97318270D01*
X122359614Y-97318500D01*
X120357476Y-97318500D01*
X120289355Y-97298498D01*
X120242862Y-97244842D01*
X120232758Y-97174568D01*
X120262252Y-97109988D01*
X120268381Y-97103405D01*
X122673381Y-94698405D01*
X122735693Y-94664379D01*
X122762476Y-94661500D01*
X131145523Y-94661500D01*
X131213644Y-94681502D01*
X131234618Y-94698405D01*
X134781595Y-98245381D01*
X134815621Y-98307693D01*
X134818500Y-98334476D01*
X134818500Y-99336207D01*
X134829304Y-99410361D01*
X134829304Y-99410363D01*
X134885223Y-99524745D01*
X134885224Y-99524747D01*
X134975252Y-99614775D01*
X134975254Y-99614776D01*
X135089639Y-99670696D01*
X135163794Y-99681500D01*
X135192500Y-99681500D01*
X135260621Y-99701502D01*
X135307114Y-99755158D01*
X135318500Y-99807500D01*
X135318500Y-102447613D01*
X135318270Y-102455220D01*
X135314748Y-102513450D01*
X135325266Y-102570856D01*
X135326410Y-102578373D01*
X135333444Y-102636291D01*
X135336767Y-102645054D01*
X135342887Y-102667008D01*
X135344578Y-102676234D01*
X135368526Y-102729445D01*
X135371438Y-102736475D01*
X135392130Y-102791035D01*
X135392133Y-102791039D01*
X135397452Y-102798745D01*
X135408652Y-102818601D01*
X135412502Y-102827155D01*
X135412503Y-102827157D01*
X135448491Y-102873093D01*
X135453000Y-102879221D01*
X135486141Y-102927234D01*
X135486142Y-102927235D01*
X135529817Y-102965928D01*
X135535358Y-102971145D01*
X136880221Y-104316008D01*
X136894821Y-104333526D01*
X136900141Y-104341234D01*
X136900142Y-104341235D01*
X136900143Y-104341236D01*
X136900144Y-104341237D01*
X136943816Y-104379927D01*
X136949343Y-104385130D01*
X136961253Y-104397040D01*
X136974505Y-104407422D01*
X136980348Y-104412293D01*
X137024016Y-104450979D01*
X137024021Y-104450983D01*
X137032323Y-104455340D01*
X137051467Y-104467718D01*
X137058845Y-104473498D01*
X137112068Y-104497451D01*
X137118873Y-104500765D01*
X137170562Y-104527893D01*
X137179661Y-104530135D01*
X137201212Y-104537572D01*
X137209763Y-104541421D01*
X137267151Y-104551937D01*
X137274584Y-104553533D01*
X137331243Y-104567499D01*
X137331250Y-104567499D01*
X137331251Y-104567500D01*
X137340627Y-104567500D01*
X137363336Y-104569563D01*
X137372550Y-104571252D01*
X137430779Y-104567729D01*
X137438386Y-104567500D01*
X137496749Y-104567500D01*
X137505839Y-104565258D01*
X137528398Y-104561824D01*
X137537747Y-104561260D01*
X137593457Y-104543899D01*
X137600765Y-104541861D01*
X137657438Y-104527893D01*
X137665732Y-104523539D01*
X137686794Y-104514814D01*
X137695750Y-104512024D01*
X137745722Y-104481814D01*
X137752293Y-104478108D01*
X137803979Y-104450983D01*
X137810989Y-104444771D01*
X137829362Y-104431253D01*
X137837381Y-104426406D01*
X137878672Y-104385114D01*
X137884183Y-104379927D01*
X137927856Y-104341237D01*
X137933176Y-104333529D01*
X137947777Y-104316009D01*
X137954406Y-104309381D01*
X137984596Y-104259438D01*
X137988707Y-104253077D01*
X138021870Y-104205035D01*
X138025192Y-104196273D01*
X138035177Y-104175766D01*
X138040024Y-104167750D01*
X138057383Y-104112040D01*
X138059863Y-104104852D01*
X138068144Y-104083017D01*
X138080556Y-104050291D01*
X138081685Y-104040989D01*
X138086470Y-104018699D01*
X138089260Y-104009747D01*
X138092783Y-103951483D01*
X138093466Y-103943958D01*
X138100505Y-103886000D01*
X138099374Y-103876692D01*
X138098686Y-103853903D01*
X138099252Y-103844550D01*
X138088727Y-103787118D01*
X138087594Y-103779675D01*
X138080556Y-103721709D01*
X138077233Y-103712947D01*
X138071110Y-103690981D01*
X138069421Y-103681763D01*
X138045459Y-103628523D01*
X138042560Y-103621523D01*
X138021870Y-103566966D01*
X138021870Y-103566965D01*
X138016546Y-103559253D01*
X138005344Y-103539391D01*
X138001498Y-103530845D01*
X137965501Y-103484898D01*
X137961011Y-103478797D01*
X137927856Y-103430763D01*
X137884181Y-103392070D01*
X137878640Y-103386853D01*
X136718405Y-102226618D01*
X136684379Y-102164306D01*
X136681500Y-102137523D01*
X136681500Y-99807500D01*
X136701502Y-99739379D01*
X136755158Y-99692886D01*
X136807500Y-99681500D01*
X136836200Y-99681500D01*
X136836206Y-99681500D01*
X136910361Y-99670696D01*
X137024746Y-99614776D01*
X137114776Y-99524746D01*
X137170696Y-99410361D01*
X137181500Y-99336206D01*
X137181500Y-99038473D01*
X137201502Y-98970352D01*
X137255158Y-98923859D01*
X137325432Y-98913755D01*
X137390012Y-98943249D01*
X137420290Y-98982310D01*
X137491161Y-99124639D01*
X137491165Y-99124644D01*
X137623122Y-99299385D01*
X137623124Y-99299387D01*
X137784931Y-99446893D01*
X137784934Y-99446895D01*
X137971097Y-99562163D01*
X137971099Y-99562163D01*
X137971104Y-99562167D01*
X138175282Y-99641266D01*
X138390518Y-99681500D01*
X138390520Y-99681500D01*
X138609480Y-99681500D01*
X138609482Y-99681500D01*
X138824718Y-99641266D01*
X139028896Y-99562167D01*
X139215063Y-99446897D01*
X139215065Y-99446894D01*
X139215068Y-99446893D01*
X139376875Y-99299387D01*
X139376877Y-99299385D01*
X139376879Y-99299383D01*
X139376880Y-99299382D01*
X139508835Y-99124644D01*
X139508836Y-99124640D01*
X139508838Y-99124639D01*
X139606432Y-98928645D01*
X139606433Y-98928641D01*
X139606436Y-98928636D01*
X139666359Y-98718030D01*
X139686562Y-98500000D01*
X139666359Y-98281970D01*
X139606436Y-98071364D01*
X139606434Y-98071360D01*
X139606432Y-98071354D01*
X139508838Y-97875360D01*
X139508834Y-97875355D01*
X139482758Y-97840825D01*
X139376880Y-97700618D01*
X139376877Y-97700614D01*
X139376875Y-97700612D01*
X139215068Y-97553106D01*
X139215065Y-97553104D01*
X139028902Y-97437836D01*
X139028897Y-97437834D01*
X139028896Y-97437833D01*
X139012554Y-97431502D01*
X138824721Y-97358735D01*
X138824722Y-97358735D01*
X138824719Y-97358734D01*
X138824718Y-97358734D01*
X138609482Y-97318500D01*
X138390518Y-97318500D01*
X138175282Y-97358734D01*
X138175277Y-97358735D01*
X137971108Y-97437831D01*
X137971097Y-97437836D01*
X137784934Y-97553104D01*
X137784931Y-97553106D01*
X137623124Y-97700612D01*
X137623122Y-97700614D01*
X137491165Y-97875355D01*
X137491164Y-97875356D01*
X137420290Y-98017690D01*
X137372021Y-98069753D01*
X137303267Y-98087455D01*
X137235856Y-98065175D01*
X137191192Y-98009988D01*
X137181500Y-97961526D01*
X137181500Y-97663800D01*
X137181500Y-97663794D01*
X137170696Y-97589639D01*
X137152834Y-97553103D01*
X137114776Y-97475254D01*
X137114775Y-97475252D01*
X137024747Y-97385224D01*
X137024745Y-97385223D01*
X136910362Y-97329304D01*
X136836207Y-97318500D01*
X136836206Y-97318500D01*
X135834476Y-97318500D01*
X135766355Y-97298498D01*
X135745381Y-97281595D01*
X131979145Y-93515358D01*
X131973928Y-93509817D01*
X131935235Y-93466142D01*
X131935234Y-93466141D01*
X131887221Y-93433000D01*
X131881093Y-93428491D01*
X131835157Y-93392503D01*
X131835146Y-93392498D01*
X131826601Y-93388652D01*
X131806745Y-93377452D01*
X131799039Y-93372133D01*
X131799035Y-93372130D01*
X131778416Y-93364310D01*
X131744475Y-93351438D01*
X131737445Y-93348526D01*
X131733736Y-93346857D01*
X131684237Y-93324579D01*
X131684235Y-93324578D01*
X131675008Y-93322887D01*
X131653054Y-93316767D01*
X131644291Y-93313444D01*
X131586373Y-93306410D01*
X131578856Y-93305266D01*
X131521450Y-93294748D01*
X131463221Y-93298270D01*
X131455614Y-93298500D01*
X122452385Y-93298500D01*
X122444778Y-93298270D01*
X122386550Y-93294748D01*
X122386549Y-93294748D01*
X122386548Y-93294748D01*
X122329141Y-93305266D01*
X122321626Y-93306410D01*
X122263709Y-93313444D01*
X122263704Y-93313445D01*
X122254948Y-93316766D01*
X122232997Y-93322886D01*
X122223764Y-93324578D01*
X122170563Y-93348522D01*
X122163535Y-93351433D01*
X122108964Y-93372130D01*
X122108963Y-93372130D01*
X122101245Y-93377458D01*
X122081392Y-93388655D01*
X122072852Y-93392498D01*
X122072842Y-93392505D01*
X122026925Y-93428477D01*
X122020801Y-93432984D01*
X121972760Y-93466146D01*
X121934063Y-93509825D01*
X121928847Y-93515365D01*
X119432618Y-96011595D01*
X119370306Y-96045620D01*
X119343523Y-96048500D01*
X118780523Y-96048500D01*
X118712402Y-96028498D01*
X118665909Y-95974842D01*
X118655805Y-95904568D01*
X118667399Y-95867011D01*
X118702999Y-95794433D01*
X118723826Y-95714000D01*
X117659651Y-95714000D01*
X117705610Y-95685543D01*
X117773201Y-95596038D01*
X117803895Y-95488160D01*
X117793546Y-95376479D01*
X117743552Y-95276078D01*
X117660666Y-95200516D01*
X117556080Y-95160000D01*
X117472198Y-95160000D01*
X117389750Y-95175412D01*
X117294390Y-95234457D01*
X117226799Y-95323962D01*
X117196105Y-95431840D01*
X117206454Y-95543521D01*
X117256448Y-95643922D01*
X117333318Y-95714000D01*
X116272479Y-95714000D01*
X116333491Y-95878740D01*
X116338392Y-95949567D01*
X116304223Y-96011801D01*
X116241833Y-96045682D01*
X116215334Y-96048500D01*
X115384386Y-96048500D01*
X115376779Y-96048270D01*
X115318550Y-96044748D01*
X115318549Y-96044748D01*
X115318548Y-96044748D01*
X115261141Y-96055266D01*
X115253626Y-96056410D01*
X115195709Y-96063444D01*
X115195704Y-96063445D01*
X115186948Y-96066766D01*
X115164997Y-96072886D01*
X115155764Y-96074578D01*
X115102548Y-96098528D01*
X115095522Y-96101438D01*
X115040965Y-96122130D01*
X115040961Y-96122132D01*
X115033248Y-96127456D01*
X115013398Y-96138652D01*
X115004844Y-96142502D01*
X114958899Y-96178497D01*
X114952772Y-96183005D01*
X114904761Y-96216145D01*
X114866070Y-96259817D01*
X114860854Y-96265357D01*
X112311357Y-98814854D01*
X112305817Y-98820070D01*
X112262145Y-98858761D01*
X112229005Y-98906772D01*
X112224497Y-98912899D01*
X112188502Y-98958844D01*
X112184652Y-98967398D01*
X112173456Y-98987248D01*
X112168132Y-98994961D01*
X112168130Y-98994965D01*
X112147438Y-99049522D01*
X112144528Y-99056548D01*
X112120578Y-99109764D01*
X112118886Y-99118997D01*
X112112766Y-99140948D01*
X112109445Y-99149704D01*
X112109444Y-99149709D01*
X112102410Y-99207626D01*
X112101266Y-99215141D01*
X112090748Y-99272548D01*
X112094270Y-99330778D01*
X112094500Y-99338385D01*
X112094500Y-101265522D01*
X112074498Y-101333643D01*
X112057595Y-101354617D01*
X110025357Y-103386854D01*
X110019817Y-103392070D01*
X109976145Y-103430761D01*
X109943005Y-103478772D01*
X109938497Y-103484899D01*
X109902502Y-103530844D01*
X109898652Y-103539398D01*
X109887456Y-103559248D01*
X109882132Y-103566961D01*
X109882130Y-103566965D01*
X109861438Y-103621522D01*
X109858528Y-103628548D01*
X109834578Y-103681764D01*
X109832886Y-103690997D01*
X109826766Y-103712948D01*
X109823445Y-103721704D01*
X109823444Y-103721709D01*
X109816410Y-103779626D01*
X109815266Y-103787141D01*
X109804748Y-103844548D01*
X109804748Y-103844550D01*
X109807255Y-103885999D01*
X109808270Y-103902778D01*
X109808500Y-103910385D01*
X109808500Y-104052500D01*
X109788498Y-104120621D01*
X109734842Y-104167114D01*
X109682500Y-104178500D01*
X109603792Y-104178500D01*
X109529638Y-104189304D01*
X109529636Y-104189304D01*
X109415254Y-104245223D01*
X109415252Y-104245224D01*
X109325224Y-104335252D01*
X109325223Y-104335254D01*
X109269304Y-104449636D01*
X109269304Y-104449638D01*
X109258500Y-104523792D01*
X109258500Y-106296207D01*
X105075500Y-106296207D01*
X105075500Y-97406207D01*
X109258500Y-97406207D01*
X109269304Y-97480361D01*
X109269304Y-97480363D01*
X109325223Y-97594745D01*
X109325224Y-97594747D01*
X109415252Y-97684775D01*
X109415254Y-97684776D01*
X109529639Y-97740696D01*
X109603794Y-97751500D01*
X109603800Y-97751500D01*
X111376200Y-97751500D01*
X111376206Y-97751500D01*
X111450361Y-97740696D01*
X111564746Y-97684776D01*
X111654776Y-97594746D01*
X111710696Y-97480361D01*
X111721500Y-97406206D01*
X111721500Y-95633794D01*
X111710696Y-95559639D01*
X111702816Y-95543521D01*
X111654776Y-95445254D01*
X111654775Y-95445252D01*
X111564747Y-95355224D01*
X111564745Y-95355223D01*
X111450362Y-95299304D01*
X111376207Y-95288500D01*
X111376206Y-95288500D01*
X109603794Y-95288500D01*
X109603792Y-95288500D01*
X109529638Y-95299304D01*
X109529636Y-95299304D01*
X109415254Y-95355223D01*
X109415252Y-95355224D01*
X109325224Y-95445252D01*
X109325223Y-95445254D01*
X109269304Y-95559636D01*
X109269304Y-95559638D01*
X109258500Y-95633792D01*
X109258500Y-97406207D01*
X105075500Y-97406207D01*
X105075500Y-95206000D01*
X116276174Y-95206000D01*
X117246000Y-95206000D01*
X117246000Y-94502000D01*
X117754000Y-94502000D01*
X117754000Y-95206000D01*
X118727520Y-95206000D01*
X118664534Y-95035929D01*
X118664533Y-95035927D01*
X118561471Y-94870579D01*
X118561470Y-94870578D01*
X118427228Y-94729357D01*
X118267318Y-94618056D01*
X118088267Y-94541219D01*
X117897418Y-94502000D01*
X117754000Y-94502000D01*
X117246000Y-94502000D01*
X117151409Y-94502000D01*
X117006162Y-94516770D01*
X116820258Y-94575098D01*
X116649898Y-94669654D01*
X116502071Y-94796561D01*
X116502065Y-94796567D01*
X116382805Y-94950640D01*
X116297001Y-95125563D01*
X116297000Y-95125564D01*
X116276174Y-95206000D01*
X105075500Y-95206000D01*
X105075500Y-91508257D01*
X105076578Y-91491812D01*
X105085439Y-91424500D01*
X105087799Y-91406576D01*
X105096312Y-91374806D01*
X105126025Y-91303074D01*
X105142467Y-91274593D01*
X105189738Y-91212988D01*
X105212988Y-91189738D01*
X105274593Y-91142467D01*
X105303074Y-91126025D01*
X105374806Y-91096312D01*
X105406576Y-91087799D01*
X105481982Y-91077871D01*
X105491812Y-91076578D01*
X105508257Y-91075500D01*
X105524531Y-91075500D01*
X108298500Y-91075500D01*
X108366621Y-91095502D01*
G37*
%TD.AperFunction*%
%TD*%
M02*
