%TF.GenerationSoftware,KiCad,Pcbnew,9.0.5*%
%TF.CreationDate,2026-01-24T20:46:11+00:00*%
%TF.ProjectId,Spectrum 48K Video Mod,53706563-7472-4756-9d20-34384b205669,1.0*%
%TF.SameCoordinates,Original*%
%TF.FileFunction,Legend,Bot*%
%TF.FilePolarity,Positive*%
%FSLAX46Y46*%
G04 Gerber Fmt 4.6, Leading zero omitted, Abs format (unit mm)*
G04 Created by KiCad (PCBNEW 9.0.5) date 2026-01-24 20:46:11*
%MOMM*%
%LPD*%
G01*
G04 APERTURE LIST*
%ADD10C,0.150000*%
G04 APERTURE END LIST*
D10*
X140503087Y-105559065D02*
X140360230Y-105606684D01*
X140360230Y-105606684D02*
X140312611Y-105654303D01*
X140312611Y-105654303D02*
X140264992Y-105749541D01*
X140264992Y-105749541D02*
X140264992Y-105892398D01*
X140264992Y-105892398D02*
X140312611Y-105987636D01*
X140312611Y-105987636D02*
X140360230Y-106035256D01*
X140360230Y-106035256D02*
X140455468Y-106082875D01*
X140455468Y-106082875D02*
X140836420Y-106082875D01*
X140836420Y-106082875D02*
X140836420Y-105082875D01*
X140836420Y-105082875D02*
X140503087Y-105082875D01*
X140503087Y-105082875D02*
X140407849Y-105130494D01*
X140407849Y-105130494D02*
X140360230Y-105178113D01*
X140360230Y-105178113D02*
X140312611Y-105273351D01*
X140312611Y-105273351D02*
X140312611Y-105368589D01*
X140312611Y-105368589D02*
X140360230Y-105463827D01*
X140360230Y-105463827D02*
X140407849Y-105511446D01*
X140407849Y-105511446D02*
X140503087Y-105559065D01*
X140503087Y-105559065D02*
X140836420Y-105559065D01*
X139407849Y-106082875D02*
X139407849Y-105559065D01*
X139407849Y-105559065D02*
X139455468Y-105463827D01*
X139455468Y-105463827D02*
X139550706Y-105416208D01*
X139550706Y-105416208D02*
X139741182Y-105416208D01*
X139741182Y-105416208D02*
X139836420Y-105463827D01*
X139407849Y-106035256D02*
X139503087Y-106082875D01*
X139503087Y-106082875D02*
X139741182Y-106082875D01*
X139741182Y-106082875D02*
X139836420Y-106035256D01*
X139836420Y-106035256D02*
X139884039Y-105940017D01*
X139884039Y-105940017D02*
X139884039Y-105844779D01*
X139884039Y-105844779D02*
X139836420Y-105749541D01*
X139836420Y-105749541D02*
X139741182Y-105701922D01*
X139741182Y-105701922D02*
X139503087Y-105701922D01*
X139503087Y-105701922D02*
X139407849Y-105654303D01*
X138931658Y-106082875D02*
X138931658Y-105416208D01*
X138931658Y-105511446D02*
X138884039Y-105463827D01*
X138884039Y-105463827D02*
X138788801Y-105416208D01*
X138788801Y-105416208D02*
X138645944Y-105416208D01*
X138645944Y-105416208D02*
X138550706Y-105463827D01*
X138550706Y-105463827D02*
X138503087Y-105559065D01*
X138503087Y-105559065D02*
X138503087Y-106082875D01*
X138503087Y-105559065D02*
X138455468Y-105463827D01*
X138455468Y-105463827D02*
X138360230Y-105416208D01*
X138360230Y-105416208D02*
X138217373Y-105416208D01*
X138217373Y-105416208D02*
X138122134Y-105463827D01*
X138122134Y-105463827D02*
X138074515Y-105559065D01*
X138074515Y-105559065D02*
X138074515Y-106082875D01*
X137598325Y-106082875D02*
X137598325Y-105082875D01*
X137598325Y-105463827D02*
X137503087Y-105416208D01*
X137503087Y-105416208D02*
X137312611Y-105416208D01*
X137312611Y-105416208D02*
X137217373Y-105463827D01*
X137217373Y-105463827D02*
X137169754Y-105511446D01*
X137169754Y-105511446D02*
X137122135Y-105606684D01*
X137122135Y-105606684D02*
X137122135Y-105892398D01*
X137122135Y-105892398D02*
X137169754Y-105987636D01*
X137169754Y-105987636D02*
X137217373Y-106035256D01*
X137217373Y-106035256D02*
X137312611Y-106082875D01*
X137312611Y-106082875D02*
X137503087Y-106082875D01*
X137503087Y-106082875D02*
X137598325Y-106035256D01*
X136550706Y-106082875D02*
X136645944Y-106035256D01*
X136645944Y-106035256D02*
X136693563Y-105940017D01*
X136693563Y-105940017D02*
X136693563Y-105082875D01*
X135788801Y-106035256D02*
X135884039Y-106082875D01*
X135884039Y-106082875D02*
X136074515Y-106082875D01*
X136074515Y-106082875D02*
X136169753Y-106035256D01*
X136169753Y-106035256D02*
X136217372Y-105940017D01*
X136217372Y-105940017D02*
X136217372Y-105559065D01*
X136217372Y-105559065D02*
X136169753Y-105463827D01*
X136169753Y-105463827D02*
X136074515Y-105416208D01*
X136074515Y-105416208D02*
X135884039Y-105416208D01*
X135884039Y-105416208D02*
X135788801Y-105463827D01*
X135788801Y-105463827D02*
X135741182Y-105559065D01*
X135741182Y-105559065D02*
X135741182Y-105654303D01*
X135741182Y-105654303D02*
X136217372Y-105749541D01*
X135407848Y-105416208D02*
X135217372Y-106082875D01*
X135217372Y-106082875D02*
X135026896Y-105606684D01*
X135026896Y-105606684D02*
X134836420Y-106082875D01*
X134836420Y-106082875D02*
X134645944Y-105416208D01*
X133884039Y-106035256D02*
X133979277Y-106082875D01*
X133979277Y-106082875D02*
X134169753Y-106082875D01*
X134169753Y-106082875D02*
X134264991Y-106035256D01*
X134264991Y-106035256D02*
X134312610Y-105940017D01*
X134312610Y-105940017D02*
X134312610Y-105559065D01*
X134312610Y-105559065D02*
X134264991Y-105463827D01*
X134264991Y-105463827D02*
X134169753Y-105416208D01*
X134169753Y-105416208D02*
X133979277Y-105416208D01*
X133979277Y-105416208D02*
X133884039Y-105463827D01*
X133884039Y-105463827D02*
X133836420Y-105559065D01*
X133836420Y-105559065D02*
X133836420Y-105654303D01*
X133836420Y-105654303D02*
X134312610Y-105749541D01*
X133026896Y-106035256D02*
X133122134Y-106082875D01*
X133122134Y-106082875D02*
X133312610Y-106082875D01*
X133312610Y-106082875D02*
X133407848Y-106035256D01*
X133407848Y-106035256D02*
X133455467Y-105940017D01*
X133455467Y-105940017D02*
X133455467Y-105559065D01*
X133455467Y-105559065D02*
X133407848Y-105463827D01*
X133407848Y-105463827D02*
X133312610Y-105416208D01*
X133312610Y-105416208D02*
X133122134Y-105416208D01*
X133122134Y-105416208D02*
X133026896Y-105463827D01*
X133026896Y-105463827D02*
X132979277Y-105559065D01*
X132979277Y-105559065D02*
X132979277Y-105654303D01*
X132979277Y-105654303D02*
X133455467Y-105749541D01*
X132550705Y-105416208D02*
X132550705Y-106082875D01*
X132550705Y-105511446D02*
X132503086Y-105463827D01*
X132503086Y-105463827D02*
X132407848Y-105416208D01*
X132407848Y-105416208D02*
X132264991Y-105416208D01*
X132264991Y-105416208D02*
X132169753Y-105463827D01*
X132169753Y-105463827D02*
X132122134Y-105559065D01*
X132122134Y-105559065D02*
X132122134Y-106082875D01*
X131741181Y-105416208D02*
X131503086Y-106082875D01*
X131264991Y-105416208D02*
X131503086Y-106082875D01*
X131503086Y-106082875D02*
X131598324Y-106320970D01*
X131598324Y-106320970D02*
X131645943Y-106368589D01*
X131645943Y-106368589D02*
X131741181Y-106416208D01*
X130407848Y-105082875D02*
X130884038Y-105082875D01*
X130884038Y-105082875D02*
X130931657Y-105559065D01*
X130931657Y-105559065D02*
X130884038Y-105511446D01*
X130884038Y-105511446D02*
X130788800Y-105463827D01*
X130788800Y-105463827D02*
X130550705Y-105463827D01*
X130550705Y-105463827D02*
X130455467Y-105511446D01*
X130455467Y-105511446D02*
X130407848Y-105559065D01*
X130407848Y-105559065D02*
X130360229Y-105654303D01*
X130360229Y-105654303D02*
X130360229Y-105892398D01*
X130360229Y-105892398D02*
X130407848Y-105987636D01*
X130407848Y-105987636D02*
X130455467Y-106035256D01*
X130455467Y-106035256D02*
X130550705Y-106082875D01*
X130550705Y-106082875D02*
X130788800Y-106082875D01*
X130788800Y-106082875D02*
X130884038Y-106035256D01*
X130884038Y-106035256D02*
X130931657Y-105987636D01*
X130026895Y-105082875D02*
X129360229Y-105082875D01*
X129360229Y-105082875D02*
X129788800Y-106082875D01*
X140884039Y-107645200D02*
X140741182Y-107692819D01*
X140741182Y-107692819D02*
X140503087Y-107692819D01*
X140503087Y-107692819D02*
X140407849Y-107645200D01*
X140407849Y-107645200D02*
X140360230Y-107597580D01*
X140360230Y-107597580D02*
X140312611Y-107502342D01*
X140312611Y-107502342D02*
X140312611Y-107407104D01*
X140312611Y-107407104D02*
X140360230Y-107311866D01*
X140360230Y-107311866D02*
X140407849Y-107264247D01*
X140407849Y-107264247D02*
X140503087Y-107216628D01*
X140503087Y-107216628D02*
X140693563Y-107169009D01*
X140693563Y-107169009D02*
X140788801Y-107121390D01*
X140788801Y-107121390D02*
X140836420Y-107073771D01*
X140836420Y-107073771D02*
X140884039Y-106978533D01*
X140884039Y-106978533D02*
X140884039Y-106883295D01*
X140884039Y-106883295D02*
X140836420Y-106788057D01*
X140836420Y-106788057D02*
X140788801Y-106740438D01*
X140788801Y-106740438D02*
X140693563Y-106692819D01*
X140693563Y-106692819D02*
X140455468Y-106692819D01*
X140455468Y-106692819D02*
X140312611Y-106740438D01*
X139455468Y-107026152D02*
X139455468Y-107692819D01*
X139884039Y-107026152D02*
X139884039Y-107549961D01*
X139884039Y-107549961D02*
X139836420Y-107645200D01*
X139836420Y-107645200D02*
X139741182Y-107692819D01*
X139741182Y-107692819D02*
X139598325Y-107692819D01*
X139598325Y-107692819D02*
X139503087Y-107645200D01*
X139503087Y-107645200D02*
X139455468Y-107597580D01*
X138979277Y-107692819D02*
X138979277Y-106692819D01*
X138979277Y-107073771D02*
X138884039Y-107026152D01*
X138884039Y-107026152D02*
X138693563Y-107026152D01*
X138693563Y-107026152D02*
X138598325Y-107073771D01*
X138598325Y-107073771D02*
X138550706Y-107121390D01*
X138550706Y-107121390D02*
X138503087Y-107216628D01*
X138503087Y-107216628D02*
X138503087Y-107502342D01*
X138503087Y-107502342D02*
X138550706Y-107597580D01*
X138550706Y-107597580D02*
X138598325Y-107645200D01*
X138598325Y-107645200D02*
X138693563Y-107692819D01*
X138693563Y-107692819D02*
X138884039Y-107692819D01*
X138884039Y-107692819D02*
X138979277Y-107645200D01*
X138074515Y-107692819D02*
X138074515Y-107026152D01*
X138074515Y-107121390D02*
X138026896Y-107073771D01*
X138026896Y-107073771D02*
X137931658Y-107026152D01*
X137931658Y-107026152D02*
X137788801Y-107026152D01*
X137788801Y-107026152D02*
X137693563Y-107073771D01*
X137693563Y-107073771D02*
X137645944Y-107169009D01*
X137645944Y-107169009D02*
X137645944Y-107692819D01*
X137645944Y-107169009D02*
X137598325Y-107073771D01*
X137598325Y-107073771D02*
X137503087Y-107026152D01*
X137503087Y-107026152D02*
X137360230Y-107026152D01*
X137360230Y-107026152D02*
X137264991Y-107073771D01*
X137264991Y-107073771D02*
X137217372Y-107169009D01*
X137217372Y-107169009D02*
X137217372Y-107692819D01*
X136360230Y-107645200D02*
X136455468Y-107692819D01*
X136455468Y-107692819D02*
X136645944Y-107692819D01*
X136645944Y-107692819D02*
X136741182Y-107645200D01*
X136741182Y-107645200D02*
X136788801Y-107549961D01*
X136788801Y-107549961D02*
X136788801Y-107169009D01*
X136788801Y-107169009D02*
X136741182Y-107073771D01*
X136741182Y-107073771D02*
X136645944Y-107026152D01*
X136645944Y-107026152D02*
X136455468Y-107026152D01*
X136455468Y-107026152D02*
X136360230Y-107073771D01*
X136360230Y-107073771D02*
X136312611Y-107169009D01*
X136312611Y-107169009D02*
X136312611Y-107264247D01*
X136312611Y-107264247D02*
X136788801Y-107359485D01*
X135931658Y-107645200D02*
X135836420Y-107692819D01*
X135836420Y-107692819D02*
X135645944Y-107692819D01*
X135645944Y-107692819D02*
X135550706Y-107645200D01*
X135550706Y-107645200D02*
X135503087Y-107549961D01*
X135503087Y-107549961D02*
X135503087Y-107502342D01*
X135503087Y-107502342D02*
X135550706Y-107407104D01*
X135550706Y-107407104D02*
X135645944Y-107359485D01*
X135645944Y-107359485D02*
X135788801Y-107359485D01*
X135788801Y-107359485D02*
X135884039Y-107311866D01*
X135884039Y-107311866D02*
X135931658Y-107216628D01*
X135931658Y-107216628D02*
X135931658Y-107169009D01*
X135931658Y-107169009D02*
X135884039Y-107073771D01*
X135884039Y-107073771D02*
X135788801Y-107026152D01*
X135788801Y-107026152D02*
X135645944Y-107026152D01*
X135645944Y-107026152D02*
X135550706Y-107073771D01*
X134931658Y-107692819D02*
X135026896Y-107645200D01*
X135026896Y-107645200D02*
X135074515Y-107597580D01*
X135074515Y-107597580D02*
X135122134Y-107502342D01*
X135122134Y-107502342D02*
X135122134Y-107216628D01*
X135122134Y-107216628D02*
X135074515Y-107121390D01*
X135074515Y-107121390D02*
X135026896Y-107073771D01*
X135026896Y-107073771D02*
X134931658Y-107026152D01*
X134931658Y-107026152D02*
X134788801Y-107026152D01*
X134788801Y-107026152D02*
X134693563Y-107073771D01*
X134693563Y-107073771D02*
X134645944Y-107121390D01*
X134645944Y-107121390D02*
X134598325Y-107216628D01*
X134598325Y-107216628D02*
X134598325Y-107502342D01*
X134598325Y-107502342D02*
X134645944Y-107597580D01*
X134645944Y-107597580D02*
X134693563Y-107645200D01*
X134693563Y-107645200D02*
X134788801Y-107692819D01*
X134788801Y-107692819D02*
X134931658Y-107692819D01*
X134169753Y-107026152D02*
X134169753Y-107692819D01*
X134169753Y-107121390D02*
X134122134Y-107073771D01*
X134122134Y-107073771D02*
X134026896Y-107026152D01*
X134026896Y-107026152D02*
X133884039Y-107026152D01*
X133884039Y-107026152D02*
X133788801Y-107073771D01*
X133788801Y-107073771D02*
X133741182Y-107169009D01*
X133741182Y-107169009D02*
X133741182Y-107692819D01*
X132169753Y-107169009D02*
X132026896Y-107216628D01*
X132026896Y-107216628D02*
X131979277Y-107264247D01*
X131979277Y-107264247D02*
X131931658Y-107359485D01*
X131931658Y-107359485D02*
X131931658Y-107502342D01*
X131931658Y-107502342D02*
X131979277Y-107597580D01*
X131979277Y-107597580D02*
X132026896Y-107645200D01*
X132026896Y-107645200D02*
X132122134Y-107692819D01*
X132122134Y-107692819D02*
X132503086Y-107692819D01*
X132503086Y-107692819D02*
X132503086Y-106692819D01*
X132503086Y-106692819D02*
X132169753Y-106692819D01*
X132169753Y-106692819D02*
X132074515Y-106740438D01*
X132074515Y-106740438D02*
X132026896Y-106788057D01*
X132026896Y-106788057D02*
X131979277Y-106883295D01*
X131979277Y-106883295D02*
X131979277Y-106978533D01*
X131979277Y-106978533D02*
X132026896Y-107073771D01*
X132026896Y-107073771D02*
X132074515Y-107121390D01*
X132074515Y-107121390D02*
X132169753Y-107169009D01*
X132169753Y-107169009D02*
X132503086Y-107169009D01*
X131503086Y-107692819D02*
X131503086Y-107026152D01*
X131503086Y-107216628D02*
X131455467Y-107121390D01*
X131455467Y-107121390D02*
X131407848Y-107073771D01*
X131407848Y-107073771D02*
X131312610Y-107026152D01*
X131312610Y-107026152D02*
X131217372Y-107026152D01*
X130455467Y-107692819D02*
X130455467Y-107169009D01*
X130455467Y-107169009D02*
X130503086Y-107073771D01*
X130503086Y-107073771D02*
X130598324Y-107026152D01*
X130598324Y-107026152D02*
X130788800Y-107026152D01*
X130788800Y-107026152D02*
X130884038Y-107073771D01*
X130455467Y-107645200D02*
X130550705Y-107692819D01*
X130550705Y-107692819D02*
X130788800Y-107692819D01*
X130788800Y-107692819D02*
X130884038Y-107645200D01*
X130884038Y-107645200D02*
X130931657Y-107549961D01*
X130931657Y-107549961D02*
X130931657Y-107454723D01*
X130931657Y-107454723D02*
X130884038Y-107359485D01*
X130884038Y-107359485D02*
X130788800Y-107311866D01*
X130788800Y-107311866D02*
X130550705Y-107311866D01*
X130550705Y-107311866D02*
X130455467Y-107264247D01*
X129979276Y-107692819D02*
X129979276Y-107026152D01*
X129979276Y-106692819D02*
X130026895Y-106740438D01*
X130026895Y-106740438D02*
X129979276Y-106788057D01*
X129979276Y-106788057D02*
X129931657Y-106740438D01*
X129931657Y-106740438D02*
X129979276Y-106692819D01*
X129979276Y-106692819D02*
X129979276Y-106788057D01*
X129503086Y-107026152D02*
X129503086Y-107692819D01*
X129503086Y-107121390D02*
X129455467Y-107073771D01*
X129455467Y-107073771D02*
X129360229Y-107026152D01*
X129360229Y-107026152D02*
X129217372Y-107026152D01*
X129217372Y-107026152D02*
X129122134Y-107073771D01*
X129122134Y-107073771D02*
X129074515Y-107169009D01*
X129074515Y-107169009D02*
X129074515Y-107692819D01*
X127264991Y-107597580D02*
X127312610Y-107645200D01*
X127312610Y-107645200D02*
X127455467Y-107692819D01*
X127455467Y-107692819D02*
X127550705Y-107692819D01*
X127550705Y-107692819D02*
X127693562Y-107645200D01*
X127693562Y-107645200D02*
X127788800Y-107549961D01*
X127788800Y-107549961D02*
X127836419Y-107454723D01*
X127836419Y-107454723D02*
X127884038Y-107264247D01*
X127884038Y-107264247D02*
X127884038Y-107121390D01*
X127884038Y-107121390D02*
X127836419Y-106930914D01*
X127836419Y-106930914D02*
X127788800Y-106835676D01*
X127788800Y-106835676D02*
X127693562Y-106740438D01*
X127693562Y-106740438D02*
X127550705Y-106692819D01*
X127550705Y-106692819D02*
X127455467Y-106692819D01*
X127455467Y-106692819D02*
X127312610Y-106740438D01*
X127312610Y-106740438D02*
X127264991Y-106788057D01*
X126693562Y-107692819D02*
X126788800Y-107645200D01*
X126788800Y-107645200D02*
X126836419Y-107597580D01*
X126836419Y-107597580D02*
X126884038Y-107502342D01*
X126884038Y-107502342D02*
X126884038Y-107216628D01*
X126884038Y-107216628D02*
X126836419Y-107121390D01*
X126836419Y-107121390D02*
X126788800Y-107073771D01*
X126788800Y-107073771D02*
X126693562Y-107026152D01*
X126693562Y-107026152D02*
X126550705Y-107026152D01*
X126550705Y-107026152D02*
X126455467Y-107073771D01*
X126455467Y-107073771D02*
X126407848Y-107121390D01*
X126407848Y-107121390D02*
X126360229Y-107216628D01*
X126360229Y-107216628D02*
X126360229Y-107502342D01*
X126360229Y-107502342D02*
X126407848Y-107597580D01*
X126407848Y-107597580D02*
X126455467Y-107645200D01*
X126455467Y-107645200D02*
X126550705Y-107692819D01*
X126550705Y-107692819D02*
X126693562Y-107692819D01*
X125931657Y-107692819D02*
X125931657Y-107026152D01*
X125931657Y-107216628D02*
X125884038Y-107121390D01*
X125884038Y-107121390D02*
X125836419Y-107073771D01*
X125836419Y-107073771D02*
X125741181Y-107026152D01*
X125741181Y-107026152D02*
X125645943Y-107026152D01*
X125312609Y-107026152D02*
X125312609Y-108026152D01*
X125312609Y-107073771D02*
X125217371Y-107026152D01*
X125217371Y-107026152D02*
X125026895Y-107026152D01*
X125026895Y-107026152D02*
X124931657Y-107073771D01*
X124931657Y-107073771D02*
X124884038Y-107121390D01*
X124884038Y-107121390D02*
X124836419Y-107216628D01*
X124836419Y-107216628D02*
X124836419Y-107502342D01*
X124836419Y-107502342D02*
X124884038Y-107597580D01*
X124884038Y-107597580D02*
X124931657Y-107645200D01*
X124931657Y-107645200D02*
X125026895Y-107692819D01*
X125026895Y-107692819D02*
X125217371Y-107692819D01*
X125217371Y-107692819D02*
X125312609Y-107645200D01*
X124264990Y-107692819D02*
X124360228Y-107645200D01*
X124360228Y-107645200D02*
X124407847Y-107597580D01*
X124407847Y-107597580D02*
X124455466Y-107502342D01*
X124455466Y-107502342D02*
X124455466Y-107216628D01*
X124455466Y-107216628D02*
X124407847Y-107121390D01*
X124407847Y-107121390D02*
X124360228Y-107073771D01*
X124360228Y-107073771D02*
X124264990Y-107026152D01*
X124264990Y-107026152D02*
X124122133Y-107026152D01*
X124122133Y-107026152D02*
X124026895Y-107073771D01*
X124026895Y-107073771D02*
X123979276Y-107121390D01*
X123979276Y-107121390D02*
X123931657Y-107216628D01*
X123931657Y-107216628D02*
X123931657Y-107502342D01*
X123931657Y-107502342D02*
X123979276Y-107597580D01*
X123979276Y-107597580D02*
X124026895Y-107645200D01*
X124026895Y-107645200D02*
X124122133Y-107692819D01*
X124122133Y-107692819D02*
X124264990Y-107692819D01*
X123503085Y-107692819D02*
X123503085Y-107026152D01*
X123503085Y-107216628D02*
X123455466Y-107121390D01*
X123455466Y-107121390D02*
X123407847Y-107073771D01*
X123407847Y-107073771D02*
X123312609Y-107026152D01*
X123312609Y-107026152D02*
X123217371Y-107026152D01*
X122455466Y-107692819D02*
X122455466Y-107169009D01*
X122455466Y-107169009D02*
X122503085Y-107073771D01*
X122503085Y-107073771D02*
X122598323Y-107026152D01*
X122598323Y-107026152D02*
X122788799Y-107026152D01*
X122788799Y-107026152D02*
X122884037Y-107073771D01*
X122455466Y-107645200D02*
X122550704Y-107692819D01*
X122550704Y-107692819D02*
X122788799Y-107692819D01*
X122788799Y-107692819D02*
X122884037Y-107645200D01*
X122884037Y-107645200D02*
X122931656Y-107549961D01*
X122931656Y-107549961D02*
X122931656Y-107454723D01*
X122931656Y-107454723D02*
X122884037Y-107359485D01*
X122884037Y-107359485D02*
X122788799Y-107311866D01*
X122788799Y-107311866D02*
X122550704Y-107311866D01*
X122550704Y-107311866D02*
X122455466Y-107264247D01*
X122122132Y-107026152D02*
X121741180Y-107026152D01*
X121979275Y-106692819D02*
X121979275Y-107549961D01*
X121979275Y-107549961D02*
X121931656Y-107645200D01*
X121931656Y-107645200D02*
X121836418Y-107692819D01*
X121836418Y-107692819D02*
X121741180Y-107692819D01*
X121407846Y-107692819D02*
X121407846Y-107026152D01*
X121407846Y-106692819D02*
X121455465Y-106740438D01*
X121455465Y-106740438D02*
X121407846Y-106788057D01*
X121407846Y-106788057D02*
X121360227Y-106740438D01*
X121360227Y-106740438D02*
X121407846Y-106692819D01*
X121407846Y-106692819D02*
X121407846Y-106788057D01*
X120788799Y-107692819D02*
X120884037Y-107645200D01*
X120884037Y-107645200D02*
X120931656Y-107597580D01*
X120931656Y-107597580D02*
X120979275Y-107502342D01*
X120979275Y-107502342D02*
X120979275Y-107216628D01*
X120979275Y-107216628D02*
X120931656Y-107121390D01*
X120931656Y-107121390D02*
X120884037Y-107073771D01*
X120884037Y-107073771D02*
X120788799Y-107026152D01*
X120788799Y-107026152D02*
X120645942Y-107026152D01*
X120645942Y-107026152D02*
X120550704Y-107073771D01*
X120550704Y-107073771D02*
X120503085Y-107121390D01*
X120503085Y-107121390D02*
X120455466Y-107216628D01*
X120455466Y-107216628D02*
X120455466Y-107502342D01*
X120455466Y-107502342D02*
X120503085Y-107597580D01*
X120503085Y-107597580D02*
X120550704Y-107645200D01*
X120550704Y-107645200D02*
X120645942Y-107692819D01*
X120645942Y-107692819D02*
X120788799Y-107692819D01*
X120026894Y-107026152D02*
X120026894Y-107692819D01*
X120026894Y-107121390D02*
X119979275Y-107073771D01*
X119979275Y-107073771D02*
X119884037Y-107026152D01*
X119884037Y-107026152D02*
X119741180Y-107026152D01*
X119741180Y-107026152D02*
X119645942Y-107073771D01*
X119645942Y-107073771D02*
X119598323Y-107169009D01*
X119598323Y-107169009D02*
X119598323Y-107692819D01*
M02*
