%TF.GenerationSoftware,KiCad,Pcbnew,9.0.5*%
%TF.CreationDate,2026-01-24T20:46:11+00:00*%
%TF.ProjectId,Spectrum 48K Video Mod,53706563-7472-4756-9d20-34384b205669,1.0*%
%TF.SameCoordinates,Original*%
%TF.FileFunction,Soldermask,Bot*%
%TF.FilePolarity,Negative*%
%FSLAX46Y46*%
G04 Gerber Fmt 4.6, Leading zero omitted, Abs format (unit mm)*
G04 Created by KiCad (PCBNEW 9.0.5) date 2026-01-24 20:46:11*
%MOMM*%
%LPD*%
G01*
G04 APERTURE LIST*
%ADD10R,1.600000X1.600000*%
%ADD11C,1.600000*%
%ADD12R,1.700000X1.700000*%
%ADD13R,1.500000X0.900000*%
%ADD14O,1.500000X0.900000*%
%ADD15O,1.600000X1.600000*%
G04 APERTURE END LIST*
D10*
%TO.C,C1*%
X125000000Y-98500000D03*
D11*
X127500000Y-98500000D03*
%TD*%
D10*
%TO.C,C2*%
X136000000Y-98500000D03*
D11*
X138500000Y-98500000D03*
%TD*%
D12*
%TO.C,P1*%
X110490000Y-110490000D03*
%TD*%
%TO.C,P2*%
X110490000Y-105410000D03*
%TD*%
%TO.C,P3*%
X110490000Y-96520000D03*
%TD*%
D13*
%TO.C,Q1*%
X117500000Y-98000000D03*
D14*
X117500000Y-96730000D03*
X117500000Y-95460000D03*
%TD*%
D13*
%TO.C,Q2*%
X138000000Y-109500000D03*
D14*
X138000000Y-110770000D03*
X138000000Y-112040000D03*
%TD*%
D11*
%TO.C,R1*%
X117500000Y-112000000D03*
D15*
X117500000Y-101840000D03*
%TD*%
D11*
%TO.C,R2*%
X134000000Y-109500000D03*
D15*
X123840000Y-109500000D03*
%TD*%
G36*
X121942121Y-113520002D02*
G01*
X121988614Y-113573658D01*
X122000000Y-113626000D01*
X122000000Y-114874000D01*
X121979998Y-114942121D01*
X121926342Y-114988614D01*
X121874000Y-115000000D01*
X117126000Y-115000000D01*
X117057879Y-114979998D01*
X117011386Y-114926342D01*
X117000000Y-114874000D01*
X117000000Y-113626000D01*
X117020002Y-113557879D01*
X117073658Y-113511386D01*
X117126000Y-113500000D01*
X121874000Y-113500000D01*
X121942121Y-113520002D01*
G37*
G36*
X107942121Y-109020002D02*
G01*
X107988614Y-109073658D01*
X108000000Y-109126000D01*
X108000000Y-114874000D01*
X107979998Y-114942121D01*
X107926342Y-114988614D01*
X107874000Y-115000000D01*
X105508258Y-115000000D01*
X105491812Y-114998922D01*
X105387037Y-114985128D01*
X105355265Y-114976615D01*
X105265326Y-114939361D01*
X105236839Y-114922914D01*
X105159606Y-114863650D01*
X105136349Y-114840393D01*
X105077085Y-114763160D01*
X105060638Y-114734673D01*
X105023384Y-114644734D01*
X105014871Y-114612961D01*
X105001078Y-114508187D01*
X105000000Y-114491742D01*
X105000000Y-109126000D01*
X105020002Y-109057879D01*
X105073658Y-109011386D01*
X105126000Y-109000000D01*
X107874000Y-109000000D01*
X107942121Y-109020002D01*
G37*
G36*
X108263931Y-91020002D02*
G01*
X108310424Y-91073658D01*
X108320528Y-91143932D01*
X108291034Y-91208512D01*
X108284905Y-91215095D01*
X105215095Y-94284905D01*
X105152783Y-94318931D01*
X105081968Y-94313866D01*
X105025132Y-94271319D01*
X105000321Y-94204799D01*
X105000000Y-94195810D01*
X105000000Y-91508257D01*
X105001078Y-91491812D01*
X105014871Y-91387038D01*
X105023384Y-91355265D01*
X105060638Y-91265326D01*
X105077085Y-91236839D01*
X105136349Y-91159606D01*
X105159606Y-91136349D01*
X105236839Y-91077085D01*
X105265326Y-91060638D01*
X105355265Y-91023384D01*
X105387038Y-91014871D01*
X105491813Y-91001078D01*
X105508258Y-91000000D01*
X108195810Y-91000000D01*
X108263931Y-91020002D01*
G37*
G36*
X142918032Y-111686134D02*
G01*
X142974868Y-111728681D01*
X142999679Y-111795201D01*
X143000000Y-111804190D01*
X143000000Y-114491742D01*
X142998922Y-114508189D01*
X142985128Y-114612963D01*
X142976615Y-114644734D01*
X142939361Y-114734673D01*
X142922914Y-114763160D01*
X142863650Y-114840393D01*
X142840393Y-114863650D01*
X142763160Y-114922914D01*
X142734673Y-114939361D01*
X142644734Y-114976615D01*
X142612963Y-114985128D01*
X142508189Y-114998922D01*
X142491742Y-115000000D01*
X139804190Y-115000000D01*
X139736069Y-114979998D01*
X139689576Y-114926342D01*
X139679472Y-114856068D01*
X139708966Y-114791488D01*
X139715095Y-114784905D01*
X142784905Y-111715095D01*
X142847217Y-111681069D01*
X142918032Y-111686134D01*
G37*
G36*
X142508187Y-91001078D02*
G01*
X142612961Y-91014871D01*
X142644734Y-91023384D01*
X142734673Y-91060638D01*
X142763160Y-91077085D01*
X142840393Y-91136349D01*
X142863650Y-91159606D01*
X142922914Y-91236839D01*
X142939361Y-91265326D01*
X142976615Y-91355265D01*
X142985128Y-91387036D01*
X142998922Y-91491810D01*
X143000000Y-91508257D01*
X143000000Y-94195810D01*
X142979998Y-94263931D01*
X142926342Y-94310424D01*
X142856068Y-94320528D01*
X142791488Y-94291034D01*
X142784905Y-94284905D01*
X139715095Y-91215095D01*
X139681069Y-91152783D01*
X139686134Y-91081968D01*
X139728681Y-91025132D01*
X139795201Y-91000321D01*
X139804190Y-91000000D01*
X142491742Y-91000000D01*
X142508187Y-91001078D01*
G37*
G36*
X132942121Y-91020002D02*
G01*
X132988614Y-91073658D01*
X133000000Y-91126000D01*
X133000000Y-92374000D01*
X132979998Y-92442121D01*
X132926342Y-92488614D01*
X132874000Y-92500000D01*
X128126000Y-92500000D01*
X128057879Y-92479998D01*
X128011386Y-92426342D01*
X128000000Y-92374000D01*
X128000000Y-91126000D01*
X128020002Y-91057879D01*
X128073658Y-91011386D01*
X128126000Y-91000000D01*
X132874000Y-91000000D01*
X132942121Y-91020002D01*
G37*
M02*
